<svg width="19998" height="7059" viewBox="0 0 19998 7059" fill="none" xmlns="http://www.w3.org/2000/svg">
<rect x="0.5" y="0.5" width="19996.3" height="7057.67" stroke="black"/>
<path d="M6660.67 1169.33C6646 1172.8 6627.47 1178.27 6619.33 1181.33C6594.53 1190.67 6567.6 1201.47 6564 1203.33C6560.4 1205.33 6544.27 1212.4 6530.67 1218C6525.87 1220 6515.73 1224.53 6508 1228.27C6500.27 1232 6489.73 1236.67 6484.53 1238.67C6479.33 1240.8 6469.47 1245.07 6462.53 1248.4C6455.6 1251.6 6447.6 1255.07 6444.67 1256C6441.73 1256.93 6435.2 1259.73 6430 1262.13C6410.8 1271.2 6397.33 1277.2 6385.87 1282C6379.33 1284.8 6369.47 1289.07 6364 1291.6C6358.53 1294.13 6344.67 1300.13 6333.33 1304.93C6322 1309.73 6307.87 1315.87 6302 1318.67C6296.13 1321.47 6284 1326.8 6275.07 1330.53C6266.27 1334.27 6256.67 1338.4 6253.73 1339.87C6250.93 1341.33 6239.07 1346.53 6227.33 1351.47C6215.6 1356.27 6205.47 1360.8 6204.67 1361.33C6204 1361.87 6198.8 1364.27 6193.33 1366.53C6187.87 1368.8 6181.6 1371.6 6179.33 1372.67C6174.67 1374.8 6159.73 1381.2 6135.33 1391.47C6125.87 1395.6 6112.93 1401.33 6106.67 1404.27C6100.4 1407.2 6086.27 1413.47 6075.33 1418C6064.27 1422.67 6049.2 1429.2 6042 1432.67C6034.67 1436.13 6026.53 1439.73 6024 1440.67C6021.47 1441.6 6011.87 1445.87 6002.67 1450C5993.47 1454.27 5977.87 1461.2 5968 1465.33C5917.73 1486.93 5905.6 1492.27 5900.93 1494.8C5898.13 1496.27 5893.6 1498.27 5890.93 1499.33C5888.27 1500.27 5874.93 1506 5861.33 1512C5847.73 1518 5828.53 1526.4 5818.67 1530.67C5808.8 1534.93 5795.47 1540.8 5789.2 1543.87C5782.8 1546.8 5772.27 1551.47 5765.87 1554.13C5759.33 1556.8 5747.47 1562 5739.33 1565.73C5731.33 1569.33 5718.67 1574.93 5711.33 1578C5704 1581.2 5689.6 1587.47 5679.33 1592.13L5660.67 1600.67L3742 1601.33C1936.93 1602 1822.13 1602.27 1802.93 1604.4C1705.47 1615.33 1631.87 1635.33 1550.8 1672.53C1388.4 1747.2 1252 1884.8 1177.6 2049.33C1141.33 2129.47 1120.53 2209.33 1111.73 2302C1110.27 2317.33 1110 2565.07 1110 3686.67C1110 4990.8 1110.13 5053.73 1112.4 5076C1122.27 5172.8 1146.4 5258.53 1187.33 5342C1237.73 5445.07 1313.6 5538 1405.47 5609.6C1412.8 5615.33 1419.47 5620 1420.13 5620C1420.8 5620 1421.33 5619.07 1421.33 5618C1421.33 5616.27 1428 5600.27 1434 5587.33C1435.07 5585.07 1438.4 5577.07 1441.47 5569.33C1444.53 5561.6 1448.13 5552.8 1449.47 5549.73C1450.93 5546.53 1452 5543.73 1452 5543.2C1452 5542.8 1453.47 5539.33 1455.2 5535.6C1457.07 5531.73 1462.27 5519.33 1466.8 5508C1471.33 5496.67 1479.47 5476.27 1484.93 5462.67C1493.33 5441.6 1498.13 5430.27 1504 5416.67C1504.67 5415.2 1508.13 5406.53 1511.87 5397.33C1521.87 5371.6 1546.8 5310.4 1550 5303.33C1553.47 5295.47 1556.27 5288.53 1558.13 5282.67C1559.33 5279.33 1561.6 5273.47 1563.47 5269.6C1565.2 5265.73 1566.67 5262.27 1566.67 5262C1566.67 5261.73 1568.13 5258.27 1569.87 5254.4C1571.6 5250.53 1574.27 5244.27 1575.73 5240.67C1577.2 5236.93 1581.2 5227.07 1584.67 5218.67C1588.13 5210.27 1595.07 5192.8 1600.13 5180C1605.2 5167.2 1610.27 5155.07 1611.33 5153.2C1613.2 5149.87 1617.33 5139.2 1625.33 5117.2C1627.47 5111.6 1630.53 5103.73 1632.4 5099.87C1634.13 5095.87 1637.33 5088.4 1639.2 5083.33C1641.2 5078.13 1643.33 5072.8 1644 5071.33C1645.2 5068.53 1646.93 5063.73 1647.33 5062.67C1647.47 5062.27 1648.53 5059.73 1649.73 5056.8C1650.93 5054 1652 5051.2 1652 5050.67C1652 5049.87 1655.2 5042.53 1662.67 5026C1663.33 5024.53 1666.93 5015.73 1670.67 5006.27C1674.27 4996.93 1677.87 4988.27 1678.53 4986.93C1681.47 4981.07 1685.73 4970.93 1687.6 4965.47C1689.47 4959.6 1695.33 4945.33 1699.2 4936.67C1706.53 4920.53 1708 4917.2 1708 4916.53C1708 4914.93 1720 4885.73 1723.33 4879.33C1725.2 4875.6 1726.67 4872.13 1726.67 4871.6C1726.67 4871.07 1727.87 4867.87 1729.33 4864.8C1730.8 4861.6 1734.67 4852.13 1737.87 4843.87C1742.8 4831.2 1756.8 4798.27 1761.33 4788.67C1762 4787.2 1763.87 4782.67 1765.33 4778.67C1766.93 4774.67 1768.93 4770.13 1769.87 4768.67C1770.67 4767.2 1773.2 4761.73 1775.2 4756.67C1777.2 4751.47 1780 4744.93 1781.33 4742C1782.67 4739.07 1786.53 4730.67 1789.73 4723.33C1793.07 4716 1796.93 4707.33 1798.4 4704C1799.87 4700.67 1802.67 4694.13 1804.67 4689.33C1825.2 4639.73 1869.33 4587.33 1921.87 4550.13C1929.07 4544.93 1952.8 4532.67 1961.73 4529.47C1965.47 4528 1977.73 4523.73 1988.67 4519.87C1999.73 4516.13 2009.33 4512.53 2010 4512C2010.8 4511.47 2020.93 4507.87 2032.67 4504C2055.6 4496.53 2067.07 4492.53 2071.33 4490.53C2073.73 4489.47 2100.53 4480.8 2118.67 4475.07C2122.67 4473.87 2126.53 4472.4 2127.2 4471.73C2128 4471.2 2130.13 4470.67 2132 4470.67C2133.87 4470.67 2136 4470.13 2136.8 4469.47C2137.47 4468.93 2143.47 4466.67 2150 4464.67C2156.67 4462.53 2162.53 4460.4 2163.2 4459.73C2164 4459.2 2165.6 4458.67 2166.93 4458.67C2168.27 4458.67 2170.4 4458.13 2171.73 4457.47C2172.93 4456.8 2177.6 4455.33 2182 4454C2186.4 4452.8 2191.47 4451.07 2193.33 4450.4C2195.2 4449.6 2201.2 4447.6 2206.67 4445.87C2212.13 4444 2218.53 4441.73 2220.67 4440.8C2222.93 4439.87 2227.73 4438.27 2231.33 4437.33C2235.07 4436.53 2239.2 4435.2 2240.67 4434.67C2242.13 4434 2251.2 4431.07 2260.67 4428C2270.27 4424.93 2279.87 4421.6 2282 4420.67C2287.6 4418.27 2344.4 4400 2346.4 4400C2347.2 4400 2348 4399.33 2348 4398.67C2348 4397.87 2348.67 4397.33 2349.6 4397.33C2351.2 4397.33 2398.4 4382.13 2403.33 4380C2404.8 4379.47 2408.27 4378 2411.2 4377.07L2416.4 4375.07L2412.4 4372.27C2410.27 4370.8 2400.8 4366.13 2391.33 4362C2381.73 4357.87 2370.13 4352.8 2365.33 4350.67C2360.53 4348.53 2350.4 4344.4 2342.67 4341.33C2329.07 4335.87 2323.73 4333.47 2288 4316.13C2265.6 4305.33 2236.8 4290.13 2228.67 4284.8C2225.07 4282.4 2216.93 4277.2 2210.67 4273.33C2181.07 4255.07 2155.2 4232 2137.47 4208C2127.87 4195.07 2114.67 4170.93 2109.47 4156.67C2107.73 4152.27 2105.87 4147.6 2105.2 4146.4C2104.53 4145.07 2104 4142.8 2104 4141.47C2104 4140 2103.47 4138.53 2102.8 4138.13C2102.27 4137.73 2101.2 4134.8 2100.67 4131.73C2100 4128.53 2099.33 4125.07 2099.07 4124C2098.8 4122.93 2098.27 4119.6 2097.87 4116.67C2097.47 4113.73 2096.67 4110.13 2096 4108.67C2093.47 4102.53 2091.33 4073.87 2091.6 4048C2091.73 4020.27 2094.4 3993.07 2099.07 3972C2099.33 3970.93 2100 3967.47 2100.67 3964.27C2101.2 3961.2 2102.27 3958.27 2102.8 3957.87C2103.47 3957.47 2104 3955.47 2104 3953.47C2104 3951.47 2104.53 3949.33 2105.2 3948.67C2105.87 3947.87 2107.07 3944.93 2108 3942C2110.93 3932.8 2123.73 3908.67 2130.93 3899.2C2149.6 3874.27 2174 3853.87 2200.67 3840.67C2205.07 3838.4 2208.93 3836.27 2209.07 3835.6C2209.33 3835.07 2210.13 3834.67 2210.8 3834.67C2211.33 3834.67 2215.07 3833.2 2218.93 3831.33C2222.8 3829.6 2238.93 3823.33 2254.67 3817.33C2270.4 3811.47 2284.53 3806.13 2286 3805.47C2287.47 3804.93 2295.6 3802.27 2304 3799.47C2317.6 3795.07 2339.87 3787.2 2347.33 3784C2348.8 3783.47 2353.33 3781.87 2357.33 3780.67C2361.33 3779.47 2365.6 3778.13 2366.67 3777.73C2369.6 3776.53 2399.33 3766 2409.33 3762.53C2414.13 3760.93 2419.87 3758.8 2422 3758C2424.27 3757.07 2433.87 3753.73 2443.33 3750.67C2452.93 3747.47 2461.33 3744.4 2462.13 3743.87C2462.8 3743.2 2471.87 3740 2482.13 3736.67C2501.73 3730.27 2516.67 3724.93 2523.33 3722C2525.6 3721.07 2537.6 3716.93 2550 3712.8C2562.53 3708.67 2573.87 3704.8 2575.33 3704.13C2581.2 3701.6 2600 3694.8 2610.67 3691.33C2616.93 3689.33 2623.87 3686.93 2626 3686C2628.27 3685.07 2633.33 3683.2 2637.33 3682C2641.33 3680.8 2645.87 3679.33 2647.33 3678.67C2654.27 3675.6 2661.47 3672.93 2669.33 3670.4C2674.13 3668.93 2679.07 3667.2 2680.27 3666.53C2681.6 3665.87 2683.47 3665.33 2684.53 3665.33C2685.47 3665.33 2688.13 3664.4 2690.13 3663.33C2692.27 3662.27 2695.07 3661.33 2696.4 3661.33C2697.6 3661.33 2699.73 3660.8 2701.07 3660.13C2705.2 3657.87 2713.07 3654.67 2714.27 3654.67C2714.8 3654.67 2719.87 3652.93 2725.33 3650.67C2730.8 3648.53 2745.2 3643.33 2757.33 3639.2C2769.47 3635.07 2781.2 3630.8 2783.33 3629.87C2785.6 3628.8 2799.87 3623.87 2815.2 3618.67C2830.53 3613.47 2843.73 3608.8 2844.53 3608.13C2845.33 3607.47 2852 3605.07 2859.33 3602.67C2879.07 3596.27 2902.8 3588.13 2907.33 3586C2909.6 3585.07 2918.8 3581.73 2928 3578.67C2937.2 3575.6 2945.87 3572.67 2947.33 3572C2948.8 3571.47 2953.07 3569.87 2956.67 3568.67C2960.4 3567.47 2965.2 3565.6 2967.33 3564.67C2969.6 3563.73 2977.33 3560.93 2984.67 3558.53C2992 3556.27 2998.53 3553.73 2999.2 3553.2C3000 3552.53 3001.33 3552 3002.4 3552C3003.47 3552 3006.13 3551.2 3008.4 3550.13C3010.8 3549.07 3017.47 3546.67 3023.33 3544.53C3029.2 3542.53 3034.53 3540.4 3035.2 3539.73C3036 3539.2 3037.73 3538.67 3039.33 3538.67C3040.93 3538.67 3042.67 3538.13 3043.47 3537.47C3044.13 3536.8 3051.6 3534 3060 3531.33C3068.4 3528.53 3081.6 3523.87 3089.33 3521.07C3097.07 3518.13 3112 3512.8 3122.67 3509.2C3145.47 3501.33 3159.2 3496.4 3164.67 3494C3166.93 3493.07 3178.93 3488.93 3191.33 3484.67C3203.87 3480.53 3214.53 3476.53 3215.2 3475.87C3216 3475.2 3217.73 3474.67 3219.33 3474.67C3220.93 3474.67 3222.67 3474.13 3223.47 3473.47C3224.13 3472.8 3228.27 3470.93 3232.67 3469.47C3250.8 3463.33 3267.87 3457.33 3276.67 3454C3281.87 3452 3290.27 3448.93 3295.33 3447.07C3300.53 3445.33 3306.53 3443.07 3308.67 3442.13C3310.93 3441.2 3315.73 3439.6 3319.33 3438.67C3323.07 3437.6 3326.27 3436.53 3326.67 3436.13C3327.07 3435.73 3332.67 3433.6 3339.07 3431.33C3345.6 3429.2 3351.2 3426.93 3351.47 3426.4C3351.87 3425.73 3353.47 3425.33 3355.2 3425.33C3356.8 3425.33 3358.67 3424.8 3359.47 3424.13C3360.13 3423.6 3369.33 3420.13 3380 3416.67C3390.67 3413.2 3403.87 3408.53 3409.33 3406.27C3414.8 3404.13 3433.2 3397.6 3450 3391.73C3482.13 3380.67 3520.4 3367.47 3534 3362.67C3538.4 3361.07 3543.87 3359.07 3546 3358C3548.27 3357.07 3557.47 3353.73 3566.67 3350.8C3575.87 3347.73 3584.53 3344.67 3586 3344C3590.13 3342.27 3609.73 3335.07 3624.67 3330C3632 3327.6 3645.87 3322.67 3655.33 3319.33C3664.93 3315.87 3685.6 3308.67 3701.33 3303.2C3717.07 3297.73 3731.2 3292.8 3732.67 3292C3735.47 3290.67 3740 3289.07 3769.33 3279.2C3779.2 3275.87 3789.2 3272.4 3791.33 3271.47C3796.67 3269.2 3800.93 3267.73 3826 3259.2C3837.73 3255.33 3848.53 3251.47 3850 3250.8C3851.47 3250.13 3855.33 3248.53 3858.67 3247.33C3862 3246.13 3866.53 3244.4 3868.67 3243.33C3870.93 3242.4 3875.33 3240.93 3878.67 3240.13C3882 3239.2 3886.4 3237.6 3888.4 3236.53C3890.53 3235.47 3893.33 3234.67 3894.67 3234.67C3896 3234.67 3897.6 3234 3898 3233.33C3898.4 3232.53 3899.87 3232 3901.2 3232C3902.53 3232 3905.47 3231.07 3907.47 3230C3909.6 3228.93 3912.4 3228 3913.73 3228C3914.93 3228 3917.07 3227.47 3918.4 3226.8C3922.8 3224.4 3932.67 3220.4 3939.33 3218.27C3948 3215.6 3954.8 3213.2 3957.33 3212C3958.53 3211.47 3961.47 3210.53 3964 3210C3966.53 3209.47 3969.47 3208.53 3970.67 3207.87C3974.27 3205.73 4004.67 3194.67 4006.67 3194.67C4007.87 3194.67 4009.33 3194.13 4010 3193.47C4010.8 3192.8 4015.2 3191.07 4020 3189.6C4033.2 3185.47 4052.53 3178.53 4054 3177.33C4054.8 3176.8 4066.8 3172.53 4080.67 3168C4094.67 3163.33 4109.07 3158.27 4112.67 3156.67C4116.4 3154.93 4128.67 3150.53 4140 3146.67C4151.33 3142.93 4162.53 3138.93 4164.67 3138C4166.93 3137.07 4172.27 3134.93 4176.67 3133.33C4181.07 3131.73 4185.87 3129.87 4187.33 3129.33C4188.8 3128.67 4199.33 3125.07 4210.67 3121.33C4222 3117.6 4233.2 3113.73 4235.33 3112.8C4237.6 3111.73 4245.07 3109.07 4252 3106.67C4258.93 3104.27 4265.87 3101.87 4267.33 3101.33C4268.8 3100.8 4273.07 3099.2 4276.67 3098C4280.4 3096.8 4285.2 3094.93 4287.33 3094C4289.6 3093.07 4294.67 3091.33 4298.67 3090C4302.67 3088.67 4307.87 3086.93 4310 3085.87C4312.27 3084.93 4319.47 3082.4 4326 3080.13C4343.2 3074.4 4368.27 3065.47 4371.33 3064C4372.8 3063.33 4386 3058.53 4400.67 3053.47C4415.33 3048.27 4438.8 3040.27 4452.67 3035.33C4466.67 3030.53 4480.67 3025.33 4484 3024C4487.33 3022.53 4502.93 3016.93 4518.67 3011.47C4534.4 3006 4554.53 2999.07 4563.33 2996C4580.8 2989.87 4589.73 2987.07 4598 2985.33C4623.73 2979.87 4624.8 2979.73 4640.67 2980.53C4688.67 2982.93 4717.07 2994.67 4747.87 3024.53C4769.2 3045.47 4783.73 3065.2 4794.8 3089.07C4803.73 3108.27 4809.6 3132.93 4811.47 3159.33C4813.6 3187.2 4812.27 3248.67 4809.33 3260C4808.67 3262.53 4807.6 3266.93 4806.93 3269.6C4805.33 3275.87 4806.53 3276.13 4809.87 3270.27C4820.53 3251.73 4828.4 3234.4 4830.13 3225.33C4830.4 3223.47 4831.07 3221.07 4831.47 3220C4832.27 3217.87 4832.4 3217.33 4834.67 3204.67C4838.13 3184.93 4839.2 3168.8 4839.2 3134.67C4839.2 3114.53 4838.8 3094.67 4838.27 3090.67C4836.4 3078 4831.87 3062.53 4826.4 3050.67C4824.13 3045.87 4820.93 3038.93 4819.2 3035.2C4817.47 3031.47 4815.2 3027.6 4814 3026.67C4812.93 3025.73 4812 3024.27 4812 3023.33C4812 3021.07 4798.8 3002.67 4789.47 2992.13C4768.13 2967.6 4735.33 2945.87 4706 2936.8C4699.47 2934.67 4693.07 2932.53 4692 2932C4688.27 2930.13 4672.67 2926.8 4660.67 2925.2C4643.47 2922.93 4614.93 2925.73 4596 2931.33C4592 2932.53 4586.53 2934 4584 2934.67C4573.33 2937.33 4562.27 2940.8 4544.67 2946.67C4494.4 2963.73 4470.13 2972.13 4466.27 2973.87C4463.87 2975.07 4452.67 2979.2 4441.33 2983.2C4430 2987.07 4416.53 2992 4411.33 2994C4406.27 2996 4393.6 3000.53 4383.33 3004.13C4373.07 3007.73 4363.6 3011.2 4362.4 3012C4361.07 3012.67 4359.07 3013.33 4358 3013.33C4356.93 3013.33 4354.93 3013.87 4353.6 3014.67C4350.67 3016.27 4329.73 3024.27 4319.33 3027.73C4314.93 3029.2 4306.27 3032.4 4300 3034.67C4293.73 3037.07 4285.33 3040.13 4281.33 3041.47C4277.33 3042.93 4272.53 3044.8 4270.67 3045.73C4268.8 3046.8 4264.67 3048.27 4261.33 3049.33C4258 3050.27 4252.93 3052.13 4250 3053.47C4247.07 3054.67 4242.53 3056.13 4240 3056.67C4237.47 3057.2 4234.8 3058.13 4234 3058.67C4233.33 3059.2 4231.2 3060.13 4229.33 3060.67C4226.27 3061.6 4223.07 3062.8 4212.4 3067.47C4210.13 3068.53 4207.33 3069.33 4206.13 3069.33C4204.93 3069.33 4202.93 3069.87 4201.6 3070.53C4196.8 3073.07 4158.53 3086.67 4156.27 3086.67C4155.47 3086.67 4154.67 3087.2 4154.4 3087.73C4154.27 3088.27 4144.13 3092.13 4132 3096.27C4103.07 3106.13 4094.8 3109.07 4090 3111.33C4087.87 3112.27 4075.2 3116.8 4062 3121.33C4048.8 3126 4034.8 3131.07 4030.93 3132.8C4027.07 3134.53 4023.6 3136 4023.07 3136C4021.87 3136 3995.87 3145.33 3991.07 3147.47C3988.8 3148.53 3986.27 3149.33 3985.47 3149.33C3984.67 3149.33 3982.93 3149.87 3981.6 3150.67C3980.4 3151.33 3973.33 3154.13 3966 3156.67C3958.67 3159.33 3951.6 3162 3950.4 3162.8C3949.07 3163.47 3946.8 3164 3945.47 3164C3944 3164 3942.53 3164.53 3942 3165.2C3941.6 3165.87 3939.6 3166.8 3937.6 3167.33C3935.6 3167.73 3927.73 3170.53 3920 3173.47C3912.27 3176.53 3897.07 3182.13 3886 3186C3875.07 3189.87 3860.93 3194.93 3854.67 3197.33C3848.4 3199.73 3830.8 3206 3815.6 3211.47C3800.27 3216.8 3785.87 3222.13 3783.6 3223.2C3779.6 3225.07 3744.27 3237.73 3730 3242.4C3726.4 3243.6 3723.07 3244.93 3722.67 3245.47C3722.27 3246 3716.93 3248 3710.67 3250C3704.4 3252 3698.8 3254.13 3698.13 3254.8C3697.33 3255.47 3695.47 3256 3693.87 3256C3692.13 3256 3690.4 3256.53 3690 3257.33C3689.6 3258 3688.27 3258.67 3687.07 3258.67C3686 3258.67 3683.2 3259.47 3680.93 3260.53C3678.53 3261.6 3672.53 3264 3667.33 3265.87C3662.27 3267.73 3653.87 3270.8 3648.67 3272.67C3643.6 3274.67 3636.93 3277.07 3634 3278C3631.07 3278.93 3621.2 3282.53 3612 3286C3596.27 3292 3562 3304.27 3554.67 3306.67C3550.27 3308 3537.33 3313.07 3534 3314.67C3532.53 3315.33 3522.4 3319.07 3511.33 3322.8C3500.4 3326.53 3485.07 3332.13 3477.33 3335.33C3469.6 3338.4 3457.33 3342.93 3450 3345.33C3442.67 3347.73 3434.27 3350.8 3431.33 3352C3428.4 3353.33 3420 3356.67 3412.67 3359.33C3405.33 3362 3398.13 3364.8 3396.67 3365.33C3395.2 3366 3390.4 3367.73 3386 3369.2C3378.13 3371.73 3361.6 3377.73 3343.33 3384.67C3338.27 3386.53 3330.67 3389.2 3326.67 3390.67C3322.67 3392 3316.93 3394 3314 3395.07C3296 3401.87 3270.67 3411.2 3258.67 3415.33C3239.33 3422 3230.4 3425.33 3227.47 3426.93C3226.13 3427.6 3217.2 3430.93 3207.47 3434.27C3189.87 3440.27 3176 3445.47 3168.67 3448.67C3166.4 3449.73 3154.93 3453.73 3143.33 3457.73C3123.2 3464.67 3119.87 3465.87 3110 3470.13C3107.87 3471.07 3097.33 3474.8 3086.67 3478.53C3076 3482.13 3060.8 3487.73 3052.67 3490.8C3044.67 3493.87 3035.33 3497.2 3032 3498.27C3028.67 3499.33 3024.93 3500.8 3023.73 3501.47C3022.4 3502.13 3020.4 3502.67 3019.33 3502.67C3018.27 3502.67 3016.27 3503.2 3014.93 3503.87C3013.73 3504.67 3008.13 3506.67 3002.67 3508.67C2997.2 3510.53 2987.33 3514.13 2980.93 3516.67C2974.53 3519.2 2968.13 3521.33 2966.8 3521.33C2965.6 3521.33 2964 3521.87 2963.2 3522.4C2962.53 3523.07 2956.27 3525.47 2949.33 3527.73C2942.4 3530 2933.33 3533.2 2929.33 3534.8C2925.33 3536.27 2920.8 3537.87 2919.33 3538.27C2917.87 3538.67 2916.13 3539.47 2915.33 3540C2914.67 3540.67 2904.13 3544.4 2892.13 3548.53C2880.13 3552.67 2868.53 3556.8 2866.13 3557.87C2859.2 3560.93 2850.93 3564 2830.67 3570.93C2820 3574.53 2809.6 3578.4 2807.33 3579.33C2803.47 3581.07 2782.67 3588.8 2770.67 3592.8C2767.33 3594 2763.47 3595.33 2762 3596C2760.53 3596.67 2756.4 3598.13 2752.67 3599.33C2749.07 3600.53 2744.93 3602.13 2743.73 3602.8C2742.4 3603.47 2740.8 3604 2740 3604C2739.2 3604 2736.13 3605.07 2732.93 3606.53C2729.87 3607.87 2724.4 3610 2720.67 3611.33C2717.07 3612.53 2712.8 3614 2711.33 3614.67C2709.87 3615.33 2703.87 3617.47 2698 3619.47C2692.13 3621.33 2686.13 3623.47 2684.67 3624C2671.2 3629.73 2657.73 3634.67 2656 3634.67C2654.8 3634.67 2653.33 3635.2 2652.53 3635.87C2651.87 3636.53 2642.53 3640.13 2631.6 3643.87C2620.8 3647.6 2610.67 3651.33 2608.93 3652.13C2607.33 3653.07 2594 3657.87 2579.47 3662.93C2564.8 3668 2552.13 3672.53 2551.47 3673.2C2550.67 3673.73 2548.8 3674.67 2547.33 3674.93C2545.87 3675.33 2536.93 3678.53 2527.33 3682C2517.87 3685.33 2506.4 3689.33 2502 3690.8C2497.6 3692.27 2492.8 3694 2491.33 3694.67C2484.93 3697.6 2477.33 3700.4 2466 3704.13C2459.47 3706.27 2452.8 3708.67 2451.33 3709.33C2449.87 3710 2446.53 3711.07 2444 3711.73C2441.47 3712.4 2433.33 3715.47 2426 3718.27C2418.67 3721.2 2408.8 3724.93 2404 3726.53C2399.2 3728.13 2394.13 3730 2392.67 3730.67C2391.2 3731.33 2388.53 3732.27 2386.67 3732.67C2380.4 3734.4 2358 3742.93 2356.8 3744.13C2356 3744.8 2354.13 3745.33 2352.67 3745.33C2351.07 3745.33 2349.47 3745.73 2349.07 3746.13C2348.27 3746.93 2314.27 3758.93 2303.33 3762.27C2299.73 3763.33 2296.4 3764.8 2296 3765.33C2295.6 3765.87 2291.47 3767.6 2286.67 3769.07C2273.6 3773.07 2238.53 3785.2 2234 3787.33C2231.87 3788.27 2222.53 3791.6 2213.33 3794.53C2204.13 3797.6 2195.73 3800.53 2194.67 3801.2C2193.47 3801.87 2190.53 3802.8 2188 3803.33C2185.47 3803.87 2182.53 3804.8 2181.33 3805.47C2177.73 3807.47 2162.27 3812.93 2142.67 3819.33C2122.8 3825.87 2120.93 3826.53 2114 3829.33C2111.87 3830.13 2105.47 3832.4 2100 3834.13C2094.53 3836 2088.8 3838 2087.33 3838.67C2085.87 3839.33 2082.53 3840.4 2080 3841.2C2077.47 3842 2063.47 3846.53 2048.93 3851.33C2020 3860.8 2014.67 3861.6 2011.47 3857.07C2009.07 3853.73 2008.53 3842 2010.67 3840.67C2011.33 3840.27 2012 3838.4 2012 3836.67C2012 3834.93 2012.53 3833.2 2013.2 3832.8C2013.87 3832.4 2014.8 3830.53 2015.2 3828.67C2016.27 3824.27 2035.6 3784.53 2044.53 3768.27C2048.4 3761.2 2053.47 3752 2055.6 3748C2060.93 3738.4 2074.27 3717.2 2084.93 3701.33C2109.2 3665.33 2118.67 3656.53 2149.33 3641.73C2174 3629.73 2186.4 3624 2187.47 3624C2189.07 3624 2212.93 3614.4 2227.33 3608C2230.27 3606.8 2239.87 3603.07 2248.67 3600C2257.47 3596.8 2265.33 3593.87 2266 3593.33C2266.8 3592.8 2268.93 3592 2271.07 3591.47C2273.07 3590.93 2278.13 3589.07 2282.27 3587.07C2286.53 3585.2 2295.87 3581.6 2303.33 3579.07C2310.67 3576.53 2318.53 3573.73 2320.67 3572.67C2322.93 3571.73 2327.73 3570 2331.33 3568.67C2335.07 3567.47 2340.53 3565.33 2343.6 3563.87C2346.8 3562.53 2354 3559.73 2359.6 3557.87C2365.33 3555.87 2370.53 3553.73 2371.2 3553.2C2372 3552.53 2373.47 3552 2374.53 3552C2375.73 3552 2378.13 3551.2 2380 3550.27C2381.87 3549.33 2386 3547.73 2389.33 3546.67C2392.67 3545.73 2396 3544.4 2396.67 3544C2397.47 3543.47 2400.4 3542.27 2403.33 3541.33C2406.27 3540.4 2410.13 3538.8 2412 3537.87C2413.87 3536.93 2425.6 3532.53 2438 3528.13C2450.53 3523.73 2463.47 3519.07 2466.93 3517.6C2470.27 3516.13 2483.47 3511.2 2496 3506.67C2508.53 3502.13 2521.73 3497.2 2525.07 3495.73C2528.53 3494.27 2541.6 3489.47 2554 3485.2C2566.53 3480.8 2577.87 3476.8 2579.33 3476.13C2590.4 3471.2 2595.2 3469.33 2603.33 3466.67C2608.53 3465.07 2614.53 3462.93 2616.67 3462C2624 3458.93 2639.33 3453.33 2640.4 3453.33C2640.93 3453.33 2644.13 3452 2647.73 3450.27C2651.2 3448.67 2656.67 3446.4 2660 3445.33C2663.33 3444.4 2666.67 3443.07 2667.33 3442.67C2668.13 3442.13 2672.27 3440.67 2676.67 3439.33C2681.07 3438 2685.33 3436.53 2686 3436C2686.8 3435.47 2692.13 3433.33 2698 3431.33C2703.87 3429.33 2711.07 3426.53 2714 3425.2C2716.93 3423.87 2726.27 3420.4 2734.67 3417.6C2743.07 3414.67 2753.87 3410.67 2758.67 3408.93C2779.07 3400.93 2787.07 3398 2806 3391.33C2817.07 3387.47 2828.67 3383.2 2832 3381.6C2835.33 3380.13 2841.87 3377.6 2846.67 3376.13C2861.73 3371.2 2882 3363.6 2883.2 3362.53C2884 3361.87 2885.73 3361.33 2887.33 3361.33C2888.8 3361.33 2891.2 3360.53 2892.67 3359.6C2894.13 3358.53 2898.93 3356.53 2903.33 3354.93C2924.67 3347.6 2931.73 3345.07 2935.6 3343.2C2938 3342.13 2942.4 3340.4 2945.33 3339.33C2948.27 3338.27 2952.67 3336.53 2955.07 3335.47C2957.33 3334.4 2964.8 3331.73 2971.33 3329.47C2987.2 3324.13 3011.73 3315.07 3016.67 3312.8C3018.93 3311.73 3024.53 3309.6 3029.33 3308C3034.13 3306.4 3039.87 3304.4 3042 3303.33C3044.27 3302.4 3050.27 3300.27 3055.33 3298.67C3060.53 3296.93 3067.73 3294.27 3071.33 3292.67C3075.07 3290.93 3089.47 3285.6 3103.33 3280.8C3117.33 3276 3129.87 3271.47 3131.33 3270.8C3141.2 3266.4 3148.93 3263.47 3187.33 3249.73C3190.27 3248.67 3195.73 3246.4 3199.33 3244.8C3203.07 3243.07 3209.07 3240.67 3212.67 3239.6C3222 3236.67 3234.53 3232.13 3239.6 3229.87C3241.87 3228.8 3244.27 3228 3245.07 3228C3245.73 3228 3249.73 3226.53 3253.87 3224.67C3258 3222.8 3265.07 3220.13 3269.73 3218.67C3274.27 3217.2 3279.07 3215.33 3280.27 3214.67C3281.6 3213.87 3283.87 3213.33 3285.2 3213.33C3286.67 3213.33 3288.27 3212.67 3288.67 3212C3289.07 3211.2 3290.4 3210.67 3291.6 3210.67C3292.67 3210.67 3295.47 3209.87 3297.73 3208.8C3302.53 3206.8 3321.47 3199.6 3338.67 3193.33C3344.93 3191.2 3357.2 3186.53 3366 3183.2C3374.8 3179.87 3394.53 3172.67 3409.73 3167.2C3425.07 3161.73 3439.73 3156.13 3442.4 3154.8C3445.07 3153.47 3453.33 3150.4 3460.67 3148C3468 3145.6 3475.87 3142.93 3478 3142C3484 3139.47 3491.2 3136.67 3492.4 3136.53C3492.93 3136.4 3493.6 3136.13 3494 3136C3494.4 3135.87 3495.07 3135.6 3495.73 3135.47C3496.27 3135.33 3497.33 3134.93 3498 3134.53C3498.8 3134 3507.2 3130.8 3516.67 3127.47C3526.27 3124 3535.07 3120.67 3536.27 3119.87C3537.6 3119.2 3539.33 3118.67 3540.13 3118.67C3540.93 3118.67 3543.47 3117.87 3545.73 3116.8C3554.13 3113.2 3567.47 3108.13 3576 3105.33C3580.8 3103.87 3585.73 3102 3586.93 3101.33C3588.27 3100.53 3590 3100 3590.8 3100C3591.6 3100 3594.13 3099.2 3596.4 3098.13C3598.8 3097.07 3606.67 3094 3614 3091.33C3621.33 3088.67 3627.87 3085.87 3628.67 3085.2C3629.33 3084.53 3630.93 3084 3632.27 3084C3633.6 3084 3635.73 3083.47 3637.07 3082.8C3638.27 3082 3643.6 3080 3648.67 3078.13C3668.13 3071.33 3684.4 3065.2 3686.4 3064C3687.73 3063.2 3696.53 3060 3706 3056.8C3727.33 3049.47 3740.67 3044.53 3746.13 3042C3748.53 3040.93 3756.4 3037.87 3763.73 3035.33C3771.07 3032.8 3784.27 3027.87 3792.93 3024.53C3801.6 3021.2 3814.4 3016.4 3821.33 3013.87C3841.33 3006.8 3843.73 3005.87 3860.67 2999.33C3869.47 2995.87 3880 2992 3884 2990.67C3895.47 2986.8 3907.07 2982.53 3910 2981.33C3915.47 2978.8 3934.27 2971.73 3942 2969.07C3946.4 2967.73 3951.2 2966 3952.67 2965.33C3954.13 2964.67 3962.53 2961.6 3971.33 2958.53C3980.13 2955.33 3987.6 2952.27 3987.73 2951.73C3988 2951.2 3988.8 2950.67 3989.47 2950.67C3991.2 2950.67 4035.47 2934.93 4042.27 2931.87C4045.33 2930.53 4057.33 2926 4068.93 2922C4080.53 2917.87 4091.07 2914 4092.27 2913.33C4093.6 2912.53 4095.33 2912 4096.27 2912C4097.07 2912 4100.27 2910.8 4103.2 2909.33C4106.27 2908 4116.8 2904 4126.67 2900.53C4136.53 2897.2 4146.53 2893.6 4148.67 2892.67C4152.27 2891.07 4163.6 2886.8 4200.67 2873.07C4223.47 2864.53 4226.13 2863.6 4230.4 2861.87C4232.67 2860.8 4236.67 2859.07 4239.2 2858C4241.73 2856.93 4244.67 2856 4245.87 2856C4247.07 2856 4249.07 2855.47 4250.4 2854.8C4254 2852.93 4258.8 2851.07 4266 2848.67C4269.73 2847.33 4274.53 2845.6 4276.67 2844.67C4278.93 2843.73 4282.13 2842.53 4284 2842C4285.87 2841.47 4288 2840.53 4288.67 2840C4289.47 2839.47 4299.33 2835.6 4310.67 2831.6C4337.33 2822.13 4342.8 2820.13 4345.87 2818.4C4347.2 2817.73 4360.4 2812.67 4375.2 2807.33C4389.87 2801.87 4410.13 2794.4 4420 2790.67C4429.87 2786.93 4442.8 2782 4448.67 2779.73C4454.53 2777.6 4461.2 2774.93 4463.33 2774C4465.6 2773.07 4468.93 2771.73 4471.07 2771.33C4473.07 2770.8 4475.07 2769.87 4475.47 2769.2C4475.87 2768.53 4477.07 2768 4478.13 2768C4479.87 2768 4491.87 2763.73 4500.67 2760C4502.13 2759.33 4506.4 2757.87 4510 2756.67C4513.73 2755.33 4518.53 2753.6 4520.67 2752.67C4522.93 2751.6 4527.33 2749.87 4530.67 2748.67C4538.53 2745.73 4546.67 2742.67 4550 2741.2C4551.47 2740.67 4560.53 2737.33 4570 2733.87C4579.6 2730.4 4588.53 2726.67 4590 2725.73C4591.47 2724.8 4593.6 2724 4594.8 2724C4596 2724 4598.93 2722.93 4601.47 2721.6C4605.73 2719.47 4618.93 2719.33 4813.07 2718.93L5020 2718.67L5026.4 2722C5029.87 2723.87 5033.6 2726 5034.67 2726.67C5038.8 2729.33 5057.47 2740 5058 2740C5059.6 2740 5077.6 2753.33 5088.13 2762.13C5105.2 2776.67 5143.87 2817.87 5162.67 2842C5164.53 2844.27 5168.4 2849.07 5171.33 2852.67C5189.2 2874.13 5197.33 2884 5201.33 2889.33C5203.87 2892.67 5207.73 2897.6 5210 2900.27C5242.8 2939.73 5256.13 2958 5262.27 2971.73C5266.67 2981.73 5266.67 2998.53 5262.13 3010.67C5258.67 3020.27 5248.4 3044.27 5244.27 3052.67C5239.2 3063.07 5237.33 3067.47 5233.33 3078.53C5231.2 3084.67 5229.33 3090 5229.33 3090.13C5229.33 3090.4 5230.67 3090.53 5232.4 3090.53C5241.87 3090.27 5402.53 3093.6 5433.33 3094.67C5453.47 3095.47 5500.27 3096 5537.33 3096C5574.4 3096.13 5621.47 3096.67 5642 3097.33C5662.53 3098 5726.4 3098.93 5784 3099.33C5841.6 3099.87 5889.6 3100.53 5890.67 3100.93C5891.73 3101.2 5913.07 3102 5938 3102.67C5962.93 3103.33 5986.13 3104.27 5989.73 3104.8C5993.2 3105.33 5996 3105.2 5996 3104.53C5995.87 3102.53 5956 3071.87 5950 3069.2C5948.53 3068.53 5943.73 3065.33 5939.33 3062.13C5934.93 3058.8 5930.67 3056.13 5929.87 3056.13C5929.07 3056 5927.33 3054.8 5926 3053.33C5924.67 3051.87 5923.07 3050.67 5922.4 3050.67C5921.73 3050.67 5918.67 3048.93 5915.6 3046.8C5908.93 3042.4 5871.2 3019.47 5849.2 3006.67C5840.67 3001.73 5831.47 2996.13 5828.53 2994.4C5825.73 2992.53 5819.2 2988.8 5814 2986C5808.93 2983.2 5798.93 2977.47 5792 2973.33C5785.07 2969.2 5774.53 2963.2 5768.67 2960.13C5762.8 2956.93 5756.4 2953.2 5754.4 2951.87C5752.53 2950.4 5750.53 2949.33 5750 2949.33C5749.47 2949.33 5747.47 2948.13 5745.33 2946.67C5743.33 2945.33 5736.67 2941.47 5730.53 2938.27C5720.67 2933.2 5716.8 2931.07 5706 2924.4C5704.53 2923.47 5698 2920 5691.33 2916.53C5684.8 2913.07 5677.73 2909.2 5675.73 2907.87C5673.87 2906.4 5671.87 2905.33 5671.33 2905.33C5670.8 2905.33 5668.8 2904.27 5666.93 2902.8C5664.93 2901.47 5657.07 2897.07 5649.33 2893.07C5623.87 2879.6 5595.47 2864.27 5590 2860.93C5587.07 2859.2 5577.2 2853.87 5568 2849.33C5558.8 2844.67 5550.4 2840.13 5549.33 2839.2C5548.27 2838.4 5538.4 2832.93 5527.33 2827.2C5516.4 2821.47 5496.53 2811.2 5483.33 2804.27C5438.67 2780.93 5310.93 2717.07 5308 2716.67C5307.33 2716.53 5302 2714.13 5289.87 2708.53C5286.13 2706.8 5282.67 2705.33 5282.27 2705.33C5281.87 2705.33 5277.73 2703.6 5273.07 2701.47C5268.4 2699.47 5262 2696.67 5258.67 2695.33C5255.33 2694.13 5251.6 2692.53 5250.4 2691.87C5249.07 2691.2 5246.8 2690.67 5245.47 2690.67C5244 2690.67 5242.53 2690.13 5242.13 2689.6C5241.73 2688.93 5237.33 2687.47 5232.4 2686.13C5227.47 2684.93 5220.27 2683.07 5216.53 2682C5212.8 2680.93 5206.93 2679.6 5203.6 2679.2C5200.13 2678.67 5196.93 2677.73 5196.53 2677.2C5196.13 2676.53 5192.67 2676 5188.93 2675.87C5185.07 2675.87 5179.07 2675.2 5175.33 2674.53C5161.2 2671.87 5142 2670.53 5056.8 2666.8C4956.93 2662.27 4918.8 2660.4 4890 2658.53C4879.07 2657.87 4861.6 2657.07 4851.33 2656.67C4841.07 2656.27 4829.33 2655.6 4825.33 2655.2C4821.33 2654.8 4815.07 2654.27 4811.33 2653.87C4800.13 2652.93 4728.13 2649.33 4692.67 2648C4674.4 2647.33 4654.8 2646.4 4649.33 2646C4643.87 2645.73 4629.73 2645.07 4618 2644.67C4606.27 2644.27 4591.87 2643.6 4586 2643.33C4580.13 2642.93 4558.53 2642 4538 2641.33C4499.73 2640 4461.87 2638.27 4416 2636.13C4401.73 2635.33 4356.13 2634.67 4314.67 2634.53C4244.67 2634.27 4239.07 2634.4 4234.8 2636.67C4232.27 2637.87 4226.27 2640.4 4221.47 2642.13C4200.8 2649.33 4189.87 2653.6 4188.8 2654.67C4188 2655.47 4186.27 2656 4184.67 2656C4183.07 2656 4181.33 2656.53 4180.67 2657.2C4179.87 2657.87 4170.93 2661.47 4160.67 2665.2C4150.4 2668.93 4140.4 2672.93 4138.4 2674C4136.53 2675.07 4134 2676 4132.93 2676C4131.87 2676 4127.47 2677.6 4123.2 2679.47C4118.93 2681.33 4112.67 2683.87 4109.33 2684.93C4106 2686 4101.6 2687.73 4099.33 2688.67C4097.2 2689.73 4092.67 2691.33 4089.33 2692.4C4086 2693.47 4081.6 2695.2 4079.33 2696C4077.2 2696.93 4073.6 2698.4 4071.33 2699.33C4069.2 2700.27 4062.27 2702.93 4056 2705.33C4049.73 2707.73 4043.47 2710.13 4042 2710.67C4040.53 2711.33 4036.4 2712.8 4032.67 2714C4024.27 2716.8 4021.87 2717.73 4015.6 2720.53C4012.8 2721.73 4005.6 2724.53 3999.6 2726.8C3993.6 2729.07 3987.47 2731.33 3986 2732C3984.53 2732.67 3974.67 2736.53 3964 2740.53C3953.33 2744.53 3940.13 2749.6 3934.67 2751.87C3929.2 2754 3918.67 2758 3911.33 2760.67C3898.27 2765.33 3896.13 2766.13 3889.33 2769.07C3881.6 2772.4 3874.67 2775.07 3863.33 2778.93C3856.8 2781.2 3850.8 2783.6 3850 2784.13C3849.33 2784.8 3848 2785.33 3846.93 2785.33C3845.87 2785.33 3843.2 2786.13 3840.93 2787.2C3835.6 2789.6 3821.87 2794.93 3811.33 2798.67C3806.93 2800.27 3802.13 2802 3800.67 2802.67C3799.2 2803.2 3795.33 2804.67 3792 2806C3788.67 2807.33 3784.8 2808.8 3783.33 2809.33C3781.87 2810 3776.13 2812.13 3770.67 2814.13C3765.2 2816.13 3760.13 2818.13 3759.33 2818.67C3758.67 2819.07 3755.33 2820.4 3752 2821.33C3748.67 2822.4 3744.53 2824 3742.67 2824.93C3740.8 2825.87 3738.53 2826.67 3737.6 2826.67C3736.67 2826.67 3734.93 2827.2 3733.6 2828C3732.4 2828.67 3725.47 2831.33 3718.27 2834C3710.93 2836.67 3704.13 2839.33 3702.93 2840.13C3701.6 2840.8 3690.13 2845.2 3677.07 2849.87C3664.13 2854.67 3650.67 2859.87 3647.07 2861.47C3643.6 2863.07 3634.93 2866.4 3628 2868.8C3621.07 2871.2 3611.73 2874.4 3607.33 2876C3602.93 2877.47 3598.13 2879.33 3596.67 2879.87C3595.2 2880.53 3591.87 2882 3589.2 2883.2C3586.53 2884.27 3579.07 2887.07 3572.53 2889.33C3566 2891.6 3559.47 2894 3558 2894.53C3556.53 2895.2 3547.87 2898.53 3538.67 2902C3529.47 2905.47 3520.27 2909.07 3518 2910.13C3515.87 2911.07 3511.33 2912.8 3508 2913.87C3496.4 2917.87 3492 2919.47 3491.2 2920.4C3490.67 2920.93 3488.93 2921.33 3487.33 2921.33C3485.87 2921.33 3484 2921.87 3483.33 2922.53C3482.53 2923.2 3478.4 2924.93 3474 2926.67C3469.6 2928.27 3464.27 2930.27 3462 2931.33C3459.87 2932.27 3455.07 2934.13 3451.33 2935.33C3447.73 2936.53 3443.47 2938.13 3442 2938.67C3430.27 2943.33 3417.87 2948 3417.07 2948C3416.53 2948 3411.6 2950.13 3406.13 2952.67C3400.67 2955.2 3395.47 2957.33 3394.8 2957.33C3394 2957.33 3389.6 2958.8 3385.07 2960.53C3380.4 2962.27 3371.6 2965.73 3365.33 2968C3359.07 2970.4 3352.27 2973.07 3350 2974.13C3347.87 2975.07 3336.13 2979.6 3324 2984C3311.87 2988.4 3300.8 2992.53 3299.33 2993.2C3288.13 2998 3281.33 3000.53 3268 3005.47C3239.73 3015.73 3235.33 3017.33 3231.33 3019.2C3226.93 3021.33 3215.73 3025.6 3200 3031.33C3194.53 3033.33 3188.27 3035.73 3186 3036.67C3180.8 3039.07 3160.53 3047.2 3154.67 3049.33C3152.13 3050.27 3148.13 3051.87 3145.73 3052.8C3143.47 3053.87 3141.2 3054.67 3140.67 3054.67C3139.47 3054.67 3118.13 3063.07 3117.33 3064C3116.53 3064.8 3108.53 3068 3104.67 3068.93C3102 3069.6 3100.93 3070 3092 3073.6C3089.47 3074.67 3085.6 3076.27 3083.33 3077.07C3074.8 3080.13 3060.4 3085.73 3055.33 3088C3052.27 3089.33 3043.87 3092.67 3036.67 3095.33C3015.87 3102.93 3008.8 3105.73 3007.47 3106.93C3006.67 3107.47 3005.33 3108 3004.4 3108C3003.33 3108 2999.6 3109.33 2995.87 3110.93C2989.33 3113.87 2989.2 3114.13 2990 3118.67C2991.73 3129.2 2993.47 3161.47 2992.8 3172C2992.27 3178.27 2992 3185.6 2992 3188.27C2992.13 3190.93 2991.47 3193.47 2990.67 3194C2990 3194.4 2989.33 3197.07 2989.33 3199.87C2989.33 3202.53 2988.8 3205.33 2988.13 3206C2987.6 3206.8 2986.27 3210.27 2985.47 3213.87C2983.47 3221.87 2975.07 3239.6 2968.13 3250.27C2954.4 3271.33 2928.13 3291.47 2900.53 3302C2891.87 3305.33 2879.33 3310.4 2872.67 3313.2C2866.13 3316 2858.93 3318.93 2856.67 3319.73C2828.93 3329.87 2814.93 3335.07 2812.13 3336.67C2810.13 3337.6 2804.93 3339.73 2800.67 3341.2C2790 3344.8 2772.93 3351.07 2764.67 3354.4C2761.07 3355.87 2752 3359.2 2744.67 3361.87C2737.33 3364.67 2730.4 3367.33 2729.33 3367.87C2728.13 3368.53 2725.2 3369.47 2722.67 3370C2720.13 3370.53 2717.47 3371.47 2716.67 3372C2716 3372.53 2710.53 3374.67 2704.67 3376.67C2698.8 3378.67 2691.6 3381.47 2688.8 3382.8C2685.87 3384.27 2682.53 3385.33 2681.33 3385.33C2680.13 3385.33 2678.67 3385.87 2677.87 3386.53C2677.2 3387.07 2673.33 3388.67 2669.33 3389.87C2665.33 3391.07 2660.8 3392.67 2659.33 3393.33C2655.87 3394.93 2636 3402.13 2606 3412.8C2592.8 3417.6 2575.87 3423.87 2568.27 3426.8C2560.67 3429.73 2546.8 3434.8 2537.6 3438C2514 3446.13 2511.87 3446.8 2506.93 3448.93C2504.4 3450 2492.8 3454.13 2480.93 3458.13C2469.07 3462.13 2457.6 3466.27 2455.33 3467.2C2450.93 3469.2 2432.27 3476 2422.67 3479.07C2419.33 3480.13 2413.07 3481.73 2408.67 3482.67C2404.27 3483.47 2398 3484.8 2394.8 3485.6C2379.07 3489.6 2349.87 3486 2330.13 3477.73C2309.47 3469.2 2282.13 3446 2267.07 3424.67C2260.4 3415.07 2248 3390.53 2248 3386.8C2248 3386 2247.47 3384.27 2246.67 3382.93C2245.2 3380.27 2241.6 3367.47 2239.73 3358C2238.13 3349.47 2237.33 3302.67 2238.8 3299.87C2239.47 3298.67 2240 3295.6 2240.27 3293.2C2240.4 3290.67 2240.93 3288 2241.33 3287.33C2241.87 3286.53 2243.07 3282.8 2244 3278.93C2244.8 3275.2 2246.13 3271.6 2246.8 3271.2C2247.47 3270.8 2248 3269.47 2248 3268.4C2248 3264 2261.87 3241.2 2268.8 3234.27C2280 3223.07 2282.13 3221.33 2290.27 3217.47C2294.53 3215.47 2305.47 3210.13 2314.67 3205.6C2333.6 3196.53 2345.47 3190.93 2357.6 3185.87C2362.27 3184 2369.33 3180.67 2373.33 3178.67C2377.33 3176.53 2388.53 3171.6 2398 3167.6C2407.6 3163.6 2418.93 3158.53 2423.33 3156.27C2427.73 3154.13 2440.4 3148.53 2451.33 3144C2462.4 3139.33 2472 3135.07 2472.8 3134.53C2473.6 3133.87 2480.13 3130.93 2487.47 3127.87C2494.67 3124.93 2503.33 3121.2 2506.67 3119.73C2510 3118.4 2514.13 3116.53 2516 3115.73C2517.87 3114.93 2520.8 3113.6 2522.67 3112.67C2524.53 3111.73 2533.47 3107.87 2542.67 3104C2551.87 3100.13 2561.87 3095.87 2564.93 3094.53C2568 3093.2 2570.8 3092 2571.07 3092C2571.47 3092 2576.8 3089.73 2582.93 3086.93C2588.93 3084.13 2596.67 3080.8 2600 3079.47C2608.4 3076.13 2618.67 3071.73 2632.67 3065.47C2639.33 3062.53 2653.07 3056.8 2663.33 3052.67C2673.6 3048.53 2683.47 3044.27 2685.33 3043.2C2688.4 3041.47 2698.13 3037.6 2744.67 3019.33C2753.47 3015.87 2764.93 3011.47 2770 3009.73C2775.2 3007.87 2780.53 3005.87 2782 3005.2C2783.47 3004.67 2791.87 3002 2800.67 2999.33C2809.47 2996.67 2818.53 2994 2820.8 2993.2C2823.07 2992.53 2826.8 2992 2829.07 2992C2831.33 2992 2836 2991.33 2839.2 2990.4C2843.87 2989.2 2847.47 2989.2 2856.27 2990.67C2870.4 2992.93 2874.8 2994.4 2892.67 3003.6C2900.8 3007.73 2911.73 3013.33 2917.07 3016L2926.8 3021.07L2940.4 3015.6C2957.47 3008.93 2965.07 3005.87 2973.6 3002.13C2976.27 3000.93 2978.8 3000 2979.2 3000C2979.6 3000 2983.6 2998.27 2988.27 2996.13C2992.93 2994 3002.67 2990 3010 2987.33C3017.33 2984.53 3024 2981.87 3024.67 2981.33C3025.47 2980.8 3027.47 2979.87 3029.33 2979.33C3031.2 2978.8 3036.27 2976.67 3040.67 2974.67C3045.07 2972.67 3051.07 2970.13 3054 2968.93C3056.93 2967.87 3067.73 2963.47 3078 2959.33C3088.27 2955.07 3106.4 2947.87 3118.4 2943.2C3130.27 2938.53 3143.87 2932.93 3148.4 2930.93C3152.93 2928.8 3162.93 2924.8 3170.67 2922C3178.4 2919.2 3185.2 2916.4 3185.87 2915.73C3186.67 2915.2 3188 2914.67 3188.93 2914.67C3192.67 2914.67 3208 2906.4 3207.07 2904.93C3206.67 2904 3202.67 2898.27 3198.27 2892C3184.8 2872.8 3184.93 2872.93 3176.8 2853.73C3172.53 2843.47 3171.33 2837.73 3171.47 2827.33C3171.47 2816.8 3173.2 2794.8 3174.8 2784C3175.47 2779.2 3176.4 2773.2 3176.8 2770.67C3177.07 2768.13 3178 2761.73 3178.67 2756.67C3179.47 2751.47 3181.87 2734.4 3184.13 2718.67C3186.4 2703.07 3188.8 2687.47 3189.47 2684C3190.93 2677.87 3193.07 2665.07 3194 2658C3194.27 2655.73 3196.93 2638.93 3199.87 2620.67C3202.8 2602.27 3205.87 2582.8 3206.8 2577.33C3207.6 2571.87 3209.47 2560.4 3211.07 2552C3212.53 2543.6 3214.13 2533.33 3214.67 2529.33C3215.33 2525.33 3217.07 2514.8 3218.53 2506C3221.07 2491.73 3222 2485.87 3224.53 2468C3228.67 2439.87 3230.93 2424.67 3232 2418C3232.8 2413.6 3233.73 2408.13 3234 2405.87C3234.8 2400.93 3242.13 2372.27 3243.87 2367.73C3253.6 2342.13 3265.73 2328.93 3316.93 2288.53C3335.33 2274 3371.07 2248 3372.67 2248C3372.93 2248 3378.67 2244.67 3385.47 2240.67C3392.13 2236.67 3398.13 2233.33 3398.8 2233.33C3399.47 2233.33 3400 2232.8 3400 2232.27C3400 2231.6 3406.13 2227.73 3413.73 2223.6C3421.2 2219.47 3432 2213.2 3437.6 2209.73C3443.2 2206.27 3452.67 2200.67 3458.67 2197.33C3464.53 2194 3472.4 2189.33 3476.13 2187.07C3479.73 2184.67 3485.87 2181.07 3489.73 2178.93C3493.6 2176.8 3503.6 2170.93 3512.27 2165.73C3526.4 2157.2 3543.07 2148.53 3562.67 2139.6C3566.67 2137.73 3574.53 2135.33 3580 2134.13C3589.47 2132.13 3638 2124.4 3650.27 2123.07L3655.87 2122.4L3655.47 2114.27C3655.2 2109.73 3654.53 2091.87 3654.13 2074.67L3653.2 2043.33L3666.8 2031.33C3674.27 2024.67 3683.73 2016.8 3687.87 2013.73C3692 2010.67 3697.73 2006.4 3700.67 2004.27C3708.67 1998.4 3740.93 1980.8 3756 1974.27C3770.4 1968 3798.53 1956.93 3801.73 1956.4C3803.73 1956 3805.73 1955.2 3806.13 1954.53C3806.53 1953.87 3808.27 1953.33 3810 1953.33C3811.73 1953.33 3813.47 1952.8 3814 1952.13C3814.4 1951.33 3817.47 1950.4 3820.67 1949.87C3824 1949.47 3827.07 1948.53 3827.47 1947.87C3827.87 1947.2 3829.87 1946.67 3831.87 1946.67C3833.87 1946.67 3836 1946.13 3836.67 1945.6C3837.47 1944.93 3844.67 1942.8 3852.67 1940.8C3860.8 1938.8 3868.53 1936.67 3870 1936C3873.2 1934.67 3893.47 1930 3904.67 1928.13C3909.07 1927.33 3916.27 1926.13 3920.67 1925.33C3933.6 1923.07 3964.93 1918.93 3980 1917.33C3987.73 1916.67 3998.8 1915.33 4004.67 1914.4C4020.53 1912.13 4088.4 1912.13 4096 1914.53C4099.33 1915.47 4105.07 1917.2 4108.67 1918.27C4116.27 1920.53 4130.4 1926.93 4146 1935.07C4151.87 1938.13 4161.2 1942.8 4166.67 1945.6L4176.67 1950.67L4298.67 1951.2C4437.2 1952 4507.6 1953.87 4568 1958.53C4577.2 1959.33 4595.2 1960.53 4608 1961.2C4620.8 1962 4634 1962.93 4637.33 1963.33C4640.67 1963.6 4650 1964.27 4658 1964.8C4666.13 1965.2 4673.6 1965.87 4674.67 1966.27C4675.73 1966.67 4683.33 1967.47 4691.33 1968.13C4711.47 1969.6 4749.33 1973.2 4760.67 1974.53C4765.87 1975.2 4773.87 1976.13 4778.67 1976.67C4791.73 1978 4823.6 1983.87 4833.33 1986.67C4838.13 1988 4845.6 1990.67 4850 1992.53C4855.47 1994.8 4860.4 1995.87 4865.33 1995.87C4871.73 1995.87 4894.8 1991.2 4909.33 1986.93C4952.27 1974.27 4978.27 1970.13 5008.67 1971.07C5030.27 1971.73 5036.13 1973.33 5044.27 1980.93C5047.33 1983.87 5048.53 1984.13 5052.93 1983.33C5062.53 1981.6 5094.13 1970.67 5107.73 1964.53C5111.6 1962.8 5115.2 1961.33 5115.87 1961.33C5116.53 1961.33 5119.33 1960.13 5122.27 1958.8C5131.47 1954.13 5142.67 1949.33 5144 1949.33C5144.8 1949.33 5146.4 1948.8 5147.73 1948.13C5148.93 1947.47 5152.67 1945.73 5156 1944.27C5184.4 1931.87 5194.67 1927.47 5208 1922C5216.4 1918.4 5224 1915.07 5224.67 1914.53C5225.47 1914 5234.67 1910 5245.33 1905.6C5256 1901.2 5270 1895.07 5276.53 1892C5283.2 1888.93 5292.13 1885.07 5296.53 1883.33C5305.2 1880.13 5318.27 1874.4 5324.27 1871.2C5326.13 1870.13 5328.67 1869.33 5329.87 1869.33C5331.07 1869.33 5332 1868.93 5332 1868.27C5332 1867.73 5335.73 1865.87 5340.4 1864.13C5344.93 1862.4 5352 1859.47 5356 1857.73C5360 1855.87 5364.53 1854 5366 1853.33C5367.47 1852.8 5374.4 1849.6 5381.47 1846.13C5388.53 1842.8 5394.8 1840 5395.33 1840C5396.27 1840 5399.6 1838.53 5414 1832.13C5418.4 1830.13 5424.8 1827.33 5428.27 1825.87C5431.87 1824.53 5434.67 1822.93 5434.67 1822.27C5434.67 1821.73 5435.33 1821.33 5436 1821.33C5438.4 1821.33 5483.2 1802.13 5485.07 1800.4C5486 1799.47 5487.47 1798.67 5488.27 1798.67C5490 1798.67 5518.67 1786.53 5534.53 1779.2C5541.33 1776 5547.2 1773.33 5547.6 1773.33C5548 1773.33 5553.07 1771.2 5559.07 1768.53C5565.07 1766 5572.13 1762.93 5574.67 1761.87C5577.2 1760.67 5582.93 1758.13 5587.33 1756C5591.73 1753.87 5598.4 1750.93 5602.13 1749.47C5609.87 1746.53 5618 1742.93 5630.27 1737.2C5634.93 1735.07 5639.2 1733.33 5639.87 1733.33C5640.53 1733.33 5641.73 1732.53 5642.53 1731.47C5643.47 1730.4 5646.13 1729.07 5648.4 1728.53C5650.67 1728.13 5653.47 1727.2 5654.67 1726.53C5656.67 1725.6 5662.8 1722.8 5674.67 1717.6C5678 1716.13 5685.73 1712.8 5692 1710C5698.27 1707.2 5705.2 1704.27 5707.33 1703.2C5709.6 1702.27 5717.73 1698.8 5725.6 1695.47C5733.47 1692.13 5742.8 1688 5746.27 1686.27C5749.73 1684.4 5757.47 1681.07 5763.33 1678.8C5775.87 1673.73 5780 1671.87 5793.2 1665.73C5798.67 1663.07 5810.67 1657.87 5819.87 1654C5829.07 1650.13 5843.6 1643.87 5852 1640C5865.73 1633.87 5870.67 1631.73 5879.33 1628C5880.8 1627.33 5886.8 1624.67 5892.67 1622C5898.53 1619.2 5909.07 1614.67 5916 1611.73C5930 1605.87 5933.47 1604.4 5948 1597.73C5960.93 1591.87 5960.53 1592 5979.33 1584C5988.13 1580.27 5997.2 1576.27 5999.33 1575.07C6003.6 1572.93 6035.33 1559.47 6042 1557.07C6044.27 1556.27 6048.13 1554.4 6050.67 1552.93C6053.2 1551.47 6063.2 1547.07 6072.67 1543.07C6082.27 1539.07 6094.8 1533.47 6100.67 1530.67C6113.2 1524.8 6116.67 1523.2 6132.53 1516.67C6138.93 1514 6149.07 1509.47 6155.07 1506.53C6160.93 1503.73 6166.27 1501.33 6166.8 1501.33C6167.47 1501.33 6171.2 1499.87 6175.33 1498C6179.33 1496.13 6186 1493.2 6190 1491.33C6194.13 1489.47 6197.73 1488 6198.13 1488C6198.4 1488 6203.2 1485.87 6208.53 1483.33C6214 1480.8 6218.8 1478.67 6219.2 1478.67C6219.6 1478.67 6223.87 1476.8 6228.67 1474.67C6233.47 1472.4 6237.73 1470.67 6238.13 1470.67C6238.53 1470.67 6244.4 1468 6251.2 1464.8C6258.13 1461.47 6273.2 1454.8 6284.8 1449.87C6296.53 1445.07 6306.67 1440.53 6307.33 1440C6308.13 1439.47 6317.07 1435.6 6327.33 1431.33C6337.47 1427.2 6346.8 1423.2 6348 1422.53C6349.73 1421.6 6358 1417.73 6376.27 1409.47C6379.73 1408 6383.47 1406.67 6384.4 1406.67C6385.33 1406.67 6387.2 1405.87 6388.67 1404.93C6390.13 1404 6394.4 1401.87 6398.13 1400.27C6401.73 1398.8 6409.47 1395.33 6415.07 1392.8C6420.67 1390.13 6425.73 1388 6426.13 1388C6426.53 1388 6430.13 1386.53 6434.13 1384.67C6438.13 1382.8 6441.6 1381.33 6442 1381.33C6442.27 1381.33 6448.8 1378.27 6456.53 1374.67C6464.27 1370.93 6470.93 1368 6471.33 1368C6471.73 1368 6474.53 1366.8 6477.73 1365.47C6480.8 1364 6490.53 1359.73 6499.33 1356C6508.13 1352.27 6518.93 1347.47 6523.33 1345.33C6527.73 1343.33 6536.13 1339.73 6542 1337.2C6547.87 1334.8 6553.87 1332 6555.33 1331.07C6556.8 1330.13 6558.93 1329.33 6560.27 1329.33C6561.47 1329.33 6563.33 1328.53 6564.27 1327.6C6565.2 1326.67 6571.73 1323.6 6578.67 1320.8C6593.07 1314.93 6609.6 1307.47 6614.8 1304.67C6616.67 1303.6 6624.67 1300.27 6632.8 1297.33C6640.8 1294.27 6649.2 1290.93 6651.33 1290C6660.13 1286.13 6685.87 1277.07 6690 1276.4C6703.07 1274.27 6718.13 1280.53 6734.93 1294.93C6743.33 1302.27 6754.8 1316.8 6760.8 1328C6768.93 1342.93 6771.2 1351.47 6771.07 1366.67C6771.07 1378.53 6769.87 1384.4 6765.33 1395.07C6755.6 1418.27 6740.93 1436 6725.33 1443.6C6720.53 1445.87 6706 1452.93 6692.93 1459.2C6679.87 1465.47 6668.93 1470.67 6668.53 1470.67C6668 1470.67 6661.87 1473.47 6631.33 1488C6625.47 1490.8 6614.4 1495.87 6606.67 1499.33C6598.93 1502.8 6592.13 1506.13 6591.33 1506.67C6590.67 1507.2 6583.73 1510.4 6576 1513.73C6568.27 1517.07 6555.73 1522.8 6548 1526.4C6540.27 1530 6529.47 1534.93 6524 1537.33C6518.53 1539.73 6506.13 1545.47 6496.4 1550.13C6486.67 1554.8 6478.4 1558.67 6477.87 1558.67C6477.47 1558.67 6471.33 1561.33 6464.4 1564.67C6457.47 1568 6451.73 1570.67 6451.47 1570.67C6451.2 1570.67 6444 1574 6435.47 1578C6426.93 1582 6419.73 1585.33 6419.33 1585.33C6418.53 1585.33 6405.33 1591.33 6392.67 1597.47C6386.8 1600.27 6374.27 1605.87 6364.67 1610C6355.2 1614.13 6346 1618.4 6344.4 1619.33C6342.8 1620.4 6336.27 1623.47 6329.73 1626.13C6323.33 1628.8 6310.67 1634.53 6301.73 1638.8C6292.8 1643.07 6282.67 1647.73 6279.07 1649.2C6275.6 1650.53 6264.4 1655.73 6254.4 1660.53C6244.27 1665.33 6235.73 1669.33 6235.47 1669.33C6235.07 1669.33 6230.27 1671.47 6224.8 1674C6219.2 1676.53 6214.4 1678.67 6214 1678.67C6213.6 1678.67 6207.2 1681.6 6199.73 1685.2C6181.2 1693.87 6170.67 1698.67 6170 1698.67C6169.6 1698.67 6164.13 1701.07 6157.87 1704C6151.6 1706.93 6146 1709.33 6145.6 1709.33C6145.2 1709.33 6143.87 1710.13 6142.8 1711.2C6141.6 1712.13 6138.93 1713.6 6136.67 1714.4C6130.67 1716.53 6107.6 1726.8 6093.2 1733.73C6086.13 1737.2 6080 1740 6079.6 1740C6078.4 1740 6059.2 1748.8 6050.67 1753.33C6046.67 1755.47 6040 1758.4 6036 1760C6028.67 1762.93 6021.33 1766.27 5999.33 1776.8C5992.8 1779.87 5984.4 1783.6 5980.67 1785.07C5973.73 1787.87 5962.13 1793.07 5946 1800.67C5936.53 1805.07 5928.8 1808.53 5919.33 1812.8C5916.4 1814 5906.67 1818.53 5897.6 1822.93C5888.53 1827.2 5880.4 1830.67 5879.47 1830.67C5878.67 1830.67 5877.33 1831.2 5876.67 1831.87C5875.87 1832.53 5869.47 1835.47 5862.13 1838.53C5854.93 1841.6 5847.73 1844.93 5846.13 1846C5844.67 1847.07 5837.33 1850.4 5830 1853.47C5822.67 1856.4 5811.87 1861.33 5806.13 1864.27C5800.27 1867.07 5789.87 1871.87 5782.8 1874.93C5775.73 1877.87 5764.93 1882.67 5758.67 1885.6C5732.67 1897.87 5728 1900 5727.2 1900C5726.8 1900 5722.67 1901.73 5718.13 1903.87C5688.4 1918 5678.4 1922.67 5677.47 1922.67C5676.93 1922.67 5673.87 1923.87 5670.53 1925.47C5667.33 1927.07 5658.67 1931.07 5651.33 1934.67C5644 1938.13 5633.47 1942.93 5628 1945.33C5622.53 1947.73 5611.73 1952.8 5604 1956.4C5596.27 1960 5587.73 1963.73 5584.93 1964.8C5582.13 1965.73 5578.53 1967.47 5576.93 1968.67C5575.33 1969.73 5573.33 1970.67 5572.4 1970.67C5571.47 1970.67 5563.33 1974.27 5554.4 1978.53C5534.93 1987.87 5522.93 1993.33 5521.87 1993.33C5521.33 1993.33 5514.4 1996.53 5506.13 2000.53C5489.2 2008.67 5476.27 2014.67 5475.33 2014.67C5474.67 2014.67 5460.53 2021.07 5444.67 2028.67C5439.6 2031.07 5432.93 2034.13 5430 2035.33C5427.07 2036.67 5417.73 2040.93 5409.33 2044.93C5400.93 2048.93 5392.8 2052.67 5391.33 2053.33C5389.87 2054 5383.6 2056.67 5377.33 2059.33C5371.07 2062 5359.2 2067.47 5350.93 2071.47C5342.53 2075.47 5335.6 2078.67 5335.2 2078.67C5334.4 2078.67 5308.93 2090.13 5295.07 2096.8C5288.4 2100 5282.53 2102.67 5282 2102.67C5281.6 2102.67 5276.27 2105.07 5270.27 2107.87C5257.33 2114 5241.87 2121.2 5232.67 2125.2C5229.07 2126.93 5218.67 2131.73 5209.6 2136.13C5200.53 2140.4 5192.8 2144 5192.4 2144C5191.73 2144 5182.13 2148.4 5162 2158C5155.47 2161.2 5147.07 2165.07 5143.33 2166.67C5139.73 2168.27 5136.53 2169.87 5136.27 2170C5136 2170.13 5141.6 2181.73 5148.4 2195.47C5155.33 2209.33 5162.4 2224 5164 2228C5165.6 2232 5167.73 2237.07 5168.67 2239.33C5171.87 2246.53 5182.4 2279.2 5183.33 2284.67C5183.87 2287.6 5184.53 2292.67 5184.8 2296C5185.2 2299.33 5186 2303.2 5186.67 2304.67C5190.8 2314.13 5192 2368.53 5188.53 2387.33C5186.53 2398.13 5184.27 2408.93 5183.6 2411.33C5183.33 2412 5182.67 2414.13 5182.13 2416C5181.2 2419.2 5179.73 2422.4 5174.8 2433.07C5167.73 2448.4 5150.13 2470.93 5122.67 2499.73C5103.2 2520.27 5093.87 2533.2 5092.53 2541.33C5090.93 2551.2 5096.67 2553.87 5122.67 2555.33C5184.27 2558.67 5227.2 2562.93 5243.33 2567.33C5266.8 2573.6 5272.27 2575.2 5280 2577.6C5292.93 2581.73 5311.73 2588.93 5319.33 2592.67C5323.07 2594.4 5331.07 2598 5337.33 2600.67C5353.2 2607.47 5407.73 2634.13 5444.27 2653.2C5462.13 2662.53 5533.73 2698.93 5577.33 2720.93C5595.33 2730.13 5610.93 2738 5612 2738.67C5613.07 2739.33 5619.47 2742.53 5626 2745.73C5632.67 2749.07 5641.07 2753.2 5644.67 2755.07C5657.33 2761.47 5682.67 2773.33 5683.87 2773.33C5684.53 2773.33 5685.33 2773.87 5685.6 2774.4C5686.4 2776.27 5702 2782.53 5711.47 2784.8C5724.4 2787.87 5746.4 2787.47 5764 2784C5771.73 2782.4 5780.13 2780.8 5782.67 2780.4C5785.2 2780 5788 2779.2 5788.67 2778.53C5789.47 2778 5792.8 2777.07 5796 2776.67C5799.33 2776.13 5803.2 2775.2 5804.67 2774.67C5807.47 2773.33 5820.93 2769.6 5826.67 2768.4C5828.53 2768.13 5836 2766.53 5843.33 2765.07C5874.13 2758.53 5909.33 2757.2 6040.67 2757.2C6137.47 2757.07 6164.93 2757.87 6186 2761.07C6201.33 2763.33 6230 2771.73 6234 2774.93C6234.67 2775.47 6236 2776 6237.07 2776C6238 2776 6241.33 2777.2 6244.4 2778.53C6247.47 2779.87 6256 2783.6 6263.33 2786.53C6270.67 2789.6 6277.6 2792.93 6278.67 2794C6279.87 2795.07 6281.2 2796 6281.6 2796C6282 2796 6289.6 2800.13 6298.53 2805.33C6322.4 2819.07 6352.8 2842.4 6373.2 2862.67C6384.53 2873.73 6404.67 2896.4 6410.67 2904.53C6413.2 2908 6417.2 2913.07 6419.47 2915.73C6423.07 2920 6430.67 2931.47 6442 2949.33C6447.73 2958.53 6449.07 2960.93 6459.6 2981.33C6471.33 3003.87 6476.8 3017.6 6478 3027.6C6479.2 3036.8 6474.8 3044.8 6465.87 3049.6C6460 3052.8 6456.8 3054 6441.33 3058.93C6426 3063.73 6401.2 3076.8 6392 3084.93C6387.6 3088.8 6383.2 3092.4 6382.13 3092.93C6380.67 3093.73 6380.13 3105.2 6379.6 3152.67C6378.8 3210.8 6378.53 3215.73 6376 3228.67C6375.33 3232.27 6374.53 3237.47 6374.13 3240C6373.33 3247.87 6366.67 3270.8 6362 3282C6358.27 3291.2 6349.47 3308.13 6338.67 3327.33C6333.87 3336 6307.73 3375.07 6304.4 3378.67C6302.67 3380.53 6301.33 3382.4 6301.33 3382.8C6301.33 3383.2 6299.73 3385.73 6297.73 3388.27C6295.6 3390.8 6292.8 3394.53 6291.33 3396.53C6288.27 3400.8 6272.4 3420.93 6262.27 3433.2C6254.53 3442.8 6216.8 3487.2 6213.47 3490.67C6212.27 3491.87 6206.27 3498.53 6200 3505.33C6168.53 3540.13 6105.87 3603.2 6087.07 3618.93C6081.07 3623.87 6075.73 3628.53 6075.33 3629.33C6074.4 3630.8 6040.93 3658.93 6029.2 3668.13C6015.87 3678.53 6003.47 3688.93 6000.27 3692.27L5997.33 3695.47L6021.6 3697.07C6035.07 3698 6049.6 3699.33 6054 3700C6058.4 3700.67 6074.4 3701.6 6089.33 3702C6104.4 3702.4 6121.2 3703.33 6126.67 3704C6132.13 3704.67 6144.13 3705.6 6153.33 3706C6162.53 3706.27 6180.27 3707.2 6192.67 3708C6205.2 3708.67 6227.6 3709.87 6242.67 3710.67C6257.73 3711.33 6274.27 3712.27 6279.33 3712.67C6284.53 3713.07 6293.73 3713.6 6300 3714C6321.2 3715.47 6354 3718.67 6361.33 3720C6371.6 3721.87 6386 3727.33 6393.33 3732C6401.2 3737.07 6416.8 3752.8 6424.67 3763.6C6428 3768.27 6430.67 3772.27 6430.67 3772.67C6430.67 3773.07 6432 3775.6 6433.73 3778.4C6435.47 3781.07 6438.27 3787.2 6440 3792C6441.73 3796.8 6443.47 3801.2 6444 3802C6449.2 3809.07 6449.07 3846 6444 3858C6442.53 3861.2 6432.13 3900.13 6431.07 3906C6430.67 3908.13 6429.87 3910.53 6429.33 3911.33C6428.67 3912 6427.87 3915.47 6427.33 3919.07C6426.8 3922.53 6425.87 3925.73 6425.2 3926.13C6424.53 3926.53 6424 3928.8 6424 3931.2C6424 3933.47 6423.47 3936 6422.8 3936.67C6422.13 3937.47 6420 3944 6418 3951.33C6416.13 3958.67 6414 3965.87 6413.33 3967.33C6412.27 3969.87 6410.27 3977.6 6410.53 3978.4C6410.67 3978.53 6409.87 3980.8 6408.8 3983.33C6407.6 3986 6406.8 3988.27 6406.67 3988.67C6406.53 3989.87 6405.73 3992.67 6404.13 3997.47C6403.33 4000 6402.67 4003.73 6402.67 4005.47C6402.67 4007.33 6402.13 4009.33 6401.6 4010C6400.93 4010.8 6399.33 4014.93 6398.13 4019.33C6396.8 4023.73 6394.4 4031.47 6392.53 4036.67C6390.8 4041.73 6389.2 4047.2 6388.93 4048.67C6388.67 4050.13 6388 4052.27 6387.6 4053.33C6387.2 4054.4 6384.67 4063.07 6382 4072.67C6379.47 4082.13 6376.67 4091.2 6376.13 4092.67C6375.47 4094.13 6373.73 4099.47 6372.27 4104.67C6364.8 4130.53 6361.2 4143.33 6357.47 4156.67C6355.07 4164.67 6352.8 4172.53 6352.13 4174C6351.47 4175.47 6349.73 4180.8 6348.27 4186C6342.67 4205.07 6338.53 4219.73 6335.33 4232C6333.47 4238.93 6331.33 4245.6 6330.8 4246.8C6330.13 4248 6327.73 4255.73 6325.47 4264.13C6323.07 4272.53 6320.67 4280.8 6319.87 4282.67C6319.2 4284.53 6318.27 4287.47 6318 4289.33C6317.6 4291.2 6316.13 4296.8 6314.53 4302C6312 4310.67 6309.6 4318.8 6308.93 4322C6308.8 4322.67 6308.27 4323.87 6307.73 4324.67C6307.33 4325.33 6305.33 4331.33 6303.33 4338C6297.07 4359.2 6295.87 4363.2 6294.67 4367.33C6290.4 4382.8 6282.8 4406.53 6281.2 4409.6C6280.53 4410.93 6280 4413.33 6280 4415.07C6280 4416.8 6279.6 4418.67 6279.07 4419.2C6278.4 4419.73 6278 4420.67 6277.87 4421.07C6277.6 4423.2 6275.73 4430.27 6274.67 4432.67C6274.13 4434.13 6272 4441.07 6270.13 4448C6268.13 4454.93 6265.6 4463.33 6264.53 4466.67C6263.33 4470 6262.13 4473.87 6261.73 4475.33C6261.33 4476.8 6260.53 4479.2 6260 4480.67C6259.33 4482.13 6255.47 4495.33 6251.33 4510C6244.8 4533.2 6241.6 4544.13 6238.93 4552C6238 4554.93 6237.6 4556.13 6236.13 4561.33C6235.47 4563.87 6231.47 4577.33 6227.33 4591.33C6223.2 4605.2 6219.2 4619.07 6218.53 4622C6217.87 4624.93 6216.4 4629.07 6215.47 4631.33C6214.4 4633.47 6212.53 4639.2 6211.33 4644C6210.13 4648.8 6208.53 4653.87 6207.87 4655.33C6207.33 4656.8 6205.87 4661.87 6204.67 4666.67C6203.47 4671.47 6202 4676.53 6201.33 4678C6200.8 4679.47 6199.73 4682.4 6199.2 4684.67C6198.67 4686.8 6198.13 4689.2 6197.87 4690C6197.73 4690.67 6195.47 4697.87 6192.8 4705.87C6190.13 4713.87 6188 4721.33 6188 4722.67C6188 4723.87 6187.6 4725.33 6187.07 4725.87C6186.53 4726.27 6186 4727.47 6185.73 4728.4C6185.2 4731.2 6182.93 4738.93 6180.13 4748.67C6178.53 4753.73 6177.07 4759.2 6176.8 4760.67C6175.6 4765.87 6171.73 4778 6170.67 4779.33C6170.13 4780 6169.33 4782.4 6168.93 4784.67C6168.13 4788.93 6167.47 4791.33 6166.4 4794.67C6166 4795.73 6164.93 4799.33 6164 4802.67C6163.07 4806 6161.87 4810.13 6161.2 4812C6160.53 4813.87 6159.47 4817.73 6158.8 4820.67C6157.2 4827.47 6150.93 4849.2 6149.47 4852.67C6147.07 4858.8 6144 4869.2 6144 4871.6C6144 4872.93 6143.47 4874.67 6142.8 4875.47C6142.27 4876.13 6138.8 4887.2 6135.33 4900C6131.87 4912.8 6128.4 4924.13 6127.47 4925.2C6126.67 4926.27 6126.13 4927.33 6126.4 4927.6C6127.07 4928.27 6125.2 4936 6124 4938.67C6123.33 4939.73 6121.33 4946.4 6119.33 4953.33C6112.8 4976.53 6110.4 4984.53 6103.2 5007.33C6095.6 5031.73 6092.8 5041.2 6092.67 5043.33C6092.67 5044 6091.87 5046.4 6091.07 5048.67C6089.73 5052.27 6087.73 5059.33 6087.47 5061.6C6087.33 5062 6086.93 5062.93 6086.4 5063.47C6085.73 5064 6085.33 5066.13 6085.33 5068.13C6085.33 5070.13 6084.8 5072.13 6084.13 5072.67C6083.47 5073.07 6082.13 5076.67 6081.2 5080.8C6080.27 5084.8 6079.07 5088.4 6078.4 5088.8C6077.87 5089.2 6077.33 5090.8 6077.33 5092.53C6077.33 5094.13 6076.93 5096 6076.4 5096.53C6075.87 5097.07 6075.33 5098.27 6075.33 5099.07C6075.2 5101.33 6073.33 5108.13 6072 5111.33C6071.07 5113.73 6069.33 5119.87 6065.33 5134.67C6062.53 5145.07 6058.27 5158.13 6057.33 5159.33C6056.67 5160 6056.27 5161.07 6056.27 5161.73C6056.27 5165.2 6054.27 5173.47 6053.2 5174.13C6052.53 5174.53 6052 5176.53 6052 5178.8C6052 5180.93 6051.47 5182.67 6050.8 5182.67C6049.87 5182.67 6048.53 5187.73 6047.47 5194.93C6047.33 5195.33 6046.93 5196.27 6046.4 5196.8C6045.73 5197.33 6045.33 5198.8 6045.33 5200.13C6045.33 5202.13 6038.8 5224.13 6036.4 5230.67C6035.47 5233.2 6035.07 5234.13 6033.47 5240C6025.33 5269.33 6014.27 5306.4 6013.33 5308.27C6012 5310.67 6000.13 5350.67 5995.73 5367.33C5994.27 5373.2 5992.53 5378.53 5992 5379.33C5991.33 5380 5988.8 5388.4 5986.13 5398C5983.47 5407.47 5980.67 5416.4 5980 5417.6C5979.2 5418.93 5978.67 5421.33 5978.67 5423.07C5978.67 5424.8 5978.27 5426.67 5977.73 5427.2C5977.07 5427.73 5976.67 5428.67 5976.53 5429.07C5976 5433.6 5974.13 5440.13 5973.2 5440.8C5972.53 5441.2 5972 5443.2 5972 5445.33C5972 5447.47 5971.47 5449.47 5970.8 5449.87C5970.13 5450.27 5968.8 5453.87 5968 5457.6C5967.07 5461.47 5966 5465.2 5965.47 5466C5965.07 5466.67 5964.53 5468.53 5964.4 5470C5964 5472.53 5961.33 5481.33 5953.87 5505.6C5952.13 5511.2 5950.67 5516.8 5950.67 5518C5950.67 5519.07 5950.13 5521.07 5949.47 5522.4C5948.67 5523.6 5946.53 5530 5944.53 5536.67C5942.53 5543.2 5940.13 5551.47 5939.07 5554.8C5938 5558.13 5936.93 5561.73 5936.8 5562.8C5936.53 5563.87 5936.13 5565.6 5935.73 5566.67C5934.67 5569.6 5928.53 5592.13 5925.33 5605.33C5923.87 5611.6 5922 5617.87 5921.33 5619.33C5920.67 5620.8 5919.87 5623.73 5919.47 5626C5919.2 5628.13 5918.27 5632.4 5917.47 5635.33C5916.8 5638.27 5915.87 5642.8 5915.47 5645.33C5915.07 5647.87 5913.87 5654.53 5912.67 5660C5911.6 5665.47 5910.27 5677.2 5909.87 5686C5908.27 5715.2 5913.2 5730.67 5928.67 5745.2C5944.27 5759.73 5950.4 5762.53 5970.67 5764.53C6012.67 5768.67 6055.33 5768.67 12329.3 5768.67C18316.5 5768.67 18565.6 5768.53 18588 5766.27C18650.9 5759.87 18702.7 5748.8 18759.3 5730C18987.2 5654.13 19166.1 5475.2 19242 5247.33C19260.8 5190.67 19271.9 5138.93 19278.3 5076C19280.5 5053.73 19280.7 4990.8 19280.7 3686.67C19280.7 2565.07 19280.4 2317.33 19278.9 2302C19270.1 2209.33 19249.3 2129.47 19213.1 2049.33C19124.3 1853.2 18952.8 1701.2 18748 1636.93C18696.7 1620.8 18651.3 1611.6 18587.7 1604.4C18568.4 1602.13 18244.8 1602 12612.7 1601.33L6658 1600.67L6665.87 1596.93C6670.13 1594.93 6673.87 1593.33 6674.13 1593.33C6674.4 1593.33 6684.53 1588.53 6696.53 1582.67C6708.67 1576.8 6718.93 1572 6719.33 1572C6719.73 1572 6729.73 1567.33 6741.73 1561.47C6753.6 1555.73 6767.6 1549.07 6772.67 1546.67C6782.27 1542.27 6790.4 1536.8 6811.07 1521.47C6823.33 1512.27 6830.8 1503.6 6849.6 1476C6864.93 1453.47 6867.6 1447.2 6875.47 1415.07C6883.33 1382.4 6885.33 1372.4 6885.33 1366C6885.33 1354.4 6870.8 1294.93 6864.93 1282.27C6859.47 1270.67 6833.33 1233.6 6822.13 1221.6C6812 1210.8 6775.07 1183.73 6762.67 1178.13C6754.27 1174.27 6702.93 1162.67 6694.93 1162.8C6690.67 1162.8 6675.33 1165.73 6660.67 1169.33ZM18564 1881.07C18647.6 1891.73 18715.1 1915.47 18780 1957.2C18820.5 1983.2 18865.6 2023.73 18896.5 2062C18937.3 2112.8 18969.2 2174.8 18986.7 2237.73C18997.5 2276.67 19002 2306.67 19004.1 2352.67C19005.1 2373.47 19005.3 2811.47 19005.1 3708C19004.7 4962.53 19004.5 5033.73 19002.3 5051.73C18994.4 5116.13 18979.9 5165.33 18952.4 5220C18917.6 5289.73 18869.6 5347.07 18807.6 5393.47C18735.3 5447.47 18651.2 5479.87 18560.4 5488.67C18530.9 5491.6 7224.13 5491.6 7194.67 5488.67C7086.93 5478.27 6987.07 5433.87 6909.33 5361.6C6878.4 5332.93 6854.93 5305.47 6832.67 5272C6786.13 5201.87 6759.2 5124.67 6752 5040.67C6750.13 5017.87 6750.13 2353.33 6752.13 2329.73C6759.2 2244.13 6787.33 2164.53 6835.73 2093.33C6902.93 1994.4 7004.93 1923.07 7120.27 1894C7150.4 1886.4 7179.87 1882 7216 1879.6C7219.33 1879.33 9771.07 1879.2 12886.7 1879.33C17320.9 1879.47 18554.1 1879.87 18564 1881.07Z" fill="white"/>
<path d="M8570 2609.47C8375.07 2618.4 8221.07 2671.87 8099.33 2772.53C8084.4 2784.93 8044.13 2824 8032.8 2837.07C8030 2840.27 8027.6 2842.67 8027.33 2842.4C8027.07 2842.27 8006.53 2797.6 7981.47 2743.33L7936.13 2644.67L7756.67 2644.27L7577.33 2644V3708V4772H7826H8074.67V4001.33V3230.8L8085.6 3217.07C8117.33 3177.47 8166.8 3135.73 8221.07 3103.07C8282.53 3066 8357.87 3035.87 8420 3023.47C8453.2 3016.8 8468.4 3015.47 8510.67 3015.47C8654.8 3015.73 8763.2 3053.2 8832.67 3126.93C8891.33 3189.33 8928.8 3286 8942.67 3411.33C8948.8 3466.8 8948.4 3429.33 8948.93 4122.27L8949.33 4772H9198H9446.67V4100.93C9446.67 3428.53 9446.53 3408.8 9442 3354C9425.6 3158.13 9365.33 2998.67 9260 2872C9243.87 2852.67 9198.67 2806.93 9179.33 2790.4C9069.6 2696.8 8935.73 2639.47 8776.93 2618.13C8711.87 2609.33 8639.07 2606.27 8570 2609.47Z" fill="white"/>
<path d="M10850 2609.33C10605.7 2622.27 10403.1 2702.93 10220.1 2859.87C9978.8 3067.07 9853.87 3344 9845.47 3690.67C9838.93 3966.8 9894 4196 10010.7 4378C10059.7 4454.53 10123.7 4526.13 10196.7 4586C10342.9 4706 10526.7 4778.13 10744 4800.53C10796.9 4806 10838.7 4808 10904.7 4808C11089.9 4808 11247.7 4787.6 11386.7 4745.73C11494.5 4713.2 11596.7 4662.13 11671.2 4603.33L11684.1 4593.07L11644.9 4515.6C11623.3 4472.93 11580 4386.93 11548.7 4324.67C11517.2 4262.27 11491.5 4211.2 11491.3 4210.93C11491.2 4210.8 11485.7 4216.13 11479.2 4222.8C11420.5 4282.67 11343.9 4329.87 11256.9 4359.47C11196.1 4380.13 11136.9 4391.73 11056 4398.93C11025.5 4401.73 10918.9 4401.2 10888.7 4398.27C10749.7 4384.53 10644.8 4345.2 10554.1 4272.8C10535.1 4257.73 10496.1 4218.4 10480.5 4198.67C10411.5 4111.33 10375.5 4010.53 10364.7 3874.4L10363.9 3864L11125.6 3863.73L11887.3 3863.33L11890.3 3850C11907.1 3775.73 11920 3700.67 11926.3 3642C11930.4 3603.07 11929.1 3527.87 11923.2 3468.67C11899.9 3232.27 11804.1 3032.93 11638 2874.53C11478.9 2723.07 11277.7 2636.27 11034 2614.13C10980 2609.2 10894.7 2606.93 10850 2609.33ZM10984 3018C11094.7 3028.67 11179.5 3059.47 11250.5 3114.67C11276 3134.4 11305.7 3165.73 11326.9 3194.67C11375.7 3261.87 11409.9 3354.27 11424.7 3459.33C11426.4 3472.53 11428.3 3485.6 11428.7 3488.27L11429.3 3493.33H10906C10407.3 3493.33 10382.7 3493.2 10382.7 3490.93C10382.7 3487.07 10396.7 3432.8 10403.3 3410.8C10441.9 3283.73 10503.9 3183.6 10584.3 3119.07C10660.8 3057.6 10753.5 3023.87 10866.7 3016.13C10891.6 3014.4 10957.5 3015.47 10984 3018Z" fill="white"/>
<path d="M17555.3 2608.93C17381.6 2615.73 17242.9 2651.6 17122.5 2720.8C17010.4 2785.2 16932.5 2868.93 16889.5 2971.6C16839.7 3089.87 16834.8 3244.27 16876.8 3366.93C16917.9 3487.2 17001.9 3592.13 17129.3 3682.67C17207.7 3738.27 17289.5 3782 17410.7 3832.67C17551.1 3891.47 17658 3946.93 17716.5 3990.93C17760.1 4023.87 17788.1 4057.6 17806.7 4100C17831.2 4156 17834.8 4232.53 17815.1 4284.67C17806.3 4308.13 17795.3 4324.93 17776.8 4343.47C17740.3 4380 17689.1 4400.4 17610 4410.13C17586.5 4412.93 17515.7 4414.13 17485.3 4412.13C17368.7 4404.4 17268.4 4376.13 17166 4322.13C17125.3 4300.67 17092.1 4278.8 17038.5 4238.4L17033.7 4234.67L17015.6 4275.07C16950.3 4420.67 16857.3 4629.6 16857.3 4630.53C16857.3 4632 16907.3 4658 16954.7 4681.2C17068.1 4736.67 17156.5 4769.33 17237.2 4785.33C17319.1 4801.6 17421.3 4808.93 17544 4807.6C17608.3 4806.93 17625.7 4806 17674.7 4801.2C17890.5 4780 18064.8 4706.93 18184.7 4587.33C18276 4496.13 18327.1 4386.13 18342.1 4248C18344.9 4221.73 18346 4157.07 18344.1 4128.67C18337.1 4023.73 18311.1 3936.53 18262.5 3855.33C18205.5 3759.73 18117.7 3680.8 17990.3 3610.13C17935.3 3579.73 17887.5 3557.87 17790.7 3519.33C17644.1 3460.93 17543.5 3414 17480.1 3374.4C17420.4 3337.2 17383.7 3293.73 17370.4 3244.27C17366.9 3231.2 17365.6 3195.33 17368 3176.27C17373.9 3127.87 17390.1 3093.33 17420.4 3064.27C17466.7 3020.13 17541.1 3000.4 17650.7 3003.2C17826.5 3007.73 17959.5 3049.2 18063.3 3132C18072.7 3139.47 18080.5 3145.33 18080.8 3144.93C18081.2 3144.67 18089.2 3123.07 18098.8 3097.2C18108.4 3071.2 18140.1 2985.2 18169.3 2906C18198.5 2826.8 18222.7 2761.07 18222.9 2760C18223.3 2757.87 18216.9 2754.4 18183.2 2738.27C18049.2 2674.67 17903.2 2633.2 17754.5 2616.8C17692.8 2609.87 17611.3 2606.67 17555.3 2608.93Z" fill="white"/>
<path d="M12127.6 2645.6C12128.4 2646.53 12153.7 2681.2 12184 2722.67C12214.4 2764.13 12273.5 2844.8 12315.3 2902C12357.2 2959.2 12422.9 3048.93 12461.3 3101.33C12499.7 3153.73 12553.1 3226.67 12580 3263.33C12803.1 3567.87 12876.7 3668.4 12877.9 3670.4C12878.5 3671.47 12860.3 3696.93 12827.1 3741.6C12775.7 3810.67 12735.6 3864.67 12661.3 3964.67C12640.1 3993.2 12606.1 4038.8 12586 4066C12565.9 4093.07 12527.5 4144.67 12500.8 4180.67C12474.1 4216.53 12432.4 4272.67 12408.1 4305.33C12383.9 4338 12354.8 4376.93 12343.7 4392C12332.5 4407.07 12268.5 4493.07 12201.5 4583.33C12134.4 4673.47 12075.5 4752.93 12070.4 4759.6L12061.3 4772H12355.2H12649.1L12757.5 4624.4C12817.1 4543.07 12892.4 4440.67 12924.7 4396.67C12956.9 4352.67 13024.8 4260.4 13075.2 4191.6C13125.7 4122.8 13167.5 4066.8 13168.1 4066.93C13168.7 4067.2 13180.8 4083.2 13194.9 4102.67C13229.2 4149.47 13490.1 4505.6 13656 4732L13684.8 4771.33L13985.7 4771.73L14286.5 4772L14202.3 4659.07C14131.5 4564 13872.5 4216.8 13649.2 3917.33C13618.3 3875.87 13570.1 3811.33 13542.3 3774C13514.4 3736.53 13484.8 3696.93 13476.5 3685.87L13461.6 3665.6L13489.9 3627.2C13528.7 3574.13 13577.9 3507.2 13669.3 3382.67C13712.1 3324.4 13778.4 3234 13816.7 3182C13854.9 3129.87 13917.7 3044.4 13956.1 2992C13994.7 2939.6 14067.7 2840.13 14118.4 2771.07C14169.2 2701.87 14210.7 2645.07 14210.7 2644.67C14210.7 2644.27 14083.6 2644 13928.4 2644L13646 2644.13L13594.5 2713.07C13566.1 2750.93 13487.3 2856.4 13419.3 2947.33C13351.3 3038.27 13268 3149.73 13234.1 3194.93C13200.4 3240.27 13172.4 3277.2 13172 3277.2C13171.6 3277.2 13064.5 3134.8 12934 2960.67L12696.7 2644.13H12411.5C12183.6 2644 12126.7 2644.4 12127.6 2645.6Z" fill="white"/>
<path d="M14578.7 3344.93C14578.7 4023.47 14578.9 4077.33 14582.7 4130C14589.2 4220.4 14605.1 4304.67 14629.3 4378.67C14644.8 4425.33 14672.7 4485.47 14696.7 4523.73C14782.1 4660.13 14914.4 4747.73 15092 4785.87C15168.1 4802.13 15243.7 4808.93 15331.7 4807.6C15389.9 4806.67 15423.9 4803.47 15480.7 4793.2C15594.3 4772.67 15731.2 4726.53 15825.3 4677.07C15866.3 4655.47 15907.9 4629.07 15936 4606.67L15951.3 4594.53L15951.7 4683.2L15952 4772H16201.3H16450.7V3708V2644H16201.3H15952V3378.53V4113.07L15942.3 4132.27C15924.3 4168.13 15904.5 4194.4 15870.8 4228.13C15840.4 4258.4 15810.3 4282.13 15770.4 4307.2C15681.5 4362.8 15591.2 4392.67 15488.7 4400.13C15463.6 4402 15398 4400.8 15378 4398.13C15313.7 4389.6 15265.3 4373.2 15223.3 4345.73C15156.3 4301.87 15112.7 4233.33 15091.5 4138.67C15087.2 4119.2 15083.3 4096.67 15080.4 4072C15078.3 4053.87 15078 4009.73 15077.3 3348.67L15076.7 2644.67L14827.7 2644.27L14578.7 2644V3344.93Z" fill="white"/>
<path d="M4716.67 2790C4720.4 2792.67 4725.73 2796.53 4728.67 2798.8C4731.6 2800.93 4736.13 2804.13 4738.8 2805.87C4749.73 2813.2 4798.27 2861.6 4805.2 2872C4806.27 2873.87 4809.2 2877.47 4811.6 2880C4813.87 2882.53 4817.47 2886.93 4819.6 2889.6C4821.6 2892.27 4826.67 2898.8 4830.8 2904.27C4844.13 2921.6 4861.6 2944.53 4875.33 2962.53L4888.67 2980.27L5026 2979.6C5101.6 2979.2 5166.4 2978.53 5170 2978C5183.47 2976.53 5185.33 2976 5185.33 2973.6C5185.2 2970.8 5183.33 2967.6 5176.93 2959.2C5174.13 2955.6 5169.07 2948.93 5165.6 2944.53C5138.67 2909.47 5073.87 2835.87 5046.53 2809.33C5037.33 2800.53 5029.6 2795.33 5018.67 2790.93C5008.13 2786.53 4982.93 2785.87 4841.33 2785.6L4710 2785.2L4716.67 2790Z" fill="white"/>
<path d="M5982.67 2816C5982.67 2816.4 5984.67 2817.87 5987.07 2819.33C6008.67 2832 6045.87 2868.93 6085.73 2917.33C6092.13 2925.07 6099.6 2934 6102.4 2937.2C6105.07 2940.53 6110 2946.8 6113.33 2951.2C6116.67 2955.73 6120.67 2960.8 6122 2962.53C6123.47 2964.27 6126.8 2968.27 6129.33 2971.33C6131.87 2974.4 6137.47 2981.6 6141.87 2987.2L6149.73 2997.33H6269.47C6338.4 2997.33 6389.33 2996.8 6389.33 2996.13C6389.33 2995.07 6382.93 2986.67 6365.07 2964C6361.87 2960 6356.67 2953.07 6353.33 2948.67C6330.93 2918.53 6298.67 2884.13 6275.33 2865.2C6264.8 2856.8 6248.13 2846.4 6239.73 2843.07C6236.53 2841.87 6232.8 2840 6231.2 2839.07C6227.73 2836.8 6211.33 2831.2 6200.8 2828.8C6182.27 2824.27 6163.87 2822.13 6129.33 2820.13C6117.2 2819.47 6096 2818.27 6082 2817.47C6054.8 2815.87 5982.67 2814.8 5982.67 2816Z" fill="white"/>
<path d="M5904.27 3348.93C5901.47 3349.47 5901.2 3350.13 5901.87 3354.4C5903.07 3362.67 5905.2 3399.2 5905.47 3417.73C5905.87 3435.73 5907.6 3452.13 5909.07 3451.87C5910.4 3451.73 5939.07 3420.53 5959.33 3397.33C5975.47 3378.93 5996 3352.8 5996 3350.67C5996 3350.13 5993.2 3349.33 5989.87 3348.8C5982.93 3347.87 5909.2 3348 5904.27 3348.93Z" fill="white"/>
<path d="M4728 3782.67C4716.27 3784.67 4708.4 3786.53 4684.67 3792.67C4671.47 3796.13 4659.07 3799.2 4656.93 3799.6C4654.93 3800 4652.93 3800.8 4652.53 3801.47C4652.13 3802.13 4650.8 3802.67 4649.47 3802.67C4646.93 3802.67 4634.67 3806.13 4630 3808.13C4626.13 3809.73 4581.87 3823.33 4574.93 3824.93C4573.33 3825.33 4571.6 3826.13 4571.2 3826.8C4570.8 3827.47 4568.8 3828 4566.8 3828C4564.8 3828 4562.67 3828.53 4562 3829.07C4561.2 3829.73 4555.6 3831.87 4549.33 3833.87C4543.07 3835.87 4536.8 3838 4535.33 3838.53C4533.87 3839.2 4530 3840.4 4526.67 3841.33C4523.33 3842.27 4511.07 3846.27 4499.33 3850.27C4487.6 3854.27 4474.13 3858.93 4469.33 3860.4C4464.53 3862 4449.33 3867.07 4435.33 3871.6C4421.47 3876.27 4398.67 3883.6 4384.67 3888C4370.8 3892.4 4358.27 3896.53 4357.07 3897.33C4355.73 3898 4353.6 3898.67 4352.27 3898.67C4350.93 3898.67 4349.33 3899.2 4348.53 3899.87C4347.87 3900.53 4344.4 3902 4340.67 3903.07C4304.53 3914.27 4285.6 3920.4 4283.87 3921.33C4282.67 3922 4272.93 3925.2 4262.4 3928.53C4251.87 3931.73 4233.33 3937.87 4221.33 3942C4209.2 3946.13 4198.13 3949.87 4196.67 3950.27C4195.2 3950.53 4192.8 3951.33 4191.33 3952C4189.87 3952.67 4185.07 3954.13 4180.67 3955.33C4176.27 3956.53 4171.47 3958.13 4170 3958.67C4168.53 3959.2 4160.8 3961.87 4152.67 3964.53C4144.67 3967.2 4136.8 3970 4135.33 3970.53C4130.67 3972.67 4118.93 3976 4116.4 3976C4114.93 3976 4113.33 3976.53 4112.67 3977.2C4111.87 3977.87 4104.13 3980.53 4095.33 3983.2C4086.53 3985.87 4078.13 3988.67 4076.67 3989.33C4072.8 3991.07 4060.8 3994.93 4036 4002.67C4023.87 4006.4 4010.67 4010.8 4006.67 4012.27C4002.67 4013.73 3990 4017.73 3978.67 4021.33C3950.4 4030.13 3937.33 4034.4 3932.67 4036.53C3930.53 4037.47 3920 4040.93 3909.33 4044.13C3898.67 4047.2 3889.73 4050.27 3889.33 4050.8C3888.93 4051.47 3886 4052.27 3882.93 4052.8C3879.87 4053.33 3876.93 4054.27 3876.53 4054.8C3876.13 4055.47 3874.67 4056 3873.2 4056C3871.87 4056 3869.47 4056.53 3868 4057.33C3866.53 4058 3864.13 4059.2 3862.67 4060C3861.2 4060.67 3858.8 4061.33 3857.47 4061.33C3856 4061.33 3854.4 4061.87 3854 4062.67C3853.6 4063.33 3851.6 4064 3849.73 4064C3847.87 4064 3844.53 4064.8 3842.27 4065.87C3839.87 4066.8 3832.67 4069.33 3826 4071.33C3819.47 4073.33 3812.8 4075.6 3811.33 4076.13C3808.67 4077.33 3786.13 4084.53 3715.33 4107.33C3693.33 4114.4 3665.73 4123.47 3654 4127.33C3642.27 4131.2 3625.47 4136.67 3616.67 4139.33C3607.87 4142 3598.67 4145.07 3596.27 4146.13C3593.87 4147.2 3590.8 4148 3589.6 4148C3588.27 4148 3586.67 4148.53 3585.87 4149.2C3585.2 4149.87 3581.73 4151.2 3578 4152.4C3546 4162.13 3538.93 4164.4 3536.67 4165.33C3535.2 4166 3530.13 4167.87 3525.33 4169.33C3520.53 4170.93 3515.47 4172.8 3514 4173.33C3512.53 4174 3507.73 4175.47 3503.33 4176.67C3498.93 4177.87 3494.13 4179.47 3492.67 4180C3491.2 4180.67 3486.4 4182.13 3482 4183.47C3477.6 4184.67 3472.8 4186.13 3471.33 4186.67C3465.47 4189.07 3427.2 4201.47 3404.13 4208.67C3390.53 4212.8 3378.53 4216.8 3377.47 4217.47C3376.27 4218.13 3361.87 4222.8 3345.33 4228C3328.8 4233.07 3309.33 4239.33 3302 4241.87C3294.67 4244.4 3284.13 4247.73 3278.67 4249.33C3273.2 4250.8 3267.6 4252.67 3266.4 4253.47C3265.07 4254.13 3262.93 4254.67 3261.73 4254.67C3260.4 4254.67 3257.6 4255.6 3255.6 4256.67C3252 4258.53 3222.13 4268.27 3214.27 4270.13C3212.27 4270.53 3210.27 4271.47 3209.87 4272.13C3209.47 4272.8 3207.87 4273.33 3206.27 4273.33C3203.33 4273.33 3193.73 4276.27 3186 4279.33C3182.4 4280.93 3149.87 4291.33 3132 4296.8C3119.47 4300.67 3100.8 4306.93 3096.67 4308.67C3094.53 4309.47 3087.6 4311.87 3081.33 4313.73C3057.6 4320.93 3029.87 4329.73 3028 4330.8C3026.93 4331.47 3012.53 4336.13 2996 4341.2C2979.47 4346.27 2958.53 4352.93 2949.33 4356C2883.47 4377.6 2850.93 4388 2849.2 4388C2848.4 4388 2844.13 4389.47 2839.6 4391.2C2835.07 4392.93 2827.2 4395.73 2822 4397.2C2816.93 4398.8 2811.47 4400.53 2810 4401.2C2806.13 4402.8 2798.67 4404.93 2793.73 4406C2791.33 4406.53 2789.07 4407.47 2788.67 4408.13C2788.13 4408.8 2786.13 4409.33 2784 4409.33C2781.87 4409.33 2779.87 4409.87 2779.47 4410.53C2779.07 4411.2 2777.33 4412 2775.73 4412.4C2768.67 4414 2752.4 4419.07 2746.67 4421.33C2743.33 4422.67 2737.07 4424.8 2732.67 4426C2728.27 4427.2 2719.6 4430 2713.33 4432C2707.07 4434 2696.67 4437.33 2690 4439.47C2683.47 4441.47 2677.07 4443.6 2676 4444.13C2674.13 4445.07 2658.13 4450.13 2627.33 4459.47C2620.8 4461.47 2615.07 4463.47 2614.67 4464C2614.27 4464.4 2606.27 4467.07 2596.67 4469.87C2573.47 4476.8 2552.13 4483.47 2548 4485.07C2544.4 4486.53 2514.67 4496 2502.67 4499.47C2498.67 4500.67 2494.13 4502.13 2492.67 4502.67C2491.2 4503.33 2483.07 4506 2474.67 4508.67C2466.27 4511.2 2458.13 4513.87 2456.67 4514.53C2455.2 4515.2 2450.13 4516.67 2445.33 4518C2440.53 4519.2 2435.6 4520.8 2434.4 4521.47C2433.07 4522.13 2431.07 4522.67 2430 4522.67C2428.93 4522.67 2426.93 4523.2 2425.6 4523.87C2424.4 4524.67 2418 4526.8 2411.33 4528.8C2404.8 4530.67 2396.67 4533.33 2393.33 4534.67C2390 4536 2383.73 4538.13 2379.33 4539.33C2374.93 4540.67 2368 4542.8 2364 4544C2360 4545.33 2348.93 4548.93 2339.33 4552C2329.87 4555.07 2320.8 4558 2319.33 4558.67C2317.87 4559.33 2311.6 4561.33 2305.33 4563.33C2299.07 4565.2 2279.33 4571.6 2261.33 4577.33C2243.33 4583.07 2224.53 4589.07 2219.33 4590.67C2214.27 4592.13 2208.8 4593.87 2207.33 4594.53C2205.87 4595.07 2201.33 4596.67 2197.33 4597.87C2193.33 4599.07 2187.87 4600.93 2185.33 4602C2182.8 4602.93 2176.8 4604.93 2172 4606.4C2147.2 4614 2130.93 4619.2 2127.33 4620.8C2125.2 4621.73 2121.73 4622.93 2119.6 4623.33C2117.6 4623.87 2115.6 4624.8 2115.2 4625.47C2114.8 4626.13 2113.47 4626.67 2112.4 4626.67C2109.73 4626.67 2089.07 4632.93 2083.07 4635.47C2080.8 4636.53 2078 4637.33 2076.8 4637.33C2075.73 4637.33 2073.47 4637.87 2071.73 4638.53C2070 4639.2 2065.07 4641.07 2060.67 4642.67C2056.27 4644.27 2050.8 4646.53 2048.4 4647.47C2046.13 4648.53 2043.6 4649.33 2042.93 4649.33C2040.53 4649.33 2007.07 4666.53 2003.07 4669.73C2001.07 4671.47 1996 4674.93 1992 4677.6C1982.8 4683.6 1963.6 4701.33 1953.2 4713.47C1940.67 4727.87 1920.53 4761.87 1911.47 4783.6C1909.47 4788.27 1905.87 4796.4 1903.2 4801.6C1900.67 4806.93 1896 4817.33 1893.07 4824.67C1890 4832 1885.6 4842.53 1883.07 4848C1880.53 4853.47 1875.2 4866.13 1871.2 4876C1867.2 4885.87 1863.07 4895.87 1862 4898C1860.93 4900.27 1858.27 4906.8 1856 4912.67C1853.73 4918.53 1850.8 4925.47 1849.6 4928C1848.4 4930.53 1847.33 4932.93 1847.33 4933.33C1847.07 4934.93 1839.33 4954.8 1836 4962C1834 4966.4 1831.87 4971.47 1831.33 4973.33C1830.8 4975.2 1829.87 4977.2 1829.33 4978C1828.93 4978.67 1827.33 4982.27 1826.13 4986C1824.8 4989.6 1822.93 4994.4 1822 4996.67C1821.07 4998.8 1818.53 5005.2 1816.27 5010.67C1814 5016.13 1811.33 5022.93 1810.13 5025.6C1808.93 5028.4 1808 5030.93 1808 5031.33C1808 5031.73 1807.2 5033.73 1806.13 5035.87C1805.07 5037.87 1801.73 5045.87 1798.8 5053.47C1796 5061.07 1792.53 5069.73 1791.2 5072.67C1789.87 5075.6 1788.8 5078.27 1788.67 5078.67C1788.53 5079.07 1787.47 5081.73 1786.13 5084.67C1784.8 5087.6 1781.07 5096.93 1777.87 5105.33C1774.53 5113.73 1770.53 5123.6 1768.8 5127.33C1767.07 5130.93 1762.8 5141.47 1759.33 5150.67C1755.87 5159.87 1752.4 5167.87 1751.73 5168.53C1751.2 5169.33 1750.67 5170.67 1750.67 5171.6C1750.67 5172.53 1749.47 5175.87 1748.13 5179.07C1746.67 5182.13 1742.4 5192.4 1738.67 5202C1734.8 5211.47 1731.2 5220.8 1730.4 5222.67C1729.6 5224.53 1728.4 5227.47 1727.73 5229.33C1726.93 5231.2 1725.6 5234.4 1724.53 5236.67C1723.6 5238.8 1720.67 5245.73 1718.27 5252C1715.73 5258.27 1713.07 5264.8 1712.27 5266.67C1711.47 5268.53 1708.4 5276.27 1705.33 5284C1702.4 5291.73 1698.8 5300.4 1697.33 5303.33C1696 5306.27 1691.47 5317.33 1687.33 5328C1683.2 5338.67 1678.8 5349.33 1677.6 5351.87C1676.4 5354.4 1675.33 5356.8 1675.2 5357.2C1675.2 5357.6 1674.27 5360.13 1673.2 5362.67C1672 5365.2 1668.27 5374.8 1664.67 5384C1661.2 5393.2 1657.87 5401.2 1657.2 5402C1656.67 5402.67 1652.53 5412.93 1648 5424.67C1643.33 5436.4 1638.27 5449.33 1636.67 5453.33C1634.93 5457.33 1631.47 5466 1628.67 5472.67C1626 5479.2 1622 5488.67 1619.87 5493.73C1617.73 5498.67 1616 5503.33 1616 5504.13C1616 5504.8 1614.53 5508.67 1612.8 5512.4C1605.87 5527.47 1602.67 5535.07 1602.67 5536.13C1602.67 5536.8 1601.2 5540.53 1599.33 5544.53C1597.47 5548.53 1596 5552.53 1596 5553.2C1596 5554 1595.33 5555.73 1594.67 5557.07C1593.87 5558.27 1591.2 5564.4 1588.8 5570.67C1586.27 5576.93 1579.6 5593.07 1574 5606.67C1568.4 5620.27 1559.33 5642.67 1553.87 5656.4C1548.4 5670.27 1542.8 5683.87 1541.33 5686.67C1539.33 5690.67 1539.07 5692 1540.4 5693.07C1541.33 5693.87 1550.4 5698.13 1560.67 5702.67C1637.73 5736.93 1711.33 5756.4 1801.33 5766.27C1820.67 5768.4 1896.8 5768.67 2976.67 5768.93L4131.47 5769.33L4135.73 5755.07C4138.13 5747.07 4142.8 5731.07 4146.13 5719.33C4149.47 5707.6 4152.53 5697.07 4153.07 5696C4154 5693.33 4158.53 5677.47 4159.33 5673.73C4159.73 5672 4161.73 5665.2 4163.87 5658.4C4166 5651.6 4169.07 5641.47 4170.67 5636C4172.27 5630.53 4174.13 5624.8 4174.67 5623.33C4175.73 5620.93 4177.73 5612.93 4177.87 5610.4C4178 5610 4178.4 5609.07 4179.07 5608.53C4179.6 5608 4180 5606.13 4180 5604.4C4180 5602.67 4180.53 5600.27 4181.2 5598.93C4182.8 5596 4191.87 5565.87 4200 5536.53C4203.47 5524 4206.93 5512.67 4207.73 5511.2C4208.4 5509.87 4209.07 5508.27 4209.2 5507.6C4209.47 5504.8 4211.07 5498.8 4212.8 5494.13C4213.87 5491.33 4215.6 5485.6 4216.67 5481.47C4219.33 5470.53 4226 5447.07 4232 5428C4234.8 5418.8 4240.27 5400.27 4244 5386.67C4247.73 5373.07 4251.33 5360.8 4252 5359.33C4252.53 5357.87 4254 5353.33 4255.2 5349.33C4264.67 5315.87 4266.8 5308.27 4267.47 5305.47C4267.87 5303.73 4268.8 5300.93 4269.6 5299.47C4270.4 5297.87 4270.93 5296.53 4270.8 5296.27C4270.27 5295.73 4272 5287.6 4273.33 5284.67C4274.4 5282 4277.6 5271.47 4282 5255.33C4283.33 5250.93 4284.8 5246.4 4285.33 5245.33C4285.87 5244.13 4286.8 5241.2 4287.47 5238.67C4288 5236.13 4288.53 5233.73 4288.67 5233.33C4288.8 5232.93 4289.33 5230.8 4289.87 5228.67C4290.4 5226.4 4291.33 5223.47 4292 5222C4292.67 5220.53 4294.8 5213.33 4296.67 5206C4298.67 5198.67 4300.8 5192 4301.6 5191.07C4302.27 5190.13 4302.53 5188.93 4302.13 5188.27C4301.73 5187.6 4302.27 5185.47 4303.33 5183.47C4304.4 5181.47 4305.73 5177.6 4306.27 5174.93C4307.47 5169.07 4307.33 5169.2 4308.27 5166.67C4310.67 5160.27 4321.33 5121.47 4321.33 5119.33C4321.33 5118.27 4322 5117.33 4322.67 5117.33C4323.47 5117.33 4324 5116.27 4324 5114.93C4324 5113.73 4324.93 5110.27 4325.87 5107.33C4326.93 5104.4 4328.13 5100.13 4328.53 5098C4329.73 5091.47 4342.67 5046.13 4344.13 5043.73C4345.2 5041.6 4353.33 5012.8 4360.8 4984.67C4362.53 4978 4364.67 4971.47 4365.33 4970C4366.13 4968.53 4370 4955.6 4374.13 4941.33C4378.13 4927.07 4382.53 4911.47 4384 4906.67C4386.93 4896.53 4395.2 4869.6 4396.4 4866.67C4396.8 4865.6 4397.6 4862.8 4398.13 4860.67C4398.67 4858.4 4399.33 4856 4399.47 4855.33C4399.73 4854.53 4400.27 4852.13 4400.8 4850C4401.2 4847.73 4402 4844.8 4402.67 4843.33C4403.2 4841.87 4405.87 4832.8 4408.67 4823.33C4411.33 4813.73 4414 4804.8 4414.67 4803.33C4415.2 4801.87 4416.4 4798.27 4417.2 4795.33C4417.87 4792.4 4419.07 4788.53 4419.6 4786.67C4420.13 4784.8 4420.67 4782.67 4420.8 4782C4427.47 4757.6 4434.67 4733.2 4437.47 4725.6C4438.8 4721.87 4440 4718.27 4440.13 4717.6C4440.27 4717.07 4440.53 4716 4440.67 4715.33C4440.93 4714.53 4442.67 4708 4444.67 4700.67C4446.67 4693.33 4450.4 4680.13 4452.93 4671.33C4455.47 4662.53 4457.73 4654.67 4457.87 4654C4458.13 4653.2 4458.53 4651.73 4458.93 4650.67C4459.73 4648.67 4467.2 4622.4 4472.13 4604.67C4473.6 4599.47 4475.33 4592.93 4476.13 4590C4476.93 4587.07 4478 4583.73 4478.4 4582.67C4478.8 4581.6 4479.2 4580 4479.47 4579.33C4479.73 4578.53 4482 4571.07 4484.53 4562.67C4487.07 4554.27 4490.13 4543.47 4491.33 4538.67C4492.4 4533.87 4494 4528.8 4494.67 4527.33C4495.73 4524.67 4497.73 4516.67 4497.33 4516.67C4497.2 4516.67 4498 4514.27 4499.33 4511.33C4500.53 4508.4 4504.13 4496.67 4507.33 4485.33C4515.6 4456 4522.13 4433.6 4524.4 4426.67C4526.13 4421.33 4528.4 4414 4532 4400.67C4532.67 4398.4 4534.8 4391.47 4536.67 4385.2C4538.53 4378.93 4540.4 4372.93 4540.53 4371.87C4541.33 4367.73 4543.07 4361.6 4545.33 4354.67C4546.67 4350.67 4548.8 4343.73 4550 4339.33C4551.2 4334.93 4552.8 4329.87 4553.33 4328C4554 4326.13 4557.6 4313.6 4561.33 4300C4565.07 4286.4 4569.2 4272 4570.67 4268C4572 4264 4577.47 4245.33 4582.67 4226.67C4587.87 4208 4592.53 4191.47 4593.2 4190C4594.53 4187.07 4596.13 4181.73 4602.67 4158.67C4604.93 4150.27 4607.47 4142.27 4608.13 4141.07C4608.8 4139.73 4609.33 4137.47 4609.33 4136.13C4609.33 4134.67 4610.53 4130.27 4611.87 4126.4C4614.8 4118.4 4619.87 4102 4623.33 4089.33C4624.67 4084.53 4626.53 4078 4627.6 4074.67C4628.67 4071.33 4629.87 4067.73 4630.13 4066.67C4630.4 4065.6 4631.2 4062.27 4632 4059.33C4632.8 4056.4 4633.87 4052.53 4634.27 4050.67C4634.67 4048.8 4635.47 4046.67 4636 4046C4636.8 4044.8 4639.6 4036.4 4651.6 3998C4656.27 3982.67 4659.07 3975.2 4665.6 3958.8C4667.73 3953.47 4669.73 3947.87 4670 3946.67C4671.2 3940.67 4684.67 3915.87 4691.07 3908C4699.6 3897.47 4702.4 3895.6 4732.67 3880L4756.67 3867.6L4771.47 3869.2C4779.6 3870 4797.6 3870.67 4811.47 3870.67C4825.2 3870.67 4842.93 3871.33 4850.67 3872C4858.4 3872.8 4887.47 3874 4915.33 3874.8C4969.33 3876.27 5001.87 3877.47 5052 3879.87C5069.2 3880.67 5100.4 3882 5121.33 3882.67C5191.87 3885.07 5235.2 3886.67 5257.33 3888C5269.47 3888.8 5288.4 3889.33 5299.33 3889.33C5310.4 3889.33 5323.2 3889.87 5328 3890.53C5332.8 3891.2 5357.73 3892.27 5383.33 3892.67C5409.07 3893.2 5433.07 3894.13 5436.8 3894.53C5440.4 3895.07 5455.2 3895.73 5469.47 3895.87C5483.73 3896.13 5497.73 3896.53 5500.67 3896.8C5503.6 3897.07 5520.4 3897.73 5538 3898.53C5555.6 3899.2 5607.2 3901.33 5652.67 3903.2C5698.13 3905.2 5749.73 3907.33 5767.33 3908C5784.93 3908.53 5802.4 3909.47 5806 3909.87C5809.73 3910.27 5824.93 3910.93 5840 3911.33C5855.07 3911.73 5870.67 3912.27 5874.67 3912.53C5878.67 3912.93 5897.87 3913.47 5917.33 3914C5936.8 3914.4 5956.27 3915.07 5960.67 3915.33C5972.13 3916.13 5995.73 3917.07 6045.33 3918.67C6069.2 3919.47 6102 3920.67 6118.4 3921.33C6186.93 3924.27 6232.93 3922.4 6246.27 3915.87C6262.67 3908 6267.6 3876.67 6254.4 3864.4C6250.93 3861.2 6242.8 3858.67 6235.73 3858.67C6233.07 3858.67 6229.47 3858.13 6227.73 3857.47C6226 3856.8 6218.53 3855.87 6211.33 3855.47C6204 3854.93 6185.07 3853.73 6169.33 3852.67C6153.6 3851.6 6134.4 3850.27 6126.67 3849.87C6118.93 3849.47 6107.6 3848.67 6101.33 3847.87C6095.07 3847.2 6084.13 3846.67 6076.8 3846.67C6069.6 3846.67 6060 3846 6055.47 3845.33C6051.07 3844.53 6032 3843.33 6013.33 3842.53C5939.47 3839.33 5917.87 3838.13 5864 3834.67C5852.67 3834 5830.8 3832.8 5815.33 3832C5800 3831.33 5783.2 3830.4 5778 3830C5768.8 3829.07 5738.27 3827.47 5694 3825.47C5626.93 3822.4 5602.53 3821.2 5582 3820C5569.6 3819.2 5551.87 3818.4 5542.67 3818C5533.47 3817.73 5515.2 3816.8 5502 3816C5488.8 3815.33 5464.27 3814.13 5447.33 3813.33C5414.53 3811.87 5405.2 3811.47 5366.67 3809.07C5353.07 3808.27 5331.47 3807.2 5318.67 3806.67C5247.47 3803.87 5217.07 3802.53 5197.33 3801.33C5185.2 3800.67 5168.4 3799.73 5160 3799.33C5151.6 3799.07 5138 3798.4 5130 3798C5121.87 3797.6 5100.67 3796.8 5082.67 3796C5064.67 3795.2 5043.47 3794.4 5035.33 3794C5027.33 3793.6 5006 3792.8 4988 3792C4911.47 3788.93 4889.33 3787.87 4877.33 3786.67C4870.4 3786 4856.27 3785.07 4846 3784.67C4835.73 3784.27 4816 3783.47 4802 3782.67C4772.53 3781.2 4736.67 3781.2 4728 3782.67Z" fill="white"/>
</svg>
