<svg width="687" height="243" viewBox="0 0 687 243" fill="none" xmlns="http://www.w3.org/2000/svg">
<path d="M228.825 40.2552C228.321 40.3746 227.684 40.5628 227.405 40.6683C226.553 40.9897 225.627 41.3615 225.504 41.4257C225.38 41.4946 224.826 41.7378 224.359 41.9306C224.194 41.9995 223.845 42.1555 223.58 42.2841C223.314 42.4126 222.952 42.5732 222.774 42.6421C222.595 42.7155 222.256 42.8624 222.018 42.9772C221.78 43.0873 221.505 43.2067 221.404 43.2388C221.303 43.2709 221.079 43.3673 220.9 43.4499C220.241 43.7621 219.778 43.9686 219.384 44.1339C219.16 44.2303 218.821 44.3771 218.633 44.4644C218.445 44.5516 217.969 44.7581 217.579 44.9234C217.19 45.0886 216.704 45.2998 216.503 45.3962C216.301 45.4925 215.884 45.6761 215.577 45.8047C215.275 45.9332 214.945 46.0755 214.845 46.126C214.748 46.1765 214.341 46.3555 213.938 46.5253C213.535 46.6906 213.186 46.8466 213.159 46.865C213.136 46.8833 212.957 46.966 212.77 47.044C212.582 47.122 212.366 47.2184 212.289 47.2551C212.128 47.3286 211.615 47.5489 210.777 47.9023C210.452 48.0446 210.007 48.242 209.792 48.343C209.577 48.444 209.091 48.6597 208.716 48.8158C208.336 48.9764 207.818 49.2013 207.571 49.3207C207.319 49.44 207.039 49.564 206.952 49.5961C206.865 49.6282 206.535 49.7751 206.219 49.9174C205.903 50.0643 205.367 50.303 205.028 50.4453C203.301 51.1889 202.885 51.3725 202.724 51.4597C202.628 51.5102 202.472 51.579 202.381 51.6157C202.289 51.6479 201.831 51.8452 201.364 52.0518C200.897 52.2584 200.237 52.5475 199.898 52.6944C199.559 52.8413 199.101 53.0433 198.886 53.1488C198.666 53.2498 198.304 53.4105 198.084 53.5023C197.86 53.5941 197.452 53.7731 197.173 53.9016C196.898 54.0255 196.463 54.2183 196.211 54.3239C195.959 54.4341 195.464 54.6498 195.111 54.8105L194.47 55.1042L128.555 55.1272C66.5427 55.1501 62.5988 55.1593 61.9392 55.2327C58.5908 55.6091 56.0623 56.2976 53.2773 57.5783C47.6981 60.1487 43.0121 64.8857 40.4562 70.5499C39.2102 73.3086 38.4957 76.058 38.1933 79.2482C38.143 79.776 38.1338 88.3044 38.1338 126.916C38.1338 171.812 38.1384 173.979 38.2162 174.745C38.5552 178.078 39.3843 181.029 40.7905 183.902C42.522 187.451 45.1284 190.65 48.2844 193.115C48.5364 193.312 48.7654 193.473 48.7883 193.473C48.8112 193.473 48.8295 193.441 48.8295 193.404C48.8295 193.344 49.0585 192.794 49.2647 192.348C49.3013 192.27 49.4158 191.995 49.5212 191.729C49.6265 191.462 49.7502 191.159 49.796 191.054C49.8464 190.944 49.8831 190.847 49.8831 190.829C49.8831 190.815 49.9334 190.696 49.993 190.567C50.0571 190.434 50.2358 190.007 50.3915 189.617C50.5472 189.227 50.8267 188.525 51.0145 188.057C51.303 187.331 51.4679 186.941 51.6695 186.473C51.6924 186.422 51.8115 186.124 51.9397 185.807C52.2833 184.921 53.1399 182.815 53.2498 182.571C53.3689 182.301 53.4651 182.062 53.5292 181.86C53.5704 181.745 53.6483 181.543 53.7124 181.41C53.772 181.277 53.8224 181.158 53.8224 181.148C53.8224 181.139 53.8728 181.02 53.9323 180.887C53.9919 180.754 54.0835 180.538 54.1339 180.414C54.1842 180.285 54.3217 179.946 54.4408 179.657C54.5599 179.367 54.798 178.766 54.9721 178.326C55.1462 177.885 55.3202 177.467 55.3569 177.403C55.421 177.288 55.563 176.921 55.8378 176.164C55.9111 175.971 56.0165 175.7 56.0806 175.567C56.1402 175.429 56.2501 175.172 56.3142 174.998C56.3829 174.819 56.4562 174.635 56.4791 174.585C56.5204 174.488 56.5799 174.323 56.5936 174.286C56.5982 174.272 56.6349 174.185 56.6761 174.084C56.7173 173.988 56.754 173.891 56.754 173.873C56.754 173.846 56.8639 173.593 57.1204 173.024C57.1433 172.973 57.267 172.671 57.3953 172.345C57.5189 172.023 57.6426 171.725 57.6655 171.679C57.7663 171.477 57.9129 171.128 57.977 170.94C58.0411 170.738 58.2427 170.247 58.3755 169.949C58.6274 169.393 58.6778 169.278 58.6778 169.255C58.6778 169.2 59.0901 168.195 59.2046 167.975C59.2687 167.846 59.3191 167.727 59.3191 167.709C59.3191 167.69 59.3603 167.58 59.4107 167.475C59.4611 167.364 59.5939 167.038 59.7039 166.754C59.8734 166.318 60.3543 165.184 60.5101 164.854C60.533 164.803 60.5971 164.647 60.6475 164.509C60.7025 164.372 60.7712 164.216 60.8032 164.165C60.8307 164.115 60.9177 163.926 60.9865 163.752C61.0552 163.573 61.1514 163.348 61.1972 163.247C61.243 163.146 61.3758 162.857 61.4857 162.604C61.6003 162.352 61.7331 162.054 61.7835 161.939C61.8339 161.824 61.9301 161.599 61.9988 161.434C62.7042 159.726 64.2204 157.923 66.0251 156.642C66.2725 156.463 67.0878 156.041 67.3947 155.93C67.523 155.88 67.9444 155.733 68.32 155.6C68.7002 155.471 69.03 155.347 69.0529 155.329C69.0804 155.311 69.4285 155.187 69.8316 155.054C70.6195 154.797 71.0134 154.659 71.16 154.59C71.2424 154.553 72.1631 154.255 72.7861 154.058C72.9235 154.016 73.0564 153.966 73.0793 153.943C73.1067 153.925 73.18 153.906 73.2442 153.906C73.3083 153.906 73.3816 153.888 73.4091 153.865C73.432 153.847 73.6381 153.768 73.8626 153.7C74.0916 153.626 74.2931 153.553 74.316 153.53C74.3435 153.511 74.3985 153.493 74.4443 153.493C74.4901 153.493 74.5634 153.475 74.6092 153.452C74.6504 153.429 74.8107 153.378 74.9619 153.332C75.1131 153.291 75.2871 153.231 75.3512 153.208C75.4154 153.181 75.6215 153.112 75.8093 153.052C75.9971 152.988 76.217 152.91 76.2903 152.878C76.3681 152.846 76.533 152.791 76.6567 152.759C76.785 152.731 76.927 152.685 76.9774 152.667C77.0278 152.644 77.3392 152.543 77.6645 152.437C77.9943 152.332 78.3241 152.217 78.3974 152.185C78.5897 152.102 80.5411 151.473 80.6098 151.473C80.6373 151.473 80.6648 151.45 80.6648 151.428C80.6648 151.4 80.6877 151.382 80.7197 151.382C80.7747 151.382 82.3962 150.858 82.5657 150.785C82.6161 150.767 82.7352 150.716 82.836 150.684L83.0146 150.615L82.8772 150.519C82.8039 150.468 82.4787 150.308 82.1535 150.165C81.8237 150.023 81.4251 149.849 81.2602 149.775C81.0953 149.702 80.7472 149.559 80.4815 149.454C80.0143 149.266 79.8311 149.183 78.6035 148.586C77.8339 148.214 76.8445 147.691 76.5651 147.508C76.4414 147.425 76.162 147.246 75.9467 147.113C74.9298 146.484 74.0412 145.69 73.432 144.864C73.1022 144.418 72.6487 143.588 72.47 143.096C72.4105 142.945 72.3464 142.784 72.3235 142.743C72.3006 142.697 72.2822 142.619 72.2822 142.573C72.2822 142.523 72.2639 142.472 72.241 142.458C72.2227 142.445 72.186 142.344 72.1677 142.238C72.1448 142.128 72.1219 142.009 72.1128 141.972C72.1036 141.935 72.0853 141.82 72.0715 141.719C72.0578 141.618 72.0303 141.495 72.0074 141.444C71.9204 141.233 71.8471 140.246 71.8562 139.356C71.8608 138.401 71.9524 137.464 72.1128 136.739C72.1219 136.702 72.1448 136.583 72.1677 136.473C72.186 136.367 72.2227 136.266 72.241 136.253C72.2639 136.239 72.2822 136.17 72.2822 136.101C72.2822 136.032 72.3006 135.959 72.3235 135.936C72.3464 135.908 72.3876 135.807 72.4197 135.706C72.5204 135.39 72.9602 134.559 73.2075 134.233C73.8488 133.375 74.6871 132.672 75.6032 132.218C75.7543 132.14 75.8872 132.066 75.8918 132.044C75.9009 132.025 75.9284 132.011 75.9513 132.011C75.9696 132.011 76.0979 131.961 76.2307 131.897C76.3636 131.837 76.9178 131.621 77.4583 131.415C77.9988 131.213 78.4844 131.029 78.5348 131.006C78.5852 130.988 78.8646 130.896 79.1532 130.8C79.6204 130.648 80.3853 130.377 80.6419 130.267C80.6922 130.249 80.848 130.194 80.9854 130.152C81.1228 130.111 81.2694 130.065 81.306 130.051C81.4068 130.01 82.4283 129.647 82.7718 129.528C82.9367 129.473 83.1337 129.4 83.207 129.372C83.2849 129.34 83.6147 129.225 83.9399 129.12C84.2697 129.009 84.5583 128.904 84.5858 128.886C84.6087 128.863 84.9201 128.752 85.2729 128.638C85.9462 128.417 86.4592 128.234 86.6883 128.133C86.7661 128.101 87.1784 127.958 87.6044 127.816C88.035 127.674 88.4243 127.541 88.4747 127.518C88.6762 127.43 89.3221 127.196 89.6886 127.077C89.9038 127.008 90.142 126.926 90.2153 126.893C90.2932 126.861 90.4673 126.797 90.6047 126.756C90.7421 126.714 90.8978 126.664 90.9482 126.641C91.1864 126.535 91.4338 126.444 91.704 126.356C91.8689 126.306 92.0384 126.246 92.0796 126.223C92.1254 126.2 92.1896 126.182 92.2262 126.182C92.2583 126.182 92.3499 126.15 92.4186 126.113C92.4919 126.076 92.5881 126.044 92.6339 126.044C92.6751 126.044 92.7484 126.026 92.7942 126.003C92.9362 125.925 93.2065 125.815 93.2477 125.815C93.266 125.815 93.4401 125.755 93.6279 125.677C93.8157 125.604 94.3104 125.425 94.7272 125.282C95.1441 125.14 95.5472 124.993 95.6204 124.961C95.6983 124.924 96.1884 124.754 96.7152 124.575C97.242 124.396 97.6955 124.236 97.723 124.213C97.7504 124.19 97.9795 124.107 98.2314 124.025C98.9093 123.804 99.7247 123.524 99.8804 123.451C99.9583 123.419 100.274 123.304 100.59 123.198C100.906 123.093 101.204 122.992 101.255 122.969C101.305 122.951 101.452 122.895 101.575 122.854C101.704 122.813 101.868 122.749 101.942 122.716C102.02 122.684 102.285 122.588 102.537 122.505C102.789 122.427 103.014 122.34 103.036 122.322C103.064 122.299 103.11 122.28 103.146 122.28C103.183 122.28 103.275 122.253 103.353 122.216C103.435 122.179 103.664 122.097 103.866 122.023C104.067 121.954 104.25 121.881 104.273 121.858C104.301 121.84 104.36 121.821 104.415 121.821C104.47 121.821 104.53 121.803 104.557 121.78C104.58 121.757 104.837 121.661 105.125 121.569C105.414 121.473 105.867 121.312 106.133 121.215C106.399 121.114 106.912 120.931 107.278 120.807C108.061 120.536 108.533 120.366 108.721 120.284C108.799 120.252 109.211 120.109 109.637 119.962C110.068 119.82 110.434 119.682 110.457 119.659C110.485 119.636 110.544 119.618 110.599 119.618C110.654 119.618 110.714 119.6 110.741 119.577C110.764 119.554 110.906 119.49 111.057 119.439C111.68 119.228 112.266 119.021 112.569 118.907C112.747 118.838 113.036 118.732 113.21 118.668C113.389 118.608 113.595 118.53 113.668 118.498C113.746 118.466 113.911 118.411 114.035 118.379C114.163 118.342 114.273 118.305 114.286 118.292C114.3 118.278 114.493 118.204 114.712 118.126C114.937 118.053 115.129 117.975 115.138 117.956C115.152 117.934 115.207 117.92 115.267 117.92C115.322 117.92 115.386 117.901 115.413 117.878C115.436 117.86 115.752 117.741 116.119 117.621C116.485 117.502 116.939 117.341 117.126 117.263C117.314 117.19 117.946 116.965 118.524 116.763C119.627 116.382 120.942 115.928 121.409 115.762C121.56 115.707 121.748 115.638 121.822 115.602C121.899 115.57 122.215 115.455 122.532 115.354C122.848 115.248 123.145 115.143 123.196 115.12C123.338 115.06 124.011 114.812 124.524 114.638C124.776 114.555 125.252 114.385 125.578 114.271C125.907 114.151 126.617 113.903 127.158 113.715C127.698 113.527 128.184 113.357 128.234 113.33C128.331 113.284 128.486 113.229 129.494 112.889C129.833 112.774 130.177 112.655 130.25 112.623C130.433 112.545 130.58 112.494 131.441 112.201C131.844 112.067 132.215 111.934 132.265 111.911C132.316 111.888 132.449 111.833 132.563 111.792C132.678 111.751 132.833 111.691 132.907 111.654C132.984 111.622 133.136 111.572 133.25 111.544C133.365 111.512 133.516 111.457 133.585 111.42C133.658 111.383 133.754 111.356 133.8 111.356C133.846 111.356 133.901 111.333 133.914 111.31C133.928 111.282 133.978 111.264 134.024 111.264C134.07 111.264 134.171 111.232 134.24 111.195C134.313 111.159 134.409 111.126 134.455 111.126C134.496 111.126 134.569 111.108 134.615 111.085C134.766 111.002 135.105 110.865 135.334 110.791C135.632 110.7 135.866 110.617 135.953 110.576C135.994 110.557 136.095 110.525 136.182 110.507C136.269 110.488 136.37 110.456 136.411 110.433C136.534 110.36 137.579 109.979 137.648 109.979C137.689 109.979 137.739 109.961 137.762 109.938C137.79 109.915 137.941 109.855 138.106 109.804C138.559 109.662 139.223 109.423 139.274 109.382C139.301 109.364 139.713 109.217 140.19 109.061C140.671 108.9 141.165 108.726 141.289 108.671C141.417 108.611 141.839 108.46 142.228 108.326C142.618 108.198 143.002 108.06 143.076 108.028C143.153 107.996 143.337 107.923 143.488 107.867C143.639 107.812 143.804 107.748 143.854 107.73C143.905 107.707 144.267 107.583 144.656 107.454C145.045 107.326 145.43 107.193 145.503 107.161C145.581 107.124 145.838 107.032 146.076 106.949C146.314 106.867 146.552 106.784 146.603 106.766C146.653 106.747 146.8 106.692 146.923 106.651C147.052 106.61 147.216 106.545 147.29 106.513C147.368 106.481 147.542 106.422 147.679 106.376C147.817 106.33 147.995 106.27 148.068 106.233C148.146 106.201 148.394 106.114 148.618 106.036C149.209 105.839 150.07 105.531 150.176 105.481C150.226 105.458 150.679 105.292 151.183 105.118C151.687 104.939 152.493 104.664 152.97 104.494C153.451 104.328 153.932 104.149 154.046 104.104C154.161 104.053 154.697 103.86 155.237 103.672C155.778 103.484 156.469 103.245 156.772 103.14C157.372 102.928 157.679 102.832 157.963 102.772C158.847 102.584 158.883 102.58 159.428 102.607C161.077 102.69 162.053 103.094 163.111 104.122C163.844 104.843 164.343 105.522 164.724 106.344C165.03 107.005 165.232 107.854 165.296 108.763C165.369 109.722 165.324 111.838 165.223 112.228C165.2 112.315 165.163 112.467 165.14 112.559C165.085 112.774 165.127 112.783 165.241 112.581C165.608 111.943 165.878 111.347 165.937 111.035C165.947 110.97 165.969 110.888 165.983 110.851C166.011 110.778 166.015 110.759 166.093 110.323C166.212 109.644 166.249 109.088 166.249 107.913C166.249 107.22 166.235 106.536 166.217 106.399C166.153 105.963 165.997 105.43 165.809 105.022C165.731 104.856 165.621 104.618 165.562 104.489C165.502 104.361 165.424 104.227 165.383 104.195C165.347 104.163 165.314 104.113 165.314 104.081C165.314 104.003 164.861 103.369 164.54 103.007C163.807 102.162 162.681 101.414 161.673 101.102C161.448 101.028 161.229 100.955 161.192 100.936C161.064 100.872 160.528 100.757 160.115 100.702C159.525 100.624 158.544 100.721 157.894 100.913C157.756 100.955 157.569 101.005 157.482 101.028C157.115 101.12 156.735 101.239 156.13 101.441C154.403 102.029 153.57 102.318 153.437 102.378C153.354 102.419 152.97 102.561 152.58 102.699C152.191 102.832 151.728 103.002 151.55 103.071C151.376 103.14 150.94 103.296 150.588 103.42C150.235 103.544 149.91 103.663 149.869 103.69C149.823 103.713 149.754 103.736 149.717 103.736C149.681 103.736 149.612 103.755 149.566 103.782C149.466 103.837 148.746 104.113 148.389 104.232C148.238 104.283 147.94 104.393 147.725 104.471C147.51 104.553 147.221 104.659 147.084 104.705C146.946 104.755 146.781 104.82 146.717 104.852C146.653 104.888 146.511 104.939 146.397 104.976C146.282 105.008 146.108 105.072 146.007 105.118C145.906 105.159 145.751 105.21 145.664 105.228C145.577 105.246 145.485 105.279 145.457 105.297C145.435 105.315 145.361 105.347 145.297 105.366C145.192 105.398 145.082 105.439 144.715 105.6C144.638 105.637 144.541 105.664 144.5 105.664C144.459 105.664 144.39 105.683 144.344 105.706C144.18 105.793 142.865 106.261 142.787 106.261C142.76 106.261 142.732 106.279 142.723 106.298C142.718 106.316 142.37 106.449 141.953 106.591C140.959 106.931 140.675 107.032 140.51 107.11C140.437 107.142 140.002 107.298 139.549 107.454C139.095 107.615 138.614 107.789 138.481 107.849C138.348 107.909 138.229 107.959 138.211 107.959C138.17 107.959 137.277 108.281 137.112 108.354C137.034 108.391 136.947 108.418 136.919 108.418C136.892 108.418 136.832 108.437 136.786 108.464C136.745 108.487 136.502 108.584 136.25 108.671C135.999 108.763 135.756 108.854 135.715 108.882C135.669 108.905 135.591 108.923 135.545 108.923C135.495 108.923 135.444 108.942 135.426 108.964C135.412 108.987 135.344 109.02 135.275 109.038C135.206 109.052 134.936 109.148 134.67 109.249C134.404 109.355 133.882 109.547 133.502 109.681C133.126 109.814 132.641 109.988 132.426 110.071C132.21 110.153 131.606 110.369 131.084 110.557C130.557 110.741 130.062 110.924 129.984 110.961C129.847 111.025 128.633 111.461 128.143 111.622C128.019 111.663 127.905 111.709 127.891 111.728C127.877 111.746 127.694 111.815 127.479 111.884C127.263 111.953 127.071 112.026 127.048 112.049C127.021 112.072 126.956 112.09 126.901 112.09C126.842 112.09 126.782 112.109 126.769 112.136C126.755 112.159 126.709 112.182 126.668 112.182C126.631 112.182 126.535 112.21 126.457 112.246C126.375 112.283 126.169 112.366 125.99 112.43C125.816 112.494 125.527 112.6 125.349 112.664C125.175 112.733 124.946 112.816 124.845 112.848C124.744 112.88 124.405 113.004 124.089 113.123C123.548 113.33 122.371 113.752 122.119 113.835C121.968 113.88 121.524 114.055 121.409 114.11C121.359 114.133 121.011 114.261 120.631 114.39C120.255 114.519 119.728 114.711 119.463 114.821C119.197 114.927 118.775 115.083 118.524 115.166C118.272 115.248 117.983 115.354 117.882 115.395C117.781 115.441 117.493 115.556 117.241 115.648C116.989 115.739 116.742 115.836 116.691 115.854C116.641 115.877 116.476 115.937 116.325 115.987C116.055 116.075 115.487 116.281 114.859 116.52C114.685 116.584 114.424 116.676 114.286 116.726C114.149 116.772 113.952 116.841 113.851 116.878C113.233 117.112 112.363 117.433 111.95 117.576C111.286 117.805 110.979 117.92 110.878 117.975C110.833 117.998 110.526 118.113 110.191 118.227C109.587 118.434 109.11 118.613 108.858 118.723C108.781 118.76 108.387 118.897 107.988 119.035C107.296 119.274 107.182 119.315 106.843 119.462C106.77 119.494 106.408 119.623 106.041 119.751C105.675 119.875 105.153 120.068 104.873 120.174C104.598 120.279 104.278 120.394 104.163 120.431C104.049 120.467 103.921 120.518 103.879 120.541C103.833 120.564 103.765 120.582 103.728 120.582C103.691 120.582 103.623 120.6 103.577 120.623C103.536 120.651 103.343 120.72 103.156 120.789C102.968 120.853 102.629 120.977 102.409 121.064C102.189 121.151 101.969 121.225 101.923 121.225C101.882 121.225 101.827 121.243 101.8 121.261C101.777 121.284 101.562 121.367 101.323 121.445C101.085 121.523 100.774 121.633 100.636 121.688C100.499 121.739 100.343 121.794 100.293 121.808C100.242 121.821 100.183 121.849 100.155 121.867C100.132 121.89 99.7705 122.019 99.3582 122.161C98.946 122.303 98.5475 122.446 98.465 122.482C98.2268 122.588 97.9428 122.693 97.2466 122.932C96.8801 123.056 96.5228 123.189 96.445 123.221C96.3121 123.281 95.5975 123.547 95.1853 123.685C95.0708 123.726 94.9379 123.772 94.8876 123.795C94.8372 123.818 94.6952 123.869 94.5669 123.91C94.4432 123.951 94.3012 124.006 94.26 124.029C94.2142 124.052 94.1592 124.071 94.1318 124.071C94.1043 124.071 93.9989 124.107 93.889 124.158C93.7836 124.204 93.5958 124.277 93.4676 124.323C93.3439 124.364 93.1973 124.415 93.1469 124.438C93.0965 124.461 92.8904 124.534 92.6889 124.603C92.4873 124.667 92.2812 124.741 92.2308 124.759C91.7682 124.956 91.3055 125.126 91.246 125.126C91.2047 125.126 91.1544 125.145 91.1269 125.168C91.104 125.19 90.7833 125.314 90.4077 125.443C90.0367 125.571 89.6886 125.7 89.629 125.728C89.574 125.76 89.116 125.925 88.6167 126.099C88.1128 126.274 87.6777 126.43 87.6548 126.453C87.6273 126.471 87.5632 126.503 87.5128 126.512C87.4624 126.526 87.1555 126.636 86.8257 126.756C86.5005 126.87 86.1065 127.008 85.9554 127.059C85.8042 127.109 85.6393 127.169 85.5889 127.192C85.369 127.293 85.1079 127.389 84.7186 127.518C84.4941 127.591 84.2651 127.674 84.2147 127.697C84.1643 127.72 84.0498 127.756 83.9628 127.779C83.8758 127.802 83.5963 127.908 83.3444 128.004C83.0925 128.105 82.7535 128.234 82.5886 128.289C82.4237 128.344 82.2496 128.408 82.1993 128.431C82.1489 128.454 82.0573 128.486 81.9931 128.5C81.7778 128.56 81.0083 128.853 80.9671 128.895C80.9396 128.918 80.8755 128.936 80.8251 128.936C80.7701 128.936 80.7151 128.95 80.7014 128.964C80.6739 128.991 79.5059 129.404 79.1303 129.519C79.0066 129.556 78.8921 129.606 78.8783 129.625C78.8646 129.643 78.7226 129.703 78.5577 129.753C78.1088 129.891 76.9041 130.308 76.7483 130.382C76.675 130.414 76.3544 130.529 76.0383 130.63C75.7223 130.735 75.4337 130.836 75.3971 130.859C75.3558 130.882 75.2551 130.914 75.168 130.933C75.081 130.951 74.9802 130.983 74.939 131.006C74.8153 131.075 74.284 131.263 73.6106 131.484C72.9281 131.708 72.864 131.731 72.6258 131.828C72.5525 131.855 72.3326 131.933 72.1448 131.993C71.957 132.057 71.7601 132.126 71.7097 132.149C71.6593 132.172 71.5448 132.209 71.4577 132.236C71.3707 132.264 70.8897 132.42 70.3904 132.585C69.3965 132.911 69.2132 132.939 69.1033 132.783C69.0208 132.668 69.0025 132.264 69.0758 132.218C69.0987 132.204 69.1216 132.14 69.1216 132.08C69.1216 132.021 69.1399 131.961 69.1628 131.947C69.1857 131.933 69.2178 131.869 69.2316 131.805C69.2682 131.653 69.9324 130.286 70.2393 129.726C70.3721 129.482 70.5462 129.166 70.6195 129.028C70.8027 128.697 71.2608 127.968 71.6272 127.421C72.4609 126.182 72.7861 125.879 73.8396 125.37C74.6871 124.956 75.1131 124.759 75.1497 124.759C75.2047 124.759 76.0246 124.429 76.5193 124.208C76.6201 124.167 76.9499 124.038 77.2522 123.933C77.5545 123.823 77.8248 123.722 77.8477 123.703C77.8752 123.685 77.9485 123.657 78.0217 123.639C78.0905 123.621 78.2645 123.556 78.4065 123.488C78.5531 123.423 78.8737 123.299 79.1303 123.212C79.3822 123.125 79.6524 123.029 79.7257 122.992C79.8036 122.96 79.9685 122.9 80.0922 122.854C80.2204 122.813 80.4082 122.739 80.5136 122.689C80.6235 122.643 80.8709 122.547 81.0633 122.482C81.2602 122.413 81.4389 122.34 81.4618 122.322C81.4893 122.299 81.5397 122.28 81.5763 122.28C81.6175 122.28 81.7 122.253 81.7641 122.221C81.8282 122.189 81.9702 122.133 82.0847 122.097C82.1993 122.065 82.3138 122.019 82.3367 122.005C82.3642 121.987 82.4649 121.945 82.5657 121.913C82.6665 121.881 82.7993 121.826 82.8634 121.794C82.9276 121.762 83.3307 121.61 83.7567 121.459C84.1872 121.307 84.6316 121.147 84.7507 121.096C84.8652 121.046 85.3187 120.876 85.7492 120.72C86.1798 120.564 86.6333 120.394 86.7478 120.343C86.8669 120.293 87.3158 120.128 87.7418 119.981C88.1724 119.829 88.5617 119.692 88.6121 119.669C88.9923 119.499 89.1572 119.435 89.4366 119.343C89.6153 119.288 89.8214 119.214 89.8947 119.182C90.1466 119.076 90.6734 118.884 90.71 118.884C90.7284 118.884 90.8383 118.838 90.962 118.778C91.0811 118.723 91.2689 118.645 91.3834 118.608C91.4979 118.576 91.6124 118.53 91.6353 118.516C91.6628 118.498 91.8048 118.448 91.956 118.402C92.1071 118.356 92.2537 118.305 92.2766 118.287C92.3041 118.269 92.4873 118.195 92.6889 118.126C92.8904 118.057 93.1378 117.961 93.2385 117.915C93.3393 117.869 93.6599 117.75 93.9485 117.654C94.2371 117.553 94.6081 117.415 94.773 117.355C95.4739 117.08 95.7487 116.979 96.3992 116.749C96.7793 116.616 97.1779 116.469 97.2924 116.414C97.4069 116.364 97.6313 116.277 97.7962 116.226C98.3138 116.056 99.0101 115.795 99.0513 115.758C99.0788 115.735 99.1384 115.717 99.1933 115.717C99.2437 115.717 99.3262 115.689 99.3766 115.657C99.4269 115.62 99.5918 115.551 99.743 115.496C100.476 115.244 100.719 115.157 100.852 115.092C100.934 115.056 101.085 114.996 101.186 114.959C101.287 114.922 101.438 114.863 101.52 114.826C101.598 114.789 101.855 114.698 102.079 114.619C102.624 114.436 103.467 114.124 103.637 114.046C103.714 114.009 103.907 113.936 104.072 113.88C104.237 113.825 104.434 113.757 104.507 113.72C104.585 113.688 104.791 113.614 104.965 113.559C105.144 113.5 105.391 113.408 105.515 113.353C105.643 113.293 106.138 113.109 106.614 112.944C107.095 112.779 107.525 112.623 107.576 112.6C107.915 112.448 108.18 112.347 109.5 111.875C109.6 111.838 109.788 111.76 109.912 111.705C110.04 111.645 110.246 111.562 110.37 111.526C110.691 111.425 111.121 111.269 111.295 111.191C111.373 111.154 111.456 111.126 111.483 111.126C111.506 111.126 111.643 111.076 111.785 111.012C111.927 110.947 112.17 110.856 112.331 110.805C112.486 110.755 112.651 110.69 112.692 110.667C112.738 110.64 112.816 110.622 112.862 110.622C112.912 110.622 112.967 110.599 112.981 110.576C112.995 110.548 113.041 110.53 113.082 110.53C113.118 110.53 113.215 110.502 113.292 110.465C113.457 110.397 114.108 110.149 114.699 109.933C114.914 109.86 115.335 109.699 115.638 109.584C115.94 109.469 116.618 109.222 117.14 109.033C117.667 108.845 118.171 108.652 118.262 108.606C118.354 108.561 118.638 108.455 118.89 108.372C119.142 108.29 119.412 108.198 119.485 108.166C119.692 108.079 119.939 107.982 119.98 107.978C119.998 107.973 120.021 107.964 120.035 107.959C120.049 107.955 120.072 107.945 120.095 107.941C120.113 107.936 120.15 107.923 120.173 107.909C120.2 107.89 120.489 107.78 120.814 107.665C121.144 107.546 121.446 107.431 121.487 107.404C121.533 107.381 121.593 107.363 121.62 107.363C121.647 107.363 121.735 107.335 121.812 107.298C122.101 107.174 122.559 107 122.852 106.904C123.017 106.853 123.187 106.789 123.228 106.766C123.274 106.738 123.333 106.72 123.361 106.72C123.388 106.72 123.475 106.692 123.553 106.656C123.635 106.619 123.906 106.513 124.158 106.422C124.41 106.33 124.634 106.233 124.662 106.21C124.684 106.187 124.739 106.169 124.785 106.169C124.831 106.169 124.904 106.151 124.95 106.128C124.991 106.1 125.175 106.031 125.349 105.967C126.017 105.733 126.576 105.522 126.645 105.481C126.691 105.453 126.993 105.343 127.318 105.233C128.051 104.98 128.509 104.81 128.697 104.723C128.779 104.687 129.05 104.581 129.302 104.494C129.554 104.407 130.007 104.237 130.305 104.122C130.603 104.007 131.042 103.842 131.281 103.755C131.968 103.511 132.05 103.479 132.632 103.254C132.934 103.135 133.296 103.002 133.433 102.956C133.827 102.823 134.226 102.676 134.327 102.635C134.514 102.548 135.16 102.304 135.426 102.212C135.577 102.167 135.742 102.107 135.792 102.084C135.843 102.061 136.131 101.955 136.434 101.85C136.736 101.74 136.993 101.634 136.997 101.616C137.006 101.597 137.034 101.579 137.057 101.579C137.116 101.579 138.637 101.037 138.871 100.932C138.976 100.886 139.388 100.73 139.787 100.592C140.185 100.45 140.547 100.317 140.588 100.294C140.634 100.266 140.694 100.248 140.726 100.248C140.753 100.248 140.863 100.207 140.964 100.156C141.069 100.11 141.431 99.9725 141.77 99.8531C142.109 99.7384 142.453 99.6144 142.526 99.5823C142.65 99.5272 143.039 99.3803 144.312 98.9076C145.096 98.6138 145.187 98.5817 145.334 98.522C145.412 98.4853 145.549 98.4256 145.636 98.3889C145.723 98.3522 145.824 98.32 145.865 98.32C145.906 98.32 145.975 98.3017 146.021 98.2787C146.145 98.2145 146.309 98.1502 146.557 98.0676C146.685 98.0217 146.85 97.962 146.923 97.9299C147.001 97.8977 147.111 97.8564 147.175 97.8381C147.239 97.8197 147.313 97.7876 147.336 97.7692C147.363 97.7509 147.702 97.6177 148.091 97.48C149.007 97.1541 149.195 97.0853 149.301 97.0256C149.346 97.0027 149.8 96.8282 150.308 96.6446C150.812 96.4565 151.508 96.1994 151.847 96.0709C152.186 95.9424 152.631 95.7725 152.832 95.6945C153.034 95.6211 153.263 95.5292 153.336 95.4971C153.414 95.465 153.529 95.4191 153.602 95.4053C153.671 95.387 153.739 95.3548 153.753 95.3319C153.767 95.3089 153.808 95.2906 153.845 95.2906C153.904 95.2906 154.316 95.1437 154.619 95.0152C154.669 94.9922 154.816 94.9417 154.939 94.9004C155.068 94.8545 155.233 94.7948 155.306 94.7627C155.384 94.726 155.535 94.6663 155.649 94.625C155.92 94.524 156.199 94.4184 156.314 94.368C156.364 94.3496 156.675 94.2348 157.001 94.1155C157.33 93.9962 157.637 93.8676 157.688 93.8355C157.738 93.8034 157.811 93.7758 157.853 93.7758C157.894 93.7758 157.995 93.7391 158.082 93.6932C158.228 93.6198 158.682 93.6152 165.351 93.6014L172.46 93.5922L172.68 93.707C172.799 93.7712 172.927 93.8447 172.964 93.8676C173.106 93.9594 173.747 94.3266 173.766 94.3266C173.821 94.3266 174.439 94.7857 174.801 95.0886C175.387 95.5889 176.716 97.0073 177.361 97.8381C177.426 97.9161 177.558 98.0813 177.659 98.2053C178.273 98.9443 178.552 99.284 178.69 99.4676C178.777 99.5823 178.91 99.7521 178.988 99.8439C180.114 101.203 180.572 101.831 180.783 102.304C180.934 102.648 180.934 103.227 180.779 103.645C180.659 103.975 180.307 104.801 180.165 105.09C179.991 105.448 179.927 105.6 179.789 105.981C179.716 106.192 179.652 106.376 179.652 106.38C179.652 106.389 179.698 106.394 179.757 106.394C180.082 106.385 185.602 106.5 186.66 106.536C187.352 106.564 188.96 106.582 190.233 106.582C191.506 106.587 193.123 106.605 193.829 106.628C194.534 106.651 196.728 106.683 198.707 106.697C200.686 106.715 202.335 106.738 202.372 106.752C202.408 106.761 203.141 106.789 203.998 106.812C204.854 106.835 205.651 106.867 205.775 106.885C205.894 106.904 205.99 106.899 205.99 106.876C205.986 106.807 204.616 105.751 204.41 105.66C204.36 105.637 204.195 105.526 204.043 105.416C203.892 105.302 203.746 105.21 203.718 105.21C203.691 105.205 203.631 105.164 203.585 105.113C203.54 105.063 203.485 105.022 203.462 105.022C203.439 105.022 203.334 104.962 203.228 104.888C202.999 104.737 201.703 103.947 200.947 103.507C200.654 103.337 200.338 103.144 200.237 103.085C200.141 103.02 199.916 102.892 199.738 102.795C199.564 102.699 199.22 102.502 198.982 102.359C198.744 102.217 198.382 102.01 198.18 101.905C197.979 101.795 197.759 101.666 197.69 101.62C197.626 101.57 197.557 101.533 197.539 101.533C197.521 101.533 197.452 101.492 197.379 101.441C197.31 101.395 197.081 101.262 196.87 101.152C196.531 100.978 196.398 100.904 196.027 100.675C195.977 100.643 195.753 100.523 195.524 100.404C195.299 100.285 195.056 100.151 194.988 100.106C194.924 100.055 194.855 100.018 194.836 100.018C194.818 100.018 194.749 99.9816 194.685 99.9312C194.617 99.8853 194.346 99.7338 194.081 99.5961C193.206 99.1325 192.23 98.6046 192.042 98.4899C191.942 98.4302 191.603 98.2466 191.286 98.0905C190.97 97.9299 190.682 97.7738 190.645 97.7417C190.609 97.7141 190.27 97.5259 189.889 97.3286C189.514 97.1312 188.831 96.7778 188.378 96.5391C186.843 95.7358 182.455 93.5371 182.354 93.5234C182.331 93.5188 182.148 93.4362 181.731 93.2434C181.603 93.1837 181.484 93.1332 181.47 93.1332C181.457 93.1332 181.315 93.0735 181.154 93.0001C180.994 92.9313 180.774 92.8349 180.659 92.789C180.545 92.7476 180.417 92.6926 180.375 92.6696C180.33 92.6467 180.252 92.6283 180.206 92.6283C180.156 92.6283 180.105 92.6099 180.091 92.5916C180.078 92.5686 179.927 92.5181 179.757 92.4722C179.588 92.4309 179.34 92.3667 179.212 92.3299C179.084 92.2932 178.882 92.2473 178.768 92.2336C178.649 92.2152 178.539 92.1831 178.525 92.1647C178.511 92.1418 178.392 92.1234 178.264 92.1188C178.131 92.1188 177.925 92.0959 177.797 92.0729C177.311 91.9811 176.651 91.9352 173.724 91.8067C170.294 91.6506 168.984 91.5864 167.994 91.5221C167.618 91.4991 167.018 91.4716 166.666 91.4578C166.313 91.4441 165.91 91.4211 165.772 91.4073C165.635 91.3936 165.42 91.3752 165.292 91.3614C164.907 91.3293 162.433 91.2054 161.215 91.1595C160.587 91.1365 159.914 91.1044 159.726 91.0906C159.538 91.0814 159.053 91.0585 158.65 91.0447C158.247 91.0309 157.752 91.008 157.55 90.9988C157.349 90.985 156.607 90.9529 155.901 90.93C154.587 90.8841 153.286 90.8244 151.71 90.751C151.22 90.7234 149.653 90.7005 148.229 90.6959C145.824 90.6867 145.632 90.6913 145.485 90.7693C145.398 90.8106 145.192 90.8978 145.027 90.9575C144.317 91.2054 143.941 91.3523 143.905 91.389C143.877 91.4165 143.818 91.4349 143.763 91.4349C143.708 91.4349 143.648 91.4532 143.625 91.4762C143.598 91.4991 143.291 91.6231 142.938 91.7516C142.585 91.8801 142.242 92.0178 142.173 92.0545C142.109 92.0913 142.022 92.1234 141.985 92.1234C141.949 92.1234 141.798 92.1785 141.651 92.2427C141.504 92.307 141.289 92.3942 141.175 92.4309C141.06 92.4677 140.909 92.5273 140.831 92.5595C140.758 92.5962 140.602 92.6513 140.488 92.688C140.373 92.7247 140.222 92.7844 140.144 92.8119C140.071 92.844 139.947 92.8945 139.869 92.9267C139.796 92.9588 139.558 93.0506 139.342 93.1332C139.127 93.2158 138.912 93.2985 138.861 93.3168C138.811 93.3398 138.669 93.3903 138.541 93.4316C138.252 93.528 138.17 93.5601 137.954 93.6565C137.858 93.6978 137.611 93.7942 137.405 93.8722C137.199 93.9503 136.988 94.0283 136.938 94.0512C136.887 94.0742 136.548 94.2073 136.182 94.345C135.815 94.4827 135.362 94.6571 135.174 94.7352C134.986 94.8086 134.624 94.9463 134.372 95.0381C133.924 95.1988 133.85 95.2263 133.617 95.3273C133.351 95.442 133.113 95.5338 132.723 95.667C132.499 95.745 132.293 95.8276 132.265 95.846C132.242 95.8689 132.197 95.8873 132.16 95.8873C132.123 95.8873 132.032 95.9148 131.954 95.9515C131.771 96.0342 131.299 96.2178 130.937 96.3463C130.786 96.4014 130.621 96.461 130.571 96.484C130.52 96.5024 130.387 96.5528 130.273 96.5987C130.158 96.6446 130.025 96.6951 129.975 96.7135C129.925 96.7364 129.728 96.8099 129.54 96.8787C129.352 96.9476 129.178 97.0164 129.151 97.0348C129.128 97.0486 129.013 97.0945 128.899 97.1266C128.784 97.1633 128.642 97.2184 128.578 97.2505C128.514 97.2827 128.436 97.3102 128.404 97.3102C128.372 97.3102 128.312 97.3286 128.266 97.3561C128.225 97.3791 127.987 97.4709 127.74 97.5627C127.488 97.6545 127.254 97.7463 127.213 97.7738C127.167 97.7968 126.773 97.9482 126.324 98.1089C125.88 98.2741 125.417 98.4531 125.294 98.5082C125.175 98.5633 124.877 98.6781 124.639 98.7607C124.4 98.8433 124.08 98.9535 123.929 99.0085C123.777 99.059 123.613 99.1233 123.562 99.1417C123.512 99.1646 123.397 99.2151 123.306 99.2564C123.214 99.2931 122.958 99.3895 122.733 99.4676C122.509 99.5456 122.284 99.6282 122.234 99.6466C122.183 99.6695 121.886 99.7843 121.57 99.9036C121.254 100.023 120.937 100.147 120.86 100.184C120.786 100.216 120.631 100.275 120.516 100.312C120.118 100.45 119.966 100.505 119.939 100.537C119.921 100.555 119.861 100.569 119.806 100.569C119.756 100.569 119.692 100.588 119.669 100.61C119.641 100.633 119.499 100.693 119.348 100.753C119.197 100.808 119.014 100.877 118.936 100.913C118.862 100.946 118.698 101.01 118.569 101.051C118.446 101.092 118.299 101.148 118.249 101.166C117.846 101.327 117.42 101.487 117.392 101.487C117.374 101.487 117.204 101.561 117.016 101.648C116.829 101.735 116.65 101.809 116.627 101.809C116.6 101.809 116.448 101.859 116.293 101.919C116.132 101.978 115.83 102.098 115.615 102.176C115.4 102.258 115.166 102.35 115.088 102.387C115.015 102.419 114.612 102.575 114.195 102.727C113.778 102.878 113.398 103.02 113.347 103.043C112.963 103.208 112.729 103.296 112.271 103.466C111.3 103.819 111.149 103.874 111.011 103.938C110.86 104.012 110.475 104.159 109.935 104.356C109.747 104.425 109.532 104.507 109.454 104.54C109.275 104.622 108.579 104.902 108.377 104.976C108.29 105.008 108.153 105.063 108.071 105.095C107.993 105.132 107.915 105.159 107.896 105.159C107.855 105.159 107.122 105.448 107.095 105.481C107.067 105.508 106.793 105.618 106.66 105.65C106.568 105.673 106.531 105.687 106.225 105.811C106.138 105.848 106.005 105.903 105.927 105.93C105.634 106.036 105.139 106.229 104.965 106.307C104.86 106.353 104.571 106.467 104.324 106.559C103.609 106.821 103.366 106.917 103.32 106.959C103.293 106.977 103.247 106.995 103.215 106.995C103.178 106.995 103.05 107.041 102.922 107.096C102.697 107.197 102.693 107.206 102.72 107.363C102.78 107.725 102.839 108.836 102.817 109.199C102.798 109.414 102.789 109.667 102.789 109.759C102.794 109.85 102.771 109.938 102.743 109.956C102.72 109.97 102.697 110.062 102.697 110.158C102.697 110.25 102.679 110.346 102.656 110.369C102.638 110.397 102.592 110.516 102.565 110.64C102.496 110.915 102.207 111.526 101.969 111.893C101.497 112.618 100.595 113.311 99.6468 113.674C99.3491 113.789 98.9185 113.963 98.6895 114.059C98.465 114.156 98.2177 114.257 98.1398 114.284C97.187 114.633 96.7061 114.812 96.6099 114.867C96.5412 114.899 96.3625 114.973 96.2159 115.023C95.8495 115.147 95.2632 115.363 94.9792 115.478C94.8555 115.528 94.544 115.643 94.2921 115.735C94.0401 115.831 93.8019 115.923 93.7653 115.941C93.7241 115.964 93.6233 115.997 93.5363 116.015C93.4492 116.033 93.3576 116.065 93.3301 116.084C93.3072 116.102 93.1194 116.176 92.9179 116.244C92.7163 116.313 92.469 116.41 92.3728 116.456C92.272 116.506 92.1575 116.543 92.1163 116.543C92.0751 116.543 92.0247 116.561 91.9972 116.584C91.9743 116.602 91.8414 116.657 91.704 116.699C91.5666 116.74 91.4109 116.795 91.3605 116.818C91.2414 116.873 90.5589 117.121 89.5282 117.488C89.0748 117.654 88.493 117.869 88.2319 117.97C87.9708 118.071 87.4944 118.246 87.1784 118.356C86.3676 118.636 86.2943 118.659 86.1248 118.732C86.0378 118.769 85.6393 118.911 85.2316 119.049C84.824 119.187 84.43 119.329 84.3521 119.361C84.201 119.43 83.5597 119.664 83.2299 119.77C83.1154 119.806 82.9001 119.861 82.7489 119.894C82.5978 119.921 82.3825 119.967 82.2726 119.994C81.732 120.132 80.7289 120.008 80.051 119.724C79.341 119.43 78.4019 118.631 77.8843 117.897C77.6553 117.566 77.2293 116.722 77.2293 116.593C77.2293 116.566 77.211 116.506 77.1835 116.46C77.1331 116.368 77.0094 115.928 76.9453 115.602C76.8903 115.308 76.8629 113.697 76.9132 113.6C76.9361 113.559 76.9545 113.454 76.9636 113.371C76.9682 113.284 76.9865 113.192 77.0003 113.169C77.0186 113.141 77.0598 113.013 77.0919 112.88C77.1194 112.751 77.1652 112.627 77.1881 112.614C77.211 112.6 77.2293 112.554 77.2293 112.517C77.2293 112.366 77.7057 111.581 77.9439 111.342C78.3286 110.957 78.4019 110.897 78.6814 110.764C78.8279 110.695 79.2035 110.511 79.5196 110.355C80.1701 110.043 80.5777 109.85 80.9946 109.676C81.1549 109.612 81.3977 109.497 81.5351 109.428C81.6725 109.355 82.0573 109.185 82.3825 109.047C82.7123 108.909 83.1016 108.735 83.2528 108.657C83.404 108.584 83.8391 108.391 84.2147 108.235C84.5949 108.074 84.9247 107.927 84.9522 107.909C84.9797 107.886 85.2041 107.785 85.4561 107.679C85.7034 107.578 86.0012 107.45 86.1157 107.399C86.2302 107.353 86.3722 107.289 86.4363 107.262C86.5005 107.234 86.6012 107.188 86.6654 107.156C86.7295 107.124 87.0364 106.991 87.3524 106.858C87.6685 106.725 88.0121 106.578 88.1174 106.532C88.2228 106.486 88.319 106.445 88.3281 106.445C88.3419 106.445 88.5251 106.366 88.7358 106.27C88.9419 106.174 89.2076 106.059 89.3221 106.013C89.6107 105.898 89.9634 105.747 90.4444 105.531C90.6734 105.43 91.1452 105.233 91.4979 105.09C91.8506 104.948 92.1896 104.801 92.2537 104.765C92.3591 104.705 92.6934 104.572 94.2921 103.943C94.5944 103.824 94.9883 103.672 95.1624 103.612C95.341 103.548 95.5243 103.479 95.5746 103.456C95.625 103.438 95.9136 103.346 96.2159 103.254C96.5182 103.163 96.8297 103.071 96.9076 103.043C96.9855 103.02 97.1137 103.002 97.1916 103.002C97.2695 103.002 97.4298 102.979 97.5397 102.947C97.7 102.906 97.8237 102.906 98.126 102.956C98.6116 103.034 98.7627 103.085 99.3766 103.401C99.656 103.544 100.032 103.736 100.215 103.828L100.549 104.003L101.016 103.814C101.603 103.585 101.864 103.479 102.157 103.351C102.249 103.309 102.336 103.277 102.349 103.277C102.363 103.277 102.501 103.218 102.661 103.144C102.821 103.071 103.156 102.933 103.407 102.841C103.659 102.745 103.888 102.653 103.911 102.635C103.939 102.616 104.008 102.584 104.072 102.566C104.136 102.548 104.31 102.474 104.461 102.405C104.612 102.336 104.818 102.249 104.919 102.208C105.02 102.171 105.391 102.02 105.744 101.877C106.096 101.73 106.719 101.483 107.132 101.322C107.539 101.161 108.006 100.969 108.162 100.9C108.318 100.826 108.661 100.689 108.927 100.592C109.193 100.496 109.426 100.399 109.449 100.376C109.477 100.358 109.523 100.34 109.555 100.34C109.683 100.34 110.21 100.055 110.178 100.005C110.164 99.9725 110.026 99.7751 109.875 99.5594C109.413 98.8984 109.417 98.903 109.138 98.242C108.991 97.8886 108.95 97.6912 108.955 97.3332C108.955 96.9705 109.014 96.2132 109.069 95.8414C109.092 95.6761 109.124 95.4696 109.138 95.3824C109.147 95.2952 109.179 95.0748 109.202 94.9004C109.229 94.7214 109.312 94.1339 109.39 93.5922C109.468 93.0552 109.55 92.5181 109.573 92.3988C109.623 92.1877 109.697 91.747 109.729 91.5037C109.738 91.4257 109.83 90.8473 109.93 90.2185C110.031 89.5851 110.136 88.9149 110.168 88.7267C110.196 88.5385 110.26 88.1438 110.315 87.8546C110.365 87.5654 110.42 87.212 110.439 87.0743C110.462 86.9366 110.521 86.574 110.572 86.271C110.659 85.7799 110.691 85.5779 110.778 84.9628C110.92 83.9943 110.998 83.4711 111.034 83.2415C111.062 83.0901 111.094 82.9019 111.103 82.8238C111.13 82.654 111.382 81.6671 111.442 81.5111C111.776 80.6298 112.193 80.1754 113.952 78.7846C114.584 78.2842 115.812 77.3892 115.867 77.3892C115.876 77.3892 116.073 77.2744 116.306 77.1367C116.536 76.999 116.742 76.8843 116.765 76.8843C116.787 76.8843 116.806 76.8659 116.806 76.8475C116.806 76.8246 117.016 76.6915 117.278 76.5492C117.534 76.4069 117.905 76.1911 118.098 76.0718C118.29 75.9525 118.615 75.7597 118.821 75.6449C119.023 75.5302 119.293 75.3695 119.421 75.2915C119.545 75.2089 119.756 75.0849 119.889 75.0115C120.021 74.938 120.365 74.7361 120.663 74.5571C121.148 74.2633 121.721 73.9649 122.394 73.6574C122.532 73.5931 122.802 73.5105 122.99 73.4692C123.315 73.4004 124.982 73.1341 125.404 73.0882L125.596 73.0653L125.582 72.7853C125.573 72.6292 125.55 72.0142 125.536 71.422L125.504 70.3434L125.972 69.9302C126.228 69.7007 126.553 69.4299 126.695 69.3244C126.837 69.2188 127.034 69.0719 127.135 68.9985C127.41 68.7965 128.518 68.1906 129.036 67.9657C129.531 67.7499 130.497 67.369 130.607 67.3506C130.676 67.3368 130.745 67.3093 130.758 67.2863C130.772 67.2634 130.832 67.245 130.891 67.245C130.951 67.245 131.01 67.2267 131.029 67.2037C131.042 67.1762 131.148 67.1441 131.258 67.1257C131.372 67.1119 131.477 67.0798 131.491 67.0568C131.505 67.0339 131.574 67.0155 131.642 67.0155C131.711 67.0155 131.784 66.9972 131.807 66.9788C131.835 66.9559 132.082 66.8824 132.357 66.8136C132.636 66.7447 132.902 66.6713 132.952 66.6483C133.062 66.6024 133.759 66.4418 134.143 66.3775C134.295 66.35 134.542 66.3087 134.693 66.2811C135.137 66.2031 136.214 66.0608 136.731 66.0057C136.997 65.9828 137.377 65.9369 137.579 65.9047C138.124 65.8267 140.455 65.8267 140.717 65.9093C140.831 65.9414 141.028 66.0011 141.152 66.0378C141.413 66.1159 141.898 66.3362 142.434 66.6162C142.636 66.7218 142.956 66.8824 143.144 66.9788L143.488 67.1532L147.679 67.1716C152.438 67.1991 154.857 67.2634 156.932 67.4241C157.248 67.4516 157.866 67.4929 158.306 67.5159C158.746 67.5434 159.199 67.5755 159.314 67.5893C159.428 67.5985 159.749 67.6214 160.024 67.6398C160.303 67.6536 160.56 67.6765 160.596 67.6903C160.633 67.704 160.894 67.7316 161.169 67.7545C161.861 67.805 163.162 67.929 163.551 67.9749C163.73 67.9978 164.004 68.0299 164.169 68.0483C164.618 68.0942 165.713 68.2962 166.047 68.3926C166.212 68.4385 166.469 68.5303 166.62 68.5945C166.808 68.6726 166.977 68.7093 167.147 68.7093C167.367 68.7093 168.159 68.5486 168.658 68.4017C170.133 67.9657 171.026 67.8234 172.071 67.8555C172.813 67.8785 173.014 67.9336 173.294 68.1952C173.399 68.2962 173.44 68.3054 173.592 68.2778C173.921 68.2181 175.007 67.8418 175.474 67.6306C175.607 67.5709 175.731 67.5204 175.754 67.5204C175.777 67.5204 175.873 67.4791 175.974 67.4332C176.29 67.2726 176.674 67.1073 176.72 67.1073C176.748 67.1073 176.803 67.089 176.848 67.066C176.89 67.0431 177.018 66.9834 177.132 66.9329C178.108 66.506 178.461 66.3546 178.919 66.1664C179.207 66.0424 179.469 65.9277 179.491 65.9093C179.519 65.891 179.835 65.7533 180.201 65.6018C180.568 65.4503 181.049 65.2392 181.273 65.1336C181.502 65.028 181.809 64.8949 181.96 64.8352C182.258 64.7251 182.707 64.5277 182.913 64.4175C182.977 64.3808 183.064 64.3533 183.106 64.3533C183.147 64.3533 183.179 64.3395 183.179 64.3166C183.179 64.2982 183.307 64.2339 183.467 64.1743C183.623 64.1146 183.866 64.0136 184.003 63.9539C184.141 63.8897 184.296 63.8254 184.347 63.8025C184.397 63.7841 184.635 63.6739 184.878 63.5546C185.121 63.4398 185.336 63.3435 185.355 63.3435C185.387 63.3435 185.501 63.293 185.996 63.0726C186.147 63.0038 186.367 62.9074 186.486 62.8569C186.61 62.811 186.706 62.7559 186.706 62.733C186.706 62.7146 186.729 62.7008 186.752 62.7008C186.834 62.7008 188.373 62.0399 188.437 61.9802C188.469 61.9481 188.52 61.9205 188.547 61.9205C188.607 61.9205 189.592 61.5028 190.137 61.2504C190.37 61.1402 190.572 61.0484 190.586 61.0484C190.599 61.0484 190.773 60.975 190.98 60.8832C191.186 60.7959 191.428 60.6904 191.516 60.6537C191.603 60.6123 191.8 60.5251 191.951 60.4517C192.102 60.3782 192.331 60.2773 192.459 60.2268C192.725 60.1258 193.004 60.0019 193.426 59.8045C193.586 59.731 193.733 59.6714 193.755 59.6714C193.778 59.6714 193.82 59.6438 193.847 59.6071C193.879 59.5704 193.971 59.5245 194.049 59.5061C194.126 59.4924 194.223 59.4602 194.264 59.4373C194.333 59.4051 194.543 59.3088 194.951 59.1297C195.066 59.0792 195.331 58.9645 195.546 58.8681C195.762 58.7717 196 58.6707 196.073 58.634C196.151 58.6019 196.431 58.4825 196.701 58.3678C196.971 58.253 197.292 58.1107 197.411 58.0511C197.53 57.9868 197.796 57.872 197.997 57.794C198.428 57.6196 198.57 57.5553 199.023 57.3442C199.211 57.2524 199.623 57.0734 199.939 56.9403C200.255 56.8071 200.755 56.5914 201.043 56.4583C201.515 56.2472 201.684 56.1737 201.982 56.0452C202.033 56.0222 202.239 55.9304 202.44 55.8386C202.642 55.7422 203.004 55.5862 203.242 55.4852C203.723 55.2832 203.842 55.2327 204.341 55.0032C204.786 54.8013 204.772 54.8059 205.418 54.5305C205.72 54.4019 206.031 54.2642 206.105 54.2229C206.251 54.1495 207.342 53.6859 207.571 53.6033C207.648 53.5757 207.781 53.5115 207.868 53.461C207.955 53.4105 208.299 53.259 208.624 53.1213C208.954 52.9836 209.384 52.7908 209.586 52.6944C210.017 52.4924 210.136 52.4374 210.681 52.2125C210.901 52.1207 211.249 51.9646 211.455 51.8636C211.656 51.7672 211.84 51.6846 211.858 51.6846C211.881 51.6846 212.009 51.6341 212.151 51.5698C212.289 51.5056 212.518 51.4046 212.655 51.3403C212.797 51.2761 212.921 51.2256 212.934 51.2256C212.944 51.2256 213.109 51.1521 213.292 51.0649C213.48 50.9777 213.644 50.9043 213.658 50.9043C213.672 50.9043 213.819 50.84 213.983 50.7666C214.148 50.6885 214.295 50.6289 214.309 50.6289C214.322 50.6289 214.524 50.5371 214.758 50.4269C214.996 50.3122 215.513 50.0826 215.912 49.9128C216.315 49.7476 216.663 49.5915 216.686 49.5731C216.713 49.5548 217.02 49.4217 217.373 49.2748C217.721 49.1325 218.042 48.9948 218.083 48.9718C218.143 48.9397 218.427 48.8066 219.054 48.522C219.173 48.4715 219.302 48.4256 219.334 48.4256C219.366 48.4256 219.43 48.3981 219.48 48.3659C219.531 48.3338 219.677 48.2604 219.805 48.2053C219.929 48.1548 220.195 48.0355 220.387 47.9482C220.58 47.8564 220.754 47.783 220.767 47.783C220.781 47.783 220.905 47.7325 221.042 47.6683C221.18 47.604 221.299 47.5535 221.312 47.5535C221.322 47.5535 221.546 47.4479 221.812 47.324C222.077 47.1955 222.306 47.0945 222.32 47.0945C222.334 47.0945 222.43 47.0532 222.54 47.0073C222.645 46.9568 222.98 46.8099 223.282 46.6814C223.584 46.5529 223.955 46.3876 224.107 46.3142C224.258 46.2453 224.546 46.1214 224.748 46.0342C224.949 45.9516 225.156 45.8552 225.206 45.823C225.256 45.7909 225.33 45.7634 225.375 45.7634C225.417 45.7634 225.481 45.7358 225.513 45.7037C225.545 45.6716 225.769 45.566 226.008 45.4696C226.502 45.2676 227.07 45.0106 227.249 44.9142C227.313 44.8775 227.588 44.7627 227.867 44.6617C228.142 44.5562 228.431 44.4414 228.504 44.4093C228.806 44.2762 229.69 43.964 229.832 43.9411C230.281 43.8676 230.799 44.0834 231.376 44.5791C231.665 44.8316 232.059 45.3319 232.265 45.7175C232.544 46.2315 232.622 46.5253 232.617 47.0486C232.617 47.4571 232.576 47.6591 232.42 48.0263C232.086 48.825 231.582 49.4354 231.046 49.6971C230.881 49.7751 230.382 50.0184 229.933 50.2341C229.484 50.4499 229.109 50.6289 229.095 50.6289C229.077 50.6289 228.866 50.7253 227.817 51.2256C227.615 51.322 227.235 51.4964 226.969 51.6157C226.704 51.7351 226.47 51.8498 226.443 51.8682C226.42 51.8866 226.182 51.9967 225.916 52.1115C225.65 52.2262 225.22 52.4236 224.954 52.5475C224.688 52.6715 224.317 52.8413 224.129 52.9239C223.942 53.0065 223.516 53.2039 223.181 53.3646C222.847 53.5252 222.563 53.6583 222.545 53.6583C222.531 53.6583 222.32 53.7501 222.082 53.8649C221.844 53.9796 221.647 54.0714 221.638 54.0714C221.628 54.0714 221.381 54.1862 221.088 54.3239C220.795 54.4616 220.547 54.5764 220.534 54.5764C220.506 54.5764 220.053 54.7829 219.618 54.9941C219.416 55.0904 218.985 55.2832 218.656 55.4255C218.33 55.5678 218.014 55.7147 217.959 55.7468C217.904 55.7836 217.68 55.8891 217.456 55.9809C217.236 56.0727 216.8 56.2701 216.494 56.417C216.187 56.5639 215.839 56.7245 215.715 56.775C215.596 56.8209 215.211 56.9999 214.867 57.1652C214.519 57.3304 214.226 57.4681 214.217 57.4681C214.203 57.4681 214.038 57.5416 213.851 57.6288C213.658 57.716 213.493 57.7894 213.48 57.7894C213.466 57.7894 213.246 57.8904 212.989 58.0143C212.353 58.3127 211.991 58.4779 211.968 58.4779C211.954 58.4779 211.766 58.5606 211.551 58.6615C211.336 58.7625 211.143 58.8452 211.13 58.8452C211.116 58.8452 211.07 58.8727 211.034 58.9094C210.992 58.9415 210.901 58.992 210.823 59.0196C210.617 59.093 209.824 59.4465 209.33 59.6851C209.087 59.8045 208.876 59.9009 208.862 59.9009C208.821 59.9009 208.161 60.2038 207.868 60.3599C207.731 60.4333 207.502 60.5343 207.364 60.5894C207.113 60.6904 206.861 60.8051 206.105 61.1677C205.88 61.2733 205.592 61.4018 205.463 61.4523C205.225 61.5487 204.827 61.7277 204.273 61.9894C203.947 62.1408 203.682 62.2602 203.356 62.4071C203.256 62.4484 202.921 62.6044 202.61 62.7559C202.298 62.9028 202.019 63.0221 201.987 63.0221C201.959 63.0221 201.914 63.0405 201.891 63.0635C201.863 63.0864 201.643 63.1874 201.391 63.293C201.144 63.3985 200.897 63.5133 200.842 63.55C200.791 63.5867 200.539 63.7015 200.287 63.8071C200.035 63.908 199.664 64.0779 199.467 64.1788C199.266 64.2752 198.909 64.4405 198.666 64.5461C198.423 64.647 198.052 64.8123 197.837 64.9133C196.944 65.3356 196.783 65.409 196.756 65.409C196.742 65.409 196.6 65.4687 196.444 65.5421C195.423 66.0287 195.079 66.1893 195.047 66.1893C195.029 66.1893 194.924 66.2306 194.809 66.2857C194.699 66.3408 194.401 66.4785 194.149 66.6024C193.897 66.7218 193.536 66.887 193.348 66.9696C193.16 67.0523 192.789 67.2267 192.523 67.3506C192.258 67.4745 191.964 67.6031 191.868 67.6398C191.772 67.6719 191.648 67.7316 191.593 67.7729C191.538 67.8096 191.47 67.8418 191.438 67.8418C191.406 67.8418 191.126 67.9657 190.819 68.1126C190.151 68.4339 189.738 68.6221 189.702 68.6221C189.683 68.6221 189.445 68.7322 189.161 68.8699C188.579 69.1499 188.135 69.3565 188.103 69.3565C188.08 69.3565 187.595 69.5768 187.049 69.8384C186.875 69.9211 186.646 70.0266 186.546 70.068C186.445 70.1139 186.124 70.2607 185.836 70.3984C185.547 70.5361 185.268 70.6647 185.217 70.6876C185.167 70.7106 184.952 70.8024 184.736 70.8942C184.521 70.986 184.113 71.1742 183.829 71.3119C183.541 71.4496 183.302 71.5597 183.289 71.5597C183.261 71.5597 182.386 71.9545 181.91 72.184C181.681 72.2942 181.479 72.386 181.461 72.386C181.447 72.386 181.264 72.4686 181.058 72.565C180.614 72.7761 180.082 73.024 179.766 73.1617C179.643 73.2214 179.285 73.3866 178.974 73.5381C178.662 73.685 178.397 73.8089 178.383 73.8089C178.36 73.8089 178.03 73.9604 177.339 74.2908C177.114 74.401 176.826 74.5341 176.697 74.5892C176.574 74.6443 176.464 74.6994 176.454 74.704C176.445 74.7085 176.638 75.1079 176.871 75.5807C177.11 76.058 177.352 76.5629 177.407 76.7006C177.462 76.8384 177.536 77.0128 177.568 77.0908C177.678 77.3387 178.039 78.4632 178.071 78.6514C178.09 78.7524 178.113 78.9268 178.122 79.0416C178.136 79.1564 178.163 79.2895 178.186 79.34C178.328 79.6659 178.369 81.5386 178.25 82.1858C178.181 82.5576 178.104 82.9294 178.081 83.012C178.071 83.035 178.049 83.1084 178.03 83.1727C177.998 83.2829 177.948 83.393 177.778 83.7602C177.536 84.2881 176.931 85.0638 175.987 86.0553C175.318 86.7622 174.998 87.2074 174.952 87.4874C174.897 87.8271 175.094 87.9189 175.987 87.9694C178.104 88.0841 179.578 88.231 180.133 88.3825C180.939 88.5982 181.127 88.6533 181.392 88.7359C181.837 88.8782 182.483 89.1261 182.744 89.2546C182.872 89.3143 183.147 89.4382 183.362 89.53C183.907 89.7641 185.781 90.6821 187.036 91.3385C187.649 91.6598 190.109 92.9129 191.607 93.6703C192.226 93.987 192.761 94.2578 192.798 94.2807C192.835 94.3037 193.055 94.4139 193.279 94.524C193.508 94.6388 193.797 94.7811 193.92 94.8453C194.356 95.0656 195.226 95.4742 195.267 95.4742C195.29 95.4742 195.317 95.4925 195.327 95.5109C195.354 95.5752 195.89 95.7909 196.215 95.8689C196.66 95.9745 197.415 95.9607 198.02 95.8414C198.286 95.7863 198.574 95.7312 198.661 95.7174C198.748 95.7037 198.845 95.6761 198.867 95.6532C198.895 95.6348 199.009 95.6027 199.119 95.5889C199.234 95.5706 199.367 95.5384 199.417 95.5201C199.513 95.4742 199.976 95.3456 200.173 95.3043C200.237 95.2952 200.494 95.2401 200.745 95.1896C201.804 94.9647 203.013 94.9188 207.525 94.9188C210.85 94.9142 211.794 94.9417 212.518 95.0519C213.044 95.1299 214.029 95.4191 214.167 95.5292C214.19 95.5476 214.235 95.566 214.272 95.566C214.304 95.566 214.419 95.6073 214.524 95.6532C214.629 95.6991 214.922 95.8276 215.174 95.9286C215.426 96.0342 215.665 96.1489 215.701 96.1856C215.742 96.2224 215.788 96.2545 215.802 96.2545C215.816 96.2545 216.077 96.3968 216.384 96.5758C217.204 97.0486 218.248 97.8518 218.949 98.5495C219.338 98.9305 220.03 99.7108 220.236 99.9908C220.323 100.11 220.46 100.285 220.538 100.376C220.662 100.523 220.923 100.918 221.312 101.533C221.509 101.85 221.555 101.932 221.917 102.635C222.32 103.41 222.508 103.883 222.549 104.227C222.59 104.544 222.439 104.82 222.132 104.985C221.931 105.095 221.821 105.136 221.289 105.306C220.763 105.471 219.911 105.921 219.595 106.201C219.444 106.334 219.292 106.458 219.256 106.477C219.205 106.504 219.187 106.899 219.169 108.533C219.141 110.534 219.132 110.704 219.045 111.149C219.022 111.273 218.995 111.452 218.981 111.54C218.953 111.81 218.724 112.6 218.564 112.985C218.436 113.302 218.133 113.885 217.762 114.546C217.598 114.844 216.7 116.189 216.585 116.313C216.526 116.377 216.48 116.442 216.48 116.456C216.48 116.469 216.425 116.557 216.356 116.644C216.283 116.731 216.187 116.859 216.136 116.928C216.031 117.075 215.486 117.768 215.138 118.191C214.872 118.521 213.576 120.05 213.461 120.169C213.42 120.21 213.214 120.44 212.999 120.674C211.918 121.872 209.765 124.043 209.119 124.585C208.913 124.754 208.729 124.915 208.716 124.943C208.684 124.993 207.534 125.962 207.131 126.278C206.673 126.636 206.247 126.994 206.137 127.109L206.036 127.219L206.87 127.274C207.332 127.307 207.832 127.352 207.983 127.375C208.134 127.398 208.684 127.43 209.197 127.444C209.714 127.458 210.291 127.49 210.479 127.513C210.667 127.536 211.079 127.568 211.395 127.582C211.711 127.591 212.321 127.623 212.747 127.651C213.177 127.674 213.947 127.715 214.464 127.743C214.982 127.766 215.55 127.798 215.724 127.811C215.903 127.825 216.219 127.844 216.434 127.857C217.162 127.908 218.289 128.018 218.541 128.064C218.894 128.128 219.389 128.316 219.64 128.477C219.911 128.651 220.447 129.193 220.717 129.565C220.831 129.726 220.923 129.863 220.923 129.877C220.923 129.891 220.969 129.978 221.028 130.074C221.088 130.166 221.184 130.377 221.244 130.543C221.303 130.708 221.363 130.859 221.381 130.887C221.56 131.13 221.555 132.402 221.381 132.815C221.331 132.925 220.973 134.265 220.937 134.467C220.923 134.541 220.896 134.623 220.877 134.651C220.854 134.674 220.827 134.793 220.809 134.917C220.79 135.036 220.758 135.146 220.735 135.16C220.712 135.174 220.694 135.252 220.694 135.335C220.694 135.413 220.676 135.5 220.653 135.523C220.63 135.55 220.557 135.775 220.488 136.028C220.424 136.28 220.35 136.528 220.328 136.579C220.291 136.666 220.222 136.932 220.231 136.96C220.236 136.964 220.208 137.042 220.172 137.129C220.131 137.221 220.103 137.299 220.099 137.313C220.094 137.354 220.066 137.451 220.012 137.616C219.984 137.703 219.961 137.832 219.961 137.891C219.961 137.956 219.943 138.024 219.924 138.047C219.902 138.075 219.847 138.217 219.805 138.369C219.76 138.52 219.677 138.786 219.613 138.965C219.553 139.14 219.498 139.328 219.489 139.378C219.48 139.429 219.457 139.502 219.444 139.539C219.43 139.576 219.343 139.874 219.251 140.205C219.164 140.531 219.068 140.843 219.05 140.893C219.027 140.944 218.967 141.127 218.917 141.306C218.66 142.197 218.537 142.637 218.408 143.096C218.326 143.372 218.248 143.643 218.225 143.693C218.202 143.744 218.143 143.927 218.092 144.106C217.9 144.763 217.758 145.268 217.648 145.69C217.584 145.929 217.51 146.158 217.492 146.199C217.469 146.241 217.387 146.507 217.309 146.796C217.226 147.085 217.144 147.37 217.117 147.434C217.094 147.498 217.062 147.599 217.052 147.664C217.039 147.728 216.988 147.921 216.933 148.1C216.846 148.398 216.764 148.678 216.741 148.788C216.736 148.811 216.718 148.852 216.7 148.88C216.686 148.903 216.617 149.11 216.549 149.339C216.333 150.069 216.292 150.207 216.251 150.349C216.104 150.881 215.843 151.698 215.788 151.804C215.765 151.85 215.747 151.932 215.747 151.992C215.747 152.052 215.733 152.116 215.715 152.134C215.692 152.153 215.678 152.185 215.674 152.199C215.665 152.272 215.6 152.515 215.564 152.598C215.545 152.648 215.472 152.887 215.408 153.126C215.339 153.365 215.252 153.654 215.216 153.768C215.174 153.883 215.133 154.016 215.119 154.067C215.106 154.117 215.078 154.2 215.06 154.25C215.037 154.301 214.904 154.755 214.762 155.26C214.538 156.059 214.428 156.435 214.336 156.706C214.304 156.807 214.29 156.848 214.24 157.027C214.217 157.115 214.08 157.578 213.938 158.06C213.796 158.538 213.658 159.015 213.635 159.116C213.612 159.217 213.562 159.359 213.53 159.437C213.493 159.511 213.429 159.708 213.388 159.873C213.347 160.039 213.292 160.213 213.269 160.263C213.251 160.314 213.2 160.488 213.159 160.654C213.118 160.819 213.067 160.993 213.044 161.044C213.026 161.094 212.989 161.195 212.971 161.273C212.953 161.347 212.934 161.429 212.925 161.457C212.921 161.48 212.843 161.728 212.751 162.003C212.66 162.279 212.586 162.536 212.586 162.581C212.586 162.623 212.573 162.673 212.554 162.692C212.536 162.705 212.518 162.747 212.508 162.779C212.49 162.875 212.412 163.141 212.316 163.477C212.261 163.651 212.211 163.839 212.202 163.89C212.16 164.069 212.028 164.486 211.991 164.532C211.973 164.555 211.945 164.638 211.931 164.716C211.904 164.863 211.881 164.945 211.844 165.06C211.831 165.097 211.794 165.221 211.762 165.336C211.73 165.45 211.689 165.593 211.666 165.657C211.643 165.721 211.606 165.854 211.583 165.955C211.528 166.189 211.313 166.937 211.263 167.057C211.18 167.268 211.075 167.626 211.075 167.709C211.075 167.755 211.056 167.814 211.034 167.842C211.015 167.865 210.896 168.246 210.777 168.686C210.658 169.127 210.539 169.517 210.507 169.554C210.479 169.591 210.461 169.627 210.47 169.636C210.493 169.659 210.429 169.926 210.388 170.017C210.365 170.054 210.296 170.284 210.227 170.522C210.003 171.321 209.92 171.596 209.673 172.381C209.412 173.221 209.316 173.547 209.311 173.621C209.311 173.644 209.284 173.726 209.256 173.804C209.21 173.928 209.142 174.171 209.133 174.25C209.128 174.263 209.114 174.295 209.096 174.314C209.073 174.332 209.059 174.406 209.059 174.474C209.059 174.543 209.041 174.612 209.018 174.63C208.995 174.644 208.949 174.768 208.917 174.91C208.885 175.048 208.844 175.172 208.821 175.186C208.803 175.2 208.784 175.255 208.784 175.314C208.784 175.369 208.771 175.434 208.752 175.452C208.734 175.47 208.716 175.512 208.716 175.539C208.711 175.617 208.647 175.851 208.601 175.962C208.569 176.044 208.51 176.255 208.372 176.765C208.276 177.123 208.129 177.573 208.097 177.614C208.074 177.637 208.061 177.674 208.061 177.697C208.061 177.816 207.992 178.101 207.955 178.124C207.932 178.137 207.914 178.206 207.914 178.284C207.914 178.358 207.896 178.417 207.873 178.417C207.841 178.417 207.795 178.592 207.758 178.84C207.754 178.853 207.74 178.886 207.722 178.904C207.699 178.922 207.685 178.973 207.685 179.019C207.685 179.087 207.461 179.845 207.378 180.07C207.346 180.157 207.332 180.189 207.277 180.391C206.998 181.401 206.618 182.677 206.586 182.741C206.54 182.824 206.132 184.201 205.981 184.775C205.931 184.977 205.871 185.16 205.853 185.188C205.83 185.211 205.743 185.5 205.651 185.83C205.56 186.156 205.463 186.464 205.441 186.505C205.413 186.551 205.395 186.634 205.395 186.693C205.395 186.753 205.381 186.817 205.363 186.836C205.34 186.854 205.326 186.886 205.321 186.9C205.303 187.056 205.239 187.281 205.207 187.304C205.184 187.318 205.166 187.386 205.166 187.46C205.166 187.533 205.147 187.602 205.125 187.616C205.102 187.63 205.056 187.754 205.028 187.882C204.996 188.015 204.96 188.144 204.941 188.171C204.928 188.194 204.909 188.258 204.905 188.309C204.891 188.396 204.799 188.699 204.543 189.535C204.483 189.727 204.433 189.92 204.433 189.961C204.433 189.998 204.415 190.067 204.392 190.113C204.364 190.154 204.291 190.375 204.222 190.604C204.153 190.829 204.071 191.114 204.034 191.228C203.998 191.343 203.961 191.467 203.956 191.504C203.947 191.54 203.934 191.6 203.92 191.637C203.883 191.738 203.672 192.514 203.563 192.968C203.512 193.184 203.448 193.399 203.425 193.45C203.402 193.5 203.375 193.601 203.361 193.679C203.352 193.753 203.32 193.9 203.292 194.001C203.269 194.102 203.237 194.258 203.224 194.345C203.21 194.432 203.169 194.662 203.127 194.85C203.091 195.038 203.045 195.442 203.031 195.745C202.976 196.75 203.146 197.283 203.677 197.783C204.213 198.283 204.424 198.38 205.12 198.449C206.563 198.591 208.029 198.591 423.569 198.591C629.257 198.591 637.814 198.586 638.583 198.508C640.745 198.288 642.522 197.907 644.469 197.26C652.297 194.648 658.445 188.488 661.051 180.644C661.697 178.693 662.077 176.912 662.297 174.745C662.375 173.979 662.379 171.812 662.379 126.916C662.379 88.3044 662.37 79.776 662.32 79.2482C662.018 76.058 661.303 73.3086 660.057 70.5499C657.006 63.7979 651.116 58.5652 644.08 56.3527C642.316 55.7973 640.759 55.4806 638.574 55.2327C637.91 55.1547 626.793 55.1501 433.303 55.1272L228.733 55.1042L229.003 54.9757C229.15 54.9068 229.278 54.8518 229.287 54.8518C229.296 54.8518 229.645 54.6865 230.057 54.4846C230.474 54.2826 230.826 54.1173 230.84 54.1173C230.854 54.1173 231.197 53.9567 231.61 53.7547C232.017 53.5574 232.498 53.3278 232.672 53.2452C233.002 53.0938 233.282 52.9056 233.992 52.3777C234.413 52.061 234.669 51.7626 235.315 50.8125C235.842 50.0367 235.934 49.821 236.204 48.7148C236.474 47.5902 236.543 47.246 236.543 47.0256C236.543 46.6263 236.044 44.5791 235.842 44.1431C235.654 43.7437 234.756 42.4677 234.372 42.0546C234.024 41.6828 232.755 40.751 232.329 40.5582C232.04 40.4251 230.277 40.0257 230.002 40.0303C229.855 40.0303 229.328 40.1313 228.825 40.2552ZM637.759 64.7572C640.631 65.1244 642.948 65.9414 645.179 67.3782C646.572 68.2732 648.12 69.6686 649.183 70.986C650.584 72.7348 651.679 74.8692 652.279 77.0357C652.65 78.376 652.806 79.4088 652.879 80.9924C652.911 81.7085 652.92 96.7869 652.911 127.651C652.898 170.839 652.893 173.29 652.815 173.91C652.545 176.127 652.046 177.821 651.102 179.703C649.906 182.103 648.257 184.077 646.127 185.674C643.645 187.533 640.754 188.649 637.635 188.952C636.623 189.053 248.182 189.053 247.17 188.952C243.469 188.594 240.038 187.065 237.367 184.577C236.305 183.59 235.499 182.645 234.734 181.493C233.135 179.078 232.21 176.421 231.962 173.529C231.898 172.744 231.898 81.0153 231.967 80.2029C232.21 77.2561 233.176 74.5158 234.839 72.0646C237.148 68.6588 240.652 66.2031 244.614 65.2024C245.649 64.9408 246.661 64.7893 247.903 64.7067C248.017 64.6975 335.681 64.6929 442.716 64.6975C595.054 64.7021 637.42 64.7159 637.759 64.7572Z" fill="white"/>
<path d="M294.419 89.8329C287.722 90.1405 282.432 91.9811 278.249 95.4466C277.736 95.8735 276.353 97.2184 275.964 97.6682C275.868 97.7784 275.785 97.861 275.776 97.8518C275.767 97.8472 275.061 96.3095 274.2 94.4414L272.643 91.0447L266.477 91.0309L260.316 91.0217V127.651V164.28H268.859H277.402V137.749V111.223L277.778 110.75C278.868 109.387 280.567 107.95 282.432 106.825C284.543 105.549 287.131 104.512 289.266 104.085C290.406 103.856 290.929 103.81 292.381 103.81C297.332 103.819 301.056 105.109 303.443 107.647C305.458 109.795 306.745 113.123 307.222 117.438C307.433 119.347 307.419 118.057 307.437 141.912L307.451 164.28H315.994H324.537V141.178C324.537 118.03 324.532 117.351 324.376 115.464C323.813 108.721 321.742 103.231 318.124 98.8708C317.569 98.2053 316.017 96.6309 315.352 96.0617C311.583 92.8394 306.984 90.8657 301.528 90.1313C299.293 89.8283 296.792 89.7228 294.419 89.8329Z" fill="white"/>
<path d="M372.747 89.8283C364.355 90.2735 357.393 93.0505 351.108 98.4531C342.817 105.586 338.525 115.12 338.237 127.054C338.012 136.56 339.904 144.45 343.912 150.716C345.598 153.351 347.796 155.816 350.302 157.877C355.327 162.008 361.639 164.491 369.105 165.262C370.924 165.45 372.358 165.519 374.625 165.519C380.987 165.519 386.411 164.817 391.184 163.375C394.89 162.255 398.398 160.497 400.959 158.473L401.403 158.12L400.057 155.453C399.314 153.984 397.826 151.024 396.749 148.88C395.668 146.732 394.784 144.974 394.78 144.965C394.775 144.96 394.587 145.144 394.363 145.373C392.347 147.434 389.714 149.059 386.727 150.078C384.638 150.789 382.604 151.189 379.824 151.437C378.775 151.533 375.115 151.515 374.075 151.414C369.302 150.941 365.697 149.587 362.583 147.094C361.928 146.576 360.59 145.222 360.054 144.542C357.681 141.536 356.445 138.066 356.074 133.379L356.046 133.021L382.215 133.012L408.384 132.998L408.485 132.539C409.062 129.982 409.506 127.398 409.722 125.379C409.864 124.038 409.818 121.449 409.616 119.411C408.815 111.273 405.526 104.411 399.818 98.958C394.354 93.7436 387.442 90.7555 379.068 89.9935C377.213 89.8237 374.281 89.7456 372.747 89.8283ZM377.35 103.897C381.152 104.264 384.066 105.324 386.507 107.225C387.382 107.904 388.403 108.983 389.132 109.979C390.808 112.292 391.981 115.473 392.489 119.09C392.549 119.545 392.613 119.994 392.627 120.086L392.65 120.261H374.671C357.539 120.261 356.692 120.256 356.692 120.178C356.692 120.045 357.173 118.177 357.402 117.419C358.726 113.045 360.856 109.598 363.618 107.376C366.247 105.26 369.431 104.099 373.32 103.833C374.176 103.773 376.439 103.81 377.35 103.897Z" fill="white"/>
<path d="M603.106 89.8147C597.138 90.0488 592.374 91.2835 588.237 93.6658C584.385 95.8828 581.71 98.7654 580.231 102.3C578.522 106.371 578.353 111.686 579.795 115.909C581.206 120.05 584.092 123.662 588.471 126.779C591.164 128.693 593.972 130.198 598.136 131.943C602.96 133.967 606.633 135.876 608.644 137.391C610.142 138.525 611.104 139.686 611.741 141.146C612.583 143.074 612.707 145.708 612.029 147.503C611.727 148.311 611.351 148.889 610.715 149.527C609.459 150.785 607.7 151.487 604.984 151.822C604.178 151.919 601.746 151.96 600.701 151.891C596.693 151.625 593.249 150.652 589.731 148.793C588.334 148.054 587.193 147.301 585.352 145.91L585.187 145.782L584.564 147.173C582.319 152.185 579.127 159.378 579.127 159.41C579.127 159.46 580.844 160.355 582.47 161.154C586.369 163.064 589.406 164.188 592.177 164.739C594.989 165.299 598.503 165.551 602.717 165.505C604.925 165.482 605.525 165.45 607.206 165.285C614.622 164.555 620.609 162.04 624.727 157.923C627.864 154.783 629.619 150.996 630.136 146.241C630.232 145.337 630.269 143.11 630.205 142.133C629.962 138.52 629.069 135.518 627.402 132.723C625.441 129.432 622.427 126.714 618.048 124.282C616.161 123.235 614.516 122.482 611.191 121.156C606.157 119.145 602.698 117.53 600.523 116.166C598.471 114.886 597.211 113.389 596.753 111.686C596.634 111.237 596.588 110.002 596.67 109.346C596.872 107.679 597.431 106.491 598.471 105.49C600.06 103.971 602.616 103.291 606.381 103.388C612.423 103.544 616.99 104.971 620.558 107.822C620.879 108.079 621.149 108.281 621.158 108.267C621.172 108.258 621.447 107.514 621.777 106.624C622.106 105.729 623.197 102.768 624.2 100.041C625.203 97.3149 626.032 95.052 626.041 95.0152C626.055 94.9418 625.835 94.8225 624.676 94.2671C620.073 92.0776 615.057 90.6501 609.95 90.0855C607.829 89.8468 605.03 89.7366 603.106 89.8147Z" fill="white"/>
<path d="M416.639 91.0768C416.666 91.109 417.537 92.3024 418.576 93.7299C419.621 95.1574 421.65 97.9345 423.088 99.9036C424.527 101.873 426.785 104.962 428.104 106.766C429.423 108.57 431.256 111.081 432.181 112.343C439.844 122.827 442.373 126.288 442.414 126.356C442.437 126.393 441.809 127.27 440.669 128.807C438.905 131.185 437.526 133.044 434.975 136.487C434.247 137.469 433.079 139.039 432.387 139.975C431.695 140.907 430.376 142.683 429.46 143.923C428.544 145.157 427.11 147.09 426.276 148.214C425.443 149.339 424.444 150.679 424.064 151.198C423.679 151.717 421.481 154.677 419.177 157.785C416.872 160.888 414.848 163.623 414.674 163.853L414.362 164.28H424.458H434.554L438.278 159.199C440.325 156.399 442.913 152.873 444.022 151.359C445.13 149.844 447.462 146.668 449.193 144.299C450.929 141.931 452.363 140.003 452.386 140.007C452.404 140.017 452.821 140.567 453.307 141.237C454.484 142.849 463.448 155.109 469.146 162.903L470.136 164.257L480.474 164.271L490.808 164.28L487.913 160.392C485.481 157.119 476.585 145.167 468.913 134.857C467.85 133.43 466.197 131.208 465.239 129.923C464.282 128.633 463.265 127.27 462.981 126.889L462.468 126.191L463.439 124.869C464.772 123.042 466.462 120.738 469.604 116.451C471.075 114.445 473.351 111.333 474.666 109.543C475.981 107.748 478.138 104.806 479.457 103.002C480.781 101.198 483.291 97.7738 485.032 95.3961C486.777 93.0139 488.202 91.0585 488.202 91.0447C488.202 91.0309 483.836 91.0218 478.505 91.0218L468.803 91.0263L467.035 93.3994C466.059 94.703 463.352 98.3338 461.016 101.464C458.68 104.595 455.817 108.432 454.653 109.988C453.494 111.549 452.533 112.82 452.519 112.82C452.505 112.82 448.827 107.918 444.342 101.923L436.189 91.0263H426.391C418.563 91.0218 416.607 91.0355 416.639 91.0768Z" fill="white"/>
<path d="M500.844 115.152C500.844 138.511 500.853 140.365 500.981 142.178C501.206 145.291 501.751 148.192 502.584 150.739C503.116 152.346 504.073 154.416 504.898 155.733C507.834 160.429 512.378 163.444 518.479 164.757C521.095 165.317 523.692 165.551 526.715 165.505C528.712 165.473 529.88 165.363 531.832 165.01C535.734 164.303 540.439 162.715 543.672 161.012C545.079 160.268 546.508 159.359 547.474 158.588L548.001 158.17L548.015 161.223L548.024 164.28H556.59H565.156V127.651V91.0218H556.59H548.024V116.309V141.596L547.69 142.257C547.071 143.491 546.393 144.395 545.234 145.557C544.19 146.599 543.155 147.416 541.785 148.279C538.73 150.193 535.629 151.221 532.106 151.478C531.245 151.542 528.992 151.501 528.305 151.409C526.097 151.115 524.434 150.551 522.991 149.605C520.687 148.095 519.189 145.736 518.461 142.477C518.314 141.807 518.181 141.031 518.081 140.182C518.007 139.558 517.998 138.038 517.975 115.28L517.952 91.0447L509.4 91.031L500.844 91.0218V115.152Z" fill="white"/>
<path d="M162.04 96.0478C162.168 96.1396 162.351 96.2727 162.452 96.3508C162.553 96.4242 162.708 96.5344 162.8 96.594C163.176 96.8465 164.843 98.5127 165.081 98.8707C165.118 98.935 165.219 99.0589 165.301 99.1461C165.379 99.2334 165.503 99.3848 165.576 99.4766C165.645 99.5684 165.819 99.7933 165.961 99.9815C166.419 100.578 167.019 101.368 167.491 101.987L167.949 102.598L172.667 102.575C175.264 102.561 177.49 102.538 177.614 102.52C178.076 102.469 178.14 102.451 178.14 102.368C178.136 102.272 178.072 102.162 177.852 101.873C177.756 101.749 177.582 101.519 177.462 101.368C176.537 100.161 174.311 97.6268 173.372 96.7134C173.056 96.4104 172.79 96.2314 172.415 96.08C172.053 95.9285 171.187 95.9055 166.322 95.8964L161.811 95.8826L162.04 96.0478Z" fill="white"/>
<path d="M205.532 96.943C205.532 96.9568 205.601 97.0073 205.683 97.0578C206.425 97.4938 207.703 98.7653 209.073 100.431C209.293 100.698 209.549 101.005 209.646 101.115C209.737 101.23 209.907 101.446 210.021 101.597C210.136 101.753 210.273 101.928 210.319 101.988C210.369 102.047 210.484 102.185 210.571 102.29C210.658 102.396 210.85 102.644 211.001 102.837L211.272 103.186H215.385C217.753 103.186 219.503 103.167 219.503 103.144C219.503 103.108 219.283 102.818 218.669 102.038C218.559 101.9 218.381 101.662 218.266 101.51C217.497 100.473 216.388 99.2885 215.587 98.6368C215.225 98.3476 214.652 97.9896 214.364 97.8748C214.254 97.8335 214.125 97.7692 214.07 97.7371C213.951 97.6591 213.388 97.4663 213.026 97.3837C212.389 97.2276 211.757 97.1542 210.571 97.0853C210.154 97.0624 209.426 97.021 208.945 96.9935C208.01 96.9384 205.532 96.9017 205.532 96.943Z" fill="white"/>
<path d="M202.839 115.29C202.743 115.308 202.734 115.331 202.757 115.478C202.798 115.762 202.871 117.02 202.88 117.658C202.894 118.278 202.954 118.842 203.004 118.833C203.05 118.829 204.035 117.754 204.731 116.956C205.285 116.322 205.991 115.423 205.991 115.349C205.991 115.331 205.894 115.303 205.78 115.285C205.542 115.253 203.009 115.257 202.839 115.29Z" fill="white"/>
<path d="M162.429 130.221C162.025 130.29 161.755 130.354 160.94 130.566C160.486 130.685 160.06 130.79 159.987 130.804C159.918 130.818 159.85 130.846 159.836 130.868C159.822 130.891 159.776 130.91 159.731 130.91C159.644 130.91 159.222 131.029 159.062 131.098C158.929 131.153 157.408 131.621 157.17 131.676C157.115 131.69 157.056 131.718 157.042 131.741C157.028 131.764 156.959 131.782 156.891 131.782C156.822 131.782 156.749 131.8 156.726 131.819C156.698 131.842 156.506 131.915 156.291 131.984C156.075 132.053 155.86 132.126 155.81 132.145C155.759 132.167 155.626 132.209 155.512 132.241C155.397 132.273 154.976 132.411 154.573 132.548C154.17 132.686 153.707 132.847 153.542 132.897C153.377 132.952 152.855 133.127 152.374 133.283C151.898 133.444 151.114 133.696 150.633 133.847C150.157 133.999 149.727 134.141 149.685 134.169C149.639 134.192 149.566 134.215 149.52 134.215C149.475 134.215 149.42 134.233 149.392 134.256C149.369 134.279 149.25 134.329 149.122 134.366C147.881 134.752 147.23 134.963 147.171 134.995C147.129 135.018 146.795 135.128 146.433 135.243C146.071 135.353 145.434 135.564 145.022 135.706C144.605 135.849 144.225 135.977 144.175 135.991C144.124 136 144.042 136.028 143.992 136.051C143.941 136.074 143.776 136.124 143.625 136.165C143.474 136.207 143.309 136.262 143.259 136.28C143.208 136.299 142.943 136.39 142.663 136.482C142.388 136.574 142.118 136.67 142.068 136.689C141.907 136.762 141.504 136.877 141.417 136.877C141.367 136.877 141.312 136.895 141.289 136.918C141.262 136.941 140.996 137.033 140.694 137.125C140.391 137.217 140.103 137.313 140.052 137.336C139.919 137.396 139.507 137.529 138.655 137.795C138.238 137.923 137.785 138.075 137.647 138.125C137.51 138.176 137.075 138.314 136.686 138.438C135.714 138.74 135.266 138.887 135.105 138.961C135.032 138.993 134.67 139.112 134.304 139.222C133.937 139.328 133.63 139.434 133.617 139.452C133.603 139.475 133.502 139.502 133.397 139.521C133.291 139.539 133.191 139.571 133.177 139.59C133.163 139.613 133.113 139.631 133.062 139.631C133.016 139.631 132.934 139.649 132.884 139.677C132.833 139.7 132.751 139.741 132.7 139.769C132.65 139.792 132.568 139.815 132.522 139.815C132.471 139.815 132.416 139.833 132.403 139.86C132.389 139.883 132.32 139.906 132.256 139.906C132.192 139.906 132.077 139.934 132 139.971C131.917 140.003 131.67 140.09 131.441 140.159C131.216 140.228 130.987 140.306 130.937 140.324C130.845 140.365 130.071 140.613 127.639 141.398C126.883 141.641 125.935 141.954 125.532 142.087C125.129 142.22 124.551 142.408 124.249 142.5C123.947 142.592 123.631 142.697 123.548 142.734C123.466 142.771 123.361 142.798 123.319 142.798C123.274 142.798 123.219 142.816 123.191 142.839C123.168 142.862 123.049 142.908 122.921 142.95C121.821 143.285 121.579 143.363 121.501 143.395C121.45 143.418 121.276 143.482 121.111 143.533C120.947 143.588 120.772 143.652 120.722 143.67C120.672 143.693 120.507 143.744 120.356 143.785C120.204 143.826 120.04 143.881 119.989 143.9C119.939 143.923 119.774 143.973 119.623 144.019C119.472 144.06 119.307 144.111 119.256 144.129C119.055 144.212 117.74 144.639 116.948 144.887C116.48 145.029 116.068 145.167 116.032 145.19C115.99 145.213 115.496 145.373 114.928 145.552C114.36 145.727 113.691 145.942 113.439 146.03C113.187 146.117 112.825 146.232 112.637 146.287C112.45 146.337 112.257 146.401 112.216 146.429C112.17 146.452 112.097 146.47 112.056 146.47C112.01 146.47 111.914 146.502 111.845 146.539C111.721 146.603 110.695 146.938 110.425 147.003C110.356 147.016 110.287 147.049 110.274 147.072C110.26 147.094 110.205 147.113 110.15 147.113C110.049 147.113 109.719 147.214 109.454 147.319C109.33 147.374 108.212 147.732 107.599 147.921C107.168 148.054 106.527 148.27 106.385 148.329C106.312 148.357 106.073 148.439 105.858 148.504C105.043 148.751 104.09 149.054 104.026 149.091C103.989 149.114 103.494 149.275 102.926 149.449C102.358 149.624 101.639 149.853 101.323 149.959C99.0604 150.702 97.9427 151.06 97.8832 151.06C97.8557 151.06 97.7091 151.111 97.5534 151.17C97.3976 151.23 97.1274 151.327 96.9487 151.377C96.7747 151.432 96.5869 151.492 96.5365 151.515C96.4036 151.57 96.1471 151.643 95.9776 151.68C95.8952 151.698 95.8173 151.73 95.8036 151.753C95.7853 151.776 95.7166 151.795 95.6433 151.795C95.57 151.795 95.5013 151.813 95.4875 151.836C95.4738 151.859 95.4142 151.887 95.3593 151.9C95.1165 151.955 94.5577 152.13 94.3607 152.208C94.2462 152.254 94.0309 152.327 93.8797 152.368C93.7286 152.41 93.4308 152.506 93.2155 152.575C93.0002 152.644 92.643 152.759 92.4139 152.832C92.1895 152.901 91.9696 152.974 91.933 152.993C91.8688 153.025 91.3192 153.199 90.261 153.521C90.0366 153.589 89.8396 153.658 89.8259 153.677C89.8121 153.69 89.5373 153.782 89.2075 153.879C88.4105 154.117 87.6776 154.347 87.5356 154.402C87.4119 154.452 86.3904 154.778 85.9782 154.898C85.8408 154.939 85.685 154.989 85.6346 155.008C85.5842 155.031 85.3048 155.123 85.0162 155.214C84.7277 155.302 84.4482 155.393 84.3979 155.416C84.3475 155.439 84.1734 155.49 84.0085 155.536C83.8436 155.577 83.6741 155.632 83.6329 155.655C83.5871 155.678 83.5184 155.696 83.4817 155.696C83.4451 155.696 83.3764 155.715 83.3306 155.738C83.2894 155.765 83.0695 155.839 82.8405 155.907C82.616 155.972 82.3366 156.064 82.2221 156.109C82.1076 156.155 81.8923 156.229 81.7411 156.27C81.5899 156.316 81.3518 156.389 81.2143 156.431C81.0769 156.477 80.6967 156.601 80.3669 156.706C80.0417 156.812 79.7302 156.913 79.6798 156.936C79.6294 156.959 79.4142 157.027 79.1989 157.096C78.9836 157.161 78.3057 157.381 77.6873 157.578C77.0689 157.776 76.423 157.982 76.2444 158.037C76.0703 158.088 75.8825 158.147 75.8321 158.17C75.7817 158.189 75.626 158.244 75.4886 158.285C75.3512 158.326 75.1634 158.391 75.0763 158.427C74.9893 158.46 74.7832 158.528 74.6183 158.579C73.7663 158.841 73.2074 159.02 73.0838 159.075C73.0105 159.107 72.8914 159.148 72.8181 159.162C72.7494 159.18 72.6807 159.212 72.6669 159.235C72.6532 159.258 72.6074 159.277 72.5707 159.277C72.4791 159.277 71.7691 159.492 71.563 159.58C71.4851 159.616 71.3889 159.644 71.3477 159.644C71.3111 159.644 71.2332 159.662 71.1736 159.685C71.1141 159.708 70.9446 159.772 70.7934 159.827C70.6423 159.882 70.4545 159.961 70.372 159.993C70.2942 160.029 70.2071 160.057 70.1842 160.057C70.1018 160.057 68.952 160.649 68.8146 160.759C68.7459 160.819 68.5719 160.938 68.4344 161.03C68.1184 161.237 67.4588 161.847 67.1015 162.265C66.6709 162.76 65.9792 163.931 65.6677 164.679C65.599 164.84 65.4754 165.12 65.3837 165.299C65.2967 165.482 65.1364 165.84 65.0356 166.093C64.9303 166.345 64.7791 166.708 64.6921 166.896C64.605 167.084 64.4218 167.52 64.2844 167.86C64.147 168.2 64.005 168.544 63.9683 168.617C63.9317 168.695 63.8401 168.92 63.7622 169.122C63.6843 169.324 63.5836 169.563 63.5423 169.65C63.5011 169.737 63.4645 169.82 63.4645 169.834C63.4553 169.889 63.1896 170.573 63.0751 170.821C63.0064 170.972 62.9331 171.147 62.9148 171.211C62.8965 171.275 62.8644 171.344 62.8461 171.372C62.8323 171.394 62.7774 171.518 62.7362 171.647C62.6903 171.771 62.6262 171.936 62.5942 172.014C62.5621 172.088 62.4751 172.308 62.3972 172.496C62.3193 172.684 62.2277 172.918 62.1865 173.01C62.1453 173.107 62.1132 173.194 62.1132 173.208C62.1132 173.221 62.0857 173.29 62.0491 173.364C62.0124 173.432 61.8979 173.708 61.7971 173.97C61.7009 174.231 61.5818 174.53 61.536 174.63C61.4902 174.731 61.4536 174.823 61.449 174.837C61.4444 174.851 61.4078 174.943 61.362 175.044C61.3162 175.145 61.1879 175.466 61.078 175.755C60.9635 176.044 60.826 176.384 60.7665 176.512C60.7069 176.636 60.5604 176.999 60.4413 177.316C60.3222 177.632 60.2031 177.908 60.1802 177.931C60.1619 177.958 60.1435 178.004 60.1435 178.036C60.1435 178.068 60.1023 178.183 60.0565 178.293C60.0061 178.399 59.8595 178.752 59.7313 179.083C59.5984 179.409 59.4748 179.73 59.4473 179.794C59.4198 179.859 59.3786 179.96 59.3557 180.024C59.3282 180.088 59.2824 180.198 59.2457 180.276C59.2137 180.35 59.1129 180.588 59.0304 180.804C58.9434 181.02 58.8518 181.245 58.8243 181.309C58.7968 181.373 58.6915 181.64 58.5861 181.906C58.4853 182.172 58.3617 182.47 58.3113 182.571C58.2655 182.672 58.1097 183.053 57.9677 183.421C57.8257 183.788 57.6746 184.155 57.6334 184.242C57.5921 184.329 57.5555 184.412 57.5509 184.426C57.5509 184.44 57.5188 184.527 57.4822 184.614C57.441 184.701 57.3127 185.032 57.189 185.348C57.0699 185.665 56.9554 185.94 56.9325 185.968C56.9142 185.991 56.7722 186.344 56.6165 186.748C56.4561 187.152 56.2821 187.598 56.2271 187.735C56.1676 187.873 56.0485 188.171 55.9523 188.401C55.8607 188.626 55.7232 188.952 55.65 189.126C55.5767 189.296 55.5171 189.457 55.5171 189.484C55.5171 189.507 55.4667 189.64 55.4072 189.769C55.169 190.287 55.0591 190.549 55.0591 190.586C55.0591 190.609 55.0087 190.737 54.9445 190.875C54.8804 191.013 54.83 191.15 54.83 191.173C54.83 191.201 54.8071 191.26 54.7842 191.306C54.7567 191.348 54.6651 191.559 54.5827 191.775C54.4956 191.99 54.2666 192.546 54.0742 193.014C53.8818 193.482 53.5704 194.253 53.3825 194.726C53.1947 195.203 53.0024 195.672 52.952 195.768C52.8833 195.906 52.8741 195.952 52.9199 195.988C52.952 196.016 53.2635 196.163 53.6162 196.319C56.2638 197.498 58.7922 198.169 61.8842 198.508C62.5484 198.582 65.1639 198.591 102.262 198.6L141.935 198.614L142.081 198.123C142.164 197.847 142.324 197.296 142.439 196.892C142.553 196.489 142.659 196.126 142.677 196.089C142.709 195.997 142.865 195.451 142.892 195.323C142.906 195.263 142.975 195.029 143.048 194.795C143.121 194.561 143.227 194.212 143.282 194.024C143.337 193.835 143.401 193.638 143.419 193.588C143.456 193.505 143.524 193.23 143.529 193.142C143.534 193.129 143.547 193.096 143.57 193.078C143.589 193.06 143.602 192.995 143.602 192.936C143.602 192.876 143.621 192.794 143.643 192.748C143.698 192.647 144.01 191.609 144.289 190.599C144.408 190.168 144.528 189.778 144.555 189.727C144.578 189.681 144.601 189.626 144.605 189.603C144.615 189.507 144.67 189.3 144.729 189.14C144.766 189.043 144.825 188.846 144.862 188.704C144.954 188.327 145.183 187.519 145.389 186.863C145.485 186.546 145.673 185.908 145.801 185.44C145.929 184.972 146.053 184.55 146.076 184.499C146.094 184.449 146.144 184.293 146.186 184.155C146.511 183.003 146.584 182.741 146.607 182.645C146.621 182.585 146.653 182.489 146.68 182.438C146.708 182.383 146.726 182.337 146.722 182.328C146.703 182.31 146.763 182.03 146.809 181.929C146.845 181.837 146.955 181.474 147.106 180.919C147.152 180.767 147.203 180.611 147.221 180.575C147.239 180.533 147.271 180.432 147.294 180.345C147.313 180.258 147.331 180.175 147.335 180.162C147.34 180.148 147.358 180.074 147.377 180.001C147.395 179.923 147.427 179.822 147.45 179.771C147.473 179.721 147.546 179.473 147.61 179.221C147.679 178.968 147.752 178.739 147.78 178.706C147.803 178.674 147.812 178.633 147.798 178.61C147.784 178.587 147.803 178.514 147.839 178.445C147.876 178.376 147.922 178.243 147.94 178.151C147.981 177.949 147.977 177.954 148.009 177.867C148.091 177.646 148.458 176.31 148.458 176.237C148.458 176.2 148.481 176.168 148.504 176.168C148.531 176.168 148.549 176.131 148.549 176.086C148.549 176.044 148.581 175.925 148.613 175.824C148.65 175.723 148.691 175.576 148.705 175.503C148.746 175.278 149.191 173.717 149.241 173.634C149.278 173.561 149.557 172.57 149.814 171.601C149.873 171.372 149.946 171.147 149.969 171.096C149.997 171.046 150.13 170.6 150.272 170.109C150.409 169.618 150.56 169.081 150.611 168.916C150.711 168.567 150.995 167.64 151.037 167.539C151.05 167.502 151.078 167.406 151.096 167.332C151.114 167.254 151.137 167.172 151.142 167.149C151.151 167.121 151.169 167.038 151.188 166.965C151.201 166.887 151.229 166.786 151.252 166.736C151.27 166.685 151.362 166.373 151.458 166.047C151.55 165.717 151.641 165.409 151.664 165.358C151.682 165.308 151.724 165.184 151.751 165.083C151.774 164.982 151.815 164.849 151.834 164.785C151.852 164.72 151.87 164.647 151.875 164.624C152.104 163.784 152.351 162.944 152.447 162.682C152.493 162.554 152.534 162.43 152.539 162.407C152.544 162.389 152.553 162.352 152.557 162.329C152.567 162.301 152.626 162.077 152.695 161.824C152.763 161.572 152.892 161.117 152.979 160.814C153.066 160.511 153.144 160.241 153.148 160.218C153.157 160.19 153.171 160.14 153.185 160.103C153.212 160.034 153.469 159.13 153.638 158.519C153.689 158.34 153.748 158.115 153.776 158.014C153.803 157.913 153.84 157.799 153.854 157.762C153.867 157.725 153.881 157.67 153.89 157.647C153.899 157.62 153.977 157.363 154.064 157.073C154.151 156.784 154.257 156.412 154.298 156.247C154.335 156.082 154.39 155.907 154.412 155.857C154.449 155.765 154.518 155.49 154.504 155.49C154.5 155.49 154.527 155.407 154.573 155.306C154.614 155.205 154.738 154.801 154.848 154.411C155.132 153.401 155.356 152.63 155.434 152.391C155.494 152.208 155.571 151.955 155.695 151.496C155.718 151.418 155.791 151.18 155.855 150.964C155.92 150.748 155.984 150.542 155.988 150.505C156.016 150.363 156.075 150.151 156.153 149.913C156.199 149.775 156.272 149.536 156.313 149.385C156.355 149.233 156.41 149.059 156.428 148.995C156.451 148.931 156.575 148.499 156.703 148.031C156.831 147.563 156.973 147.067 157.023 146.929C157.069 146.792 157.257 146.149 157.436 145.506C157.614 144.864 157.775 144.295 157.798 144.244C157.843 144.143 157.898 143.959 158.123 143.165C158.201 142.876 158.288 142.601 158.311 142.559C158.333 142.514 158.352 142.436 158.352 142.39C158.352 142.339 158.393 142.188 158.439 142.055C158.54 141.779 158.714 141.215 158.833 140.778C158.879 140.613 158.943 140.388 158.979 140.274C159.016 140.159 159.057 140.035 159.066 139.998C159.076 139.961 159.103 139.847 159.131 139.746C159.158 139.645 159.195 139.512 159.208 139.447C159.222 139.383 159.25 139.31 159.268 139.287C159.295 139.245 159.392 138.956 159.804 137.634C159.964 137.106 160.06 136.849 160.285 136.285C160.358 136.101 160.427 135.908 160.436 135.867C160.477 135.661 160.94 134.807 161.16 134.536C161.453 134.173 161.549 134.109 162.589 133.572L163.413 133.145L163.922 133.2C164.201 133.228 164.82 133.251 165.296 133.251C165.768 133.251 166.377 133.274 166.643 133.297C166.908 133.324 167.907 133.365 168.864 133.393C170.719 133.444 171.837 133.485 173.559 133.567C174.15 133.595 175.222 133.641 175.941 133.664C178.365 133.746 179.853 133.802 180.614 133.847C181.03 133.875 181.681 133.893 182.056 133.893C182.437 133.893 182.876 133.912 183.041 133.935C183.206 133.958 184.063 133.994 184.942 134.008C185.826 134.026 186.651 134.059 186.779 134.072C186.903 134.091 187.411 134.114 187.901 134.118C188.391 134.127 188.872 134.141 188.973 134.15C189.074 134.16 189.651 134.183 190.256 134.21C190.86 134.233 192.633 134.306 194.195 134.371C195.757 134.44 197.53 134.513 198.134 134.536C198.739 134.554 199.339 134.586 199.463 134.6C199.591 134.614 200.113 134.637 200.631 134.651C201.148 134.664 201.684 134.683 201.822 134.692C201.959 134.706 202.619 134.724 203.288 134.743C203.956 134.756 204.625 134.779 204.776 134.788C205.17 134.816 205.981 134.848 207.685 134.903C208.505 134.931 209.632 134.972 210.195 134.995C212.55 135.096 214.13 135.032 214.588 134.807C215.151 134.536 215.321 133.457 214.867 133.035C214.748 132.925 214.469 132.838 214.226 132.838C214.134 132.838 214.011 132.819 213.951 132.796C213.892 132.773 213.635 132.741 213.388 132.727C213.136 132.709 212.485 132.668 211.945 132.631C211.404 132.594 210.745 132.548 210.479 132.535C210.213 132.521 209.824 132.493 209.609 132.466C209.394 132.443 209.018 132.424 208.766 132.424C208.519 132.424 208.189 132.402 208.033 132.379C207.882 132.351 207.227 132.31 206.586 132.282C204.048 132.172 203.306 132.131 201.455 132.011C201.066 131.988 200.315 131.947 199.783 131.92C199.257 131.897 198.68 131.865 198.501 131.851C198.185 131.819 197.136 131.764 195.615 131.695C193.311 131.589 192.473 131.548 191.767 131.506C191.341 131.479 190.732 131.451 190.416 131.438C190.1 131.428 189.472 131.396 189.019 131.369C188.566 131.346 187.723 131.305 187.141 131.277C186.014 131.226 185.693 131.213 184.37 131.13C183.902 131.103 183.16 131.066 182.721 131.047C180.275 130.951 179.23 130.905 178.552 130.864C178.135 130.841 177.558 130.809 177.27 130.795C176.981 130.786 176.514 130.763 176.239 130.749C175.96 130.735 175.231 130.708 174.613 130.68C173.995 130.653 173.266 130.625 172.987 130.611C172.712 130.598 171.979 130.57 171.361 130.543C168.731 130.437 167.971 130.4 167.559 130.359C167.321 130.336 166.835 130.304 166.482 130.29C166.13 130.276 165.452 130.249 164.971 130.221C163.958 130.171 162.726 130.171 162.429 130.221Z" fill="white"/>
</svg>
