<svg width="2039" height="720" viewBox="0 0 2039 720" fill="none" xmlns="http://www.w3.org/2000/svg">
<rect x="0.5" y="0.5" width="2038" height="719" stroke="black"/>
<path d="M679.146 119.275C677.65 119.628 675.76 120.186 674.931 120.499C672.402 121.451 669.656 122.552 669.289 122.743C668.922 122.947 667.277 123.667 665.89 124.239C665.401 124.443 664.368 124.905 663.579 125.286C662.791 125.667 661.717 126.143 661.186 126.347C660.656 126.564 659.65 126.999 658.943 127.339C658.236 127.666 657.421 128.02 657.122 128.115C656.822 128.21 656.156 128.496 655.626 128.74C653.668 129.665 652.295 130.277 651.126 130.767C650.46 131.052 649.454 131.488 648.896 131.746C648.339 132.004 646.925 132.616 645.77 133.106C644.614 133.596 643.173 134.221 642.575 134.507C641.977 134.792 640.739 135.336 639.828 135.717C638.931 136.098 637.952 136.52 637.653 136.669C637.368 136.819 636.158 137.349 634.961 137.853C633.765 138.342 632.732 138.805 632.65 138.859C632.582 138.913 632.052 139.158 631.495 139.389C630.937 139.621 630.298 139.906 630.067 140.015C629.591 140.233 628.069 140.885 625.581 141.933C624.616 142.354 623.297 142.939 622.658 143.238C622.019 143.537 620.578 144.177 619.463 144.639C618.335 145.115 616.798 145.782 616.064 146.135C615.316 146.489 614.487 146.856 614.229 146.951C613.971 147.046 612.992 147.482 612.054 147.903C611.116 148.338 609.525 149.046 608.519 149.467C603.394 151.67 602.156 152.214 601.681 152.473C601.395 152.622 600.933 152.826 600.661 152.935C600.389 153.03 599.029 153.615 597.643 154.227C596.256 154.839 594.298 155.696 593.292 156.131C592.286 156.567 590.927 157.165 590.288 157.478C589.635 157.777 588.561 158.253 587.909 158.525C587.242 158.797 586.032 159.327 585.203 159.708C584.387 160.075 583.096 160.647 582.348 160.959C581.6 161.286 580.132 161.925 579.085 162.401L577.182 163.271L381.548 163.339C197.497 163.407 185.791 163.435 183.834 163.652C173.896 164.768 166.391 166.808 158.125 170.602C141.566 178.218 127.659 192.254 120.072 209.037C116.375 217.21 114.254 225.357 113.356 234.809C113.207 236.373 113.18 261.642 113.18 376.048C113.18 509.073 113.193 515.492 113.424 517.763C114.43 527.637 116.891 536.382 121.065 544.896C126.204 555.409 133.939 564.888 143.307 572.192C144.054 572.777 144.734 573.253 144.802 573.253C144.87 573.253 144.924 573.157 144.924 573.049C144.924 572.872 145.604 571.24 146.216 569.921C146.325 569.689 146.665 568.873 146.977 568.085C147.29 567.296 147.657 566.398 147.793 566.085C147.942 565.759 148.051 565.473 148.051 565.419C148.051 565.378 148.201 565.024 148.378 564.644C148.568 564.249 149.098 562.984 149.56 561.828C150.023 560.672 150.852 558.592 151.409 557.204C152.266 555.055 152.755 553.899 153.353 552.512C153.421 552.363 153.775 551.479 154.155 550.54C155.175 547.915 157.717 541.673 158.044 540.952C158.397 540.15 158.683 539.442 158.873 538.844C158.995 538.504 159.226 537.905 159.417 537.511C159.594 537.117 159.743 536.763 159.743 536.736C159.743 536.709 159.893 536.355 160.069 535.961C160.246 535.566 160.518 534.927 160.668 534.56C160.817 534.179 161.225 533.173 161.578 532.316C161.932 531.459 162.639 529.677 163.155 528.372C163.672 527.066 164.189 525.828 164.297 525.638C164.488 525.298 164.909 524.21 165.725 521.966C165.942 521.395 166.255 520.592 166.445 520.198C166.622 519.79 166.948 519.028 167.139 518.511C167.343 517.981 167.56 517.437 167.628 517.287C167.751 517.002 167.927 516.512 167.968 516.403C167.982 516.363 168.09 516.104 168.213 515.805C168.335 515.519 168.444 515.234 168.444 515.179C168.444 515.098 168.77 514.35 169.532 512.663C169.6 512.514 169.967 511.616 170.347 510.65C170.714 509.698 171.081 508.814 171.149 508.678C171.448 508.08 171.884 507.046 172.074 506.489C172.264 505.89 172.862 504.435 173.257 503.551C174.004 501.905 174.154 501.565 174.154 501.497C174.154 501.334 175.377 498.356 175.717 497.703C175.908 497.322 176.057 496.969 176.057 496.914C176.057 496.86 176.18 496.533 176.329 496.221C176.479 495.894 176.873 494.929 177.199 494.085C177.702 492.793 179.13 489.434 179.592 488.455C179.66 488.305 179.85 487.843 180 487.435C180.163 487.027 180.367 486.564 180.462 486.415C180.544 486.265 180.802 485.707 181.006 485.191C181.21 484.66 181.495 483.994 181.631 483.695C181.767 483.395 182.161 482.539 182.488 481.791C182.828 481.043 183.222 480.159 183.371 479.819C183.521 479.479 183.806 478.812 184.01 478.323C186.104 473.263 190.604 467.918 195.961 464.124C196.695 463.593 199.115 462.342 200.025 462.016C200.406 461.866 201.657 461.431 202.772 461.037C203.9 460.656 204.879 460.289 204.947 460.234C205.029 460.18 206.062 459.813 207.258 459.418C209.596 458.656 210.766 458.248 211.201 458.044C211.445 457.936 214.178 457.052 216.027 456.467C216.435 456.344 216.829 456.195 216.897 456.127C216.979 456.072 217.196 456.018 217.386 456.018C217.577 456.018 217.794 455.964 217.876 455.896C217.944 455.841 218.556 455.61 219.222 455.406C219.902 455.188 220.5 454.971 220.568 454.903C220.649 454.848 220.812 454.794 220.948 454.794C221.084 454.794 221.302 454.74 221.438 454.672C221.56 454.604 222.036 454.454 222.485 454.318C222.933 454.196 223.45 454.019 223.64 453.951C223.831 453.869 224.442 453.665 225 453.488C225.557 453.298 226.21 453.067 226.427 452.972C226.658 452.876 227.148 452.713 227.515 452.618C227.896 452.536 228.317 452.4 228.467 452.346C228.616 452.278 229.541 451.979 230.506 451.666C231.485 451.353 232.464 451.013 232.681 450.918C233.252 450.673 239.044 448.81 239.247 448.81C239.329 448.81 239.411 448.742 239.411 448.674C239.411 448.592 239.479 448.538 239.574 448.538C239.737 448.538 244.55 446.987 245.053 446.77C245.202 446.715 245.556 446.566 245.855 446.471L246.385 446.267L245.977 445.981C245.76 445.831 244.794 445.355 243.829 444.934C242.85 444.512 241.667 443.995 241.178 443.778C240.689 443.56 239.655 443.139 238.867 442.826C237.48 442.268 236.936 442.023 233.293 440.255C231.009 439.154 228.072 437.603 227.243 437.059C226.876 436.814 226.047 436.284 225.408 435.89C222.39 434.026 219.752 431.673 217.944 429.225C216.965 427.906 215.619 425.445 215.089 423.989C214.912 423.541 214.722 423.064 214.654 422.942C214.586 422.806 214.532 422.575 214.532 422.439C214.532 422.289 214.477 422.14 214.409 422.099C214.355 422.058 214.246 421.759 214.192 421.446C214.124 421.12 214.056 420.766 214.028 420.657C214.001 420.548 213.947 420.208 213.906 419.909C213.865 419.61 213.784 419.243 213.716 419.093C213.457 418.468 213.24 415.544 213.267 412.905C213.281 410.076 213.553 407.302 214.028 405.153C214.056 405.044 214.124 404.69 214.192 404.364C214.246 404.051 214.355 403.752 214.409 403.711C214.477 403.67 214.532 403.466 214.532 403.262C214.532 403.058 214.586 402.841 214.654 402.773C214.722 402.691 214.844 402.392 214.939 402.093C215.238 401.154 216.544 398.693 217.278 397.727C219.181 395.184 221.669 393.103 224.388 391.757C224.837 391.525 225.231 391.308 225.244 391.24C225.272 391.185 225.353 391.145 225.421 391.145C225.476 391.145 225.856 390.995 226.251 390.805C226.645 390.628 228.29 389.989 229.894 389.377C231.498 388.778 232.939 388.234 233.089 388.166C233.238 388.112 234.068 387.84 234.924 387.554C236.311 387.105 238.581 386.303 239.343 385.976C239.492 385.922 239.954 385.759 240.362 385.636C240.77 385.514 241.205 385.378 241.314 385.337C241.613 385.215 244.645 384.14 245.664 383.787C246.154 383.624 246.738 383.406 246.956 383.324C247.187 383.229 248.166 382.889 249.131 382.576C250.11 382.25 250.967 381.937 251.048 381.883C251.116 381.815 252.041 381.488 253.087 381.148C255.086 380.496 256.608 379.952 257.288 379.652C257.519 379.557 258.743 379.136 260.007 378.714C261.285 378.292 262.441 377.898 262.59 377.83C263.189 377.571 265.105 376.878 266.193 376.524C266.832 376.32 267.539 376.075 267.757 375.98C267.988 375.885 268.504 375.695 268.912 375.572C269.32 375.45 269.782 375.3 269.932 375.232C270.639 374.919 271.373 374.647 272.175 374.389C272.664 374.239 273.167 374.063 273.29 373.995C273.426 373.927 273.616 373.872 273.725 373.872C273.82 373.872 274.092 373.777 274.296 373.668C274.513 373.559 274.799 373.464 274.935 373.464C275.057 373.464 275.275 373.41 275.411 373.342C275.832 373.111 276.634 372.784 276.756 372.784C276.811 372.784 277.327 372.607 277.885 372.376C278.442 372.159 279.911 371.628 281.148 371.207C282.385 370.785 283.581 370.35 283.799 370.255C284.03 370.146 285.485 369.643 287.048 369.112C288.611 368.582 289.957 368.106 290.039 368.038C290.121 367.97 290.8 367.725 291.548 367.48C293.56 366.827 295.98 365.998 296.442 365.78C296.673 365.685 297.611 365.345 298.55 365.032C299.488 364.719 300.371 364.42 300.521 364.352C300.67 364.298 301.105 364.134 301.472 364.012C301.853 363.89 302.343 363.699 302.56 363.604C302.791 363.509 303.58 363.223 304.327 362.978C305.075 362.747 305.741 362.489 305.809 362.434C305.891 362.366 306.027 362.312 306.136 362.312C306.244 362.312 306.516 362.23 306.747 362.122C306.992 362.013 307.672 361.768 308.27 361.55C308.868 361.346 309.412 361.129 309.48 361.061C309.562 361.006 309.738 360.952 309.901 360.952C310.065 360.952 310.241 360.898 310.323 360.83C310.391 360.762 311.152 360.476 312.009 360.204C312.865 359.918 314.211 359.442 315 359.157C315.788 358.857 317.311 358.313 318.398 357.946C320.723 357.144 322.124 356.641 322.681 356.396C322.912 356.301 324.136 355.879 325.4 355.444C326.678 355.022 327.765 354.614 327.833 354.546C327.915 354.478 328.092 354.424 328.255 354.424C328.418 354.424 328.595 354.369 328.676 354.301C328.744 354.233 329.166 354.043 329.614 353.893C331.463 353.268 333.204 352.656 334.101 352.316C334.631 352.112 335.488 351.799 336.004 351.609C336.534 351.432 337.146 351.2 337.364 351.105C337.595 351.01 338.084 350.847 338.451 350.752C338.832 350.643 339.158 350.534 339.199 350.493C339.24 350.452 339.811 350.235 340.463 350.004C341.13 349.786 341.701 349.555 341.728 349.5C341.768 349.432 341.932 349.392 342.108 349.392C342.272 349.392 342.462 349.337 342.543 349.269C342.611 349.215 343.549 348.861 344.637 348.508C345.725 348.154 347.071 347.678 347.628 347.447C348.185 347.229 350.062 346.563 351.775 345.964C355.051 344.836 358.953 343.489 360.339 343C360.788 342.836 361.346 342.632 361.563 342.523C361.794 342.428 362.732 342.088 363.67 341.789C364.608 341.476 365.492 341.163 365.642 341.095C366.063 340.919 368.062 340.184 369.584 339.667C370.332 339.423 371.746 338.919 372.711 338.579C373.69 338.226 375.797 337.491 377.401 336.934C379.006 336.376 380.447 335.873 380.596 335.791C380.882 335.655 381.344 335.492 384.335 334.486C385.341 334.146 386.361 333.792 386.578 333.697C387.122 333.466 387.557 333.316 390.113 332.446C391.309 332.051 392.41 331.657 392.56 331.589C392.71 331.521 393.104 331.358 393.444 331.235C393.784 331.113 394.246 330.936 394.463 330.827C394.694 330.732 395.143 330.582 395.483 330.501C395.823 330.406 396.271 330.242 396.475 330.134C396.693 330.025 396.978 329.943 397.114 329.943C397.25 329.943 397.413 329.875 397.454 329.807C397.495 329.726 397.645 329.671 397.78 329.671C397.916 329.671 398.216 329.576 398.419 329.467C398.637 329.358 398.922 329.263 399.058 329.263C399.181 329.263 399.398 329.209 399.534 329.141C399.983 328.896 400.989 328.488 401.669 328.27C402.552 327.998 403.246 327.754 403.504 327.631C403.626 327.577 403.926 327.482 404.184 327.427C404.442 327.373 404.741 327.278 404.864 327.21C405.231 326.992 408.33 325.863 408.534 325.863C408.657 325.863 408.806 325.809 408.874 325.741C408.956 325.673 409.404 325.496 409.894 325.346C411.24 324.925 413.211 324.217 413.361 324.095C413.442 324.041 414.666 323.605 416.08 323.143C417.507 322.667 418.975 322.15 419.342 321.987C419.723 321.81 420.974 321.361 422.129 320.967C423.285 320.586 424.427 320.178 424.645 320.083C424.876 319.988 425.419 319.77 425.868 319.607C426.317 319.444 426.806 319.253 426.956 319.199C427.105 319.131 428.179 318.764 429.335 318.383C430.49 318.002 431.632 317.608 431.85 317.513C432.081 317.404 432.842 317.132 433.549 316.887C434.256 316.642 434.963 316.397 435.113 316.343C435.262 316.289 435.697 316.125 436.064 316.003C436.445 315.881 436.935 315.69 437.152 315.595C437.383 315.5 437.9 315.323 438.308 315.187C438.715 315.051 439.246 314.874 439.463 314.765C439.694 314.67 440.428 314.412 441.095 314.18C442.848 313.596 445.404 312.684 445.717 312.535C445.867 312.467 447.212 311.977 448.708 311.46C450.203 310.93 452.596 310.114 454.01 309.611C455.438 309.121 456.865 308.591 457.205 308.455C457.545 308.305 459.135 307.734 460.74 307.176C462.344 306.619 464.397 305.911 465.294 305.599C467.075 304.973 467.986 304.687 468.829 304.511C471.453 303.953 471.561 303.939 473.179 304.021C478.073 304.266 480.969 305.463 484.11 308.509C486.285 310.644 487.767 312.657 488.895 315.092C489.806 317.05 490.404 319.566 490.595 322.259C490.812 325.102 490.676 331.371 490.377 332.527C490.309 332.786 490.2 333.234 490.132 333.506C489.969 334.146 490.092 334.173 490.431 333.574C491.519 331.684 492.321 329.916 492.498 328.991C492.525 328.801 492.593 328.556 492.634 328.447C492.715 328.23 492.729 328.175 492.96 326.883C493.314 324.87 493.422 323.225 493.422 319.743C493.422 317.689 493.382 315.663 493.327 315.255C493.137 313.963 492.675 312.385 492.117 311.175C491.886 310.685 491.56 309.978 491.383 309.597C491.206 309.216 490.975 308.822 490.853 308.727C490.744 308.632 490.649 308.482 490.649 308.387C490.649 308.156 489.303 306.279 488.351 305.204C486.176 302.702 482.832 300.485 479.841 299.56C479.175 299.343 478.522 299.125 478.413 299.071C478.033 298.88 476.442 298.54 475.218 298.377C473.465 298.146 470.555 298.431 468.625 299.003C468.217 299.125 467.66 299.275 467.401 299.343C466.314 299.615 465.185 299.968 463.391 300.567C458.265 302.307 455.791 303.164 455.397 303.341C455.152 303.463 454.01 303.885 452.854 304.293C451.699 304.687 450.326 305.191 449.796 305.395C449.279 305.599 447.987 306.061 446.941 306.428C445.894 306.796 444.928 307.149 444.806 307.231C444.67 307.299 444.466 307.367 444.357 307.367C444.249 307.367 444.045 307.421 443.909 307.503C443.61 307.666 441.475 308.482 440.415 308.836C439.966 308.985 439.083 309.312 438.444 309.543C437.805 309.788 436.948 310.1 436.54 310.236C436.132 310.386 435.643 310.576 435.453 310.672C435.262 310.78 434.841 310.93 434.501 311.039C434.161 311.134 433.644 311.324 433.345 311.46C433.046 311.583 432.584 311.732 432.326 311.787C432.067 311.841 431.796 311.936 431.714 311.991C431.646 312.045 431.428 312.14 431.238 312.195C430.925 312.29 430.599 312.412 429.512 312.888C429.28 312.997 428.995 313.079 428.873 313.079C428.75 313.079 428.546 313.133 428.41 313.201C427.921 313.46 424.019 314.847 423.788 314.847C423.706 314.847 423.625 314.901 423.598 314.956C423.584 315.01 422.551 315.404 421.314 315.826C418.364 316.833 417.521 317.132 417.031 317.363C416.814 317.458 415.522 317.921 414.176 318.383C412.83 318.859 411.403 319.376 411.009 319.553C410.614 319.729 410.261 319.879 410.206 319.879C410.084 319.879 407.433 320.831 406.944 321.049C406.713 321.157 406.454 321.239 406.373 321.239C406.291 321.239 406.114 321.293 405.978 321.375C405.856 321.443 405.135 321.729 404.388 321.987C403.64 322.259 402.919 322.531 402.797 322.613C402.661 322.681 402.43 322.735 402.294 322.735C402.145 322.735 401.995 322.789 401.941 322.857C401.9 322.925 401.696 323.021 401.492 323.075C401.288 323.116 400.486 323.401 399.697 323.701C398.909 324.013 397.359 324.585 396.231 324.979C395.116 325.374 393.675 325.89 393.036 326.135C392.397 326.38 390.602 327.019 389.052 327.577C387.489 328.121 386.021 328.665 385.79 328.774C385.382 328.964 381.779 330.256 380.324 330.732C379.957 330.854 379.617 330.99 379.577 331.045C379.536 331.099 378.992 331.303 378.353 331.507C377.714 331.711 377.143 331.929 377.075 331.997C376.994 332.065 376.803 332.119 376.64 332.119C376.463 332.119 376.287 332.174 376.246 332.255C376.205 332.323 376.069 332.391 375.947 332.391C375.838 332.391 375.552 332.473 375.321 332.582C375.077 332.69 374.465 332.935 373.935 333.126C373.418 333.316 372.561 333.629 372.031 333.819C371.515 334.023 370.835 334.268 370.536 334.363C370.237 334.459 369.231 334.826 368.293 335.179C366.688 335.791 363.194 337.043 362.447 337.287C361.998 337.423 360.679 337.94 360.339 338.103C360.19 338.171 359.157 338.552 358.028 338.933C356.913 339.314 355.35 339.885 354.562 340.211C353.773 340.524 352.522 340.987 351.775 341.231C351.027 341.476 350.17 341.789 349.871 341.911C349.572 342.047 348.716 342.387 347.968 342.66C347.22 342.932 346.486 343.217 346.336 343.272C346.187 343.34 345.697 343.516 345.249 343.666C344.447 343.924 342.761 344.536 340.898 345.244C340.382 345.434 339.607 345.706 339.199 345.856C338.791 345.992 338.207 346.196 337.907 346.304C336.072 346.998 333.489 347.95 332.265 348.372C330.294 349.052 329.383 349.392 329.084 349.555C328.948 349.623 328.037 349.963 327.045 350.303C325.25 350.915 323.836 351.445 323.089 351.772C322.858 351.881 321.688 352.289 320.506 352.697C318.453 353.404 318.113 353.526 317.107 353.961C316.889 354.057 315.815 354.437 314.728 354.818C313.64 355.185 312.09 355.757 311.261 356.069C310.445 356.382 309.494 356.722 309.154 356.831C308.814 356.94 308.433 357.089 308.311 357.157C308.175 357.225 307.971 357.28 307.862 357.28C307.753 357.28 307.55 357.334 307.414 357.402C307.291 357.484 306.72 357.688 306.163 357.892C305.605 358.082 304.599 358.449 303.947 358.708C303.294 358.966 302.642 359.184 302.506 359.184C302.383 359.184 302.22 359.238 302.139 359.293C302.071 359.361 301.432 359.605 300.725 359.837C300.018 360.068 299.093 360.394 298.685 360.558C298.278 360.707 297.815 360.87 297.666 360.911C297.516 360.952 297.34 361.034 297.258 361.088C297.19 361.156 296.116 361.537 294.892 361.958C293.669 362.38 292.486 362.802 292.241 362.91C291.534 363.223 290.692 363.536 288.625 364.243C287.537 364.61 286.477 365.005 286.246 365.1C285.852 365.277 283.731 366.066 282.507 366.474C282.167 366.596 281.773 366.732 281.624 366.8C281.474 366.868 281.053 367.018 280.672 367.14C280.305 367.262 279.883 367.426 279.761 367.494C279.625 367.562 279.462 367.616 279.38 367.616C279.299 367.616 278.986 367.725 278.66 367.874C278.347 368.01 277.79 368.228 277.409 368.364C277.042 368.486 276.607 368.636 276.457 368.704C276.308 368.772 275.696 368.99 275.098 369.194C274.5 369.384 273.888 369.602 273.738 369.656C272.365 370.241 270.992 370.744 270.815 370.744C270.693 370.744 270.544 370.799 270.462 370.867C270.394 370.935 269.442 371.302 268.328 371.683C267.226 372.063 266.193 372.444 266.016 372.526C265.853 372.621 264.494 373.111 263.012 373.627C261.516 374.144 260.225 374.607 260.157 374.675C260.075 374.729 259.885 374.824 259.735 374.851C259.586 374.892 258.675 375.219 257.696 375.572C256.731 375.912 255.562 376.32 255.113 376.47C254.664 376.619 254.175 376.796 254.025 376.864C253.373 377.163 252.598 377.449 251.442 377.83C250.776 378.047 250.096 378.292 249.947 378.36C249.797 378.428 249.457 378.537 249.199 378.605C248.941 378.673 248.112 378.986 247.364 379.272C246.616 379.571 245.61 379.952 245.121 380.115C244.631 380.278 244.115 380.468 243.965 380.536C243.815 380.604 243.544 380.7 243.353 380.74C242.714 380.917 240.43 381.788 240.308 381.91C240.226 381.978 240.036 382.032 239.886 382.032C239.723 382.032 239.56 382.073 239.519 382.114C239.438 382.196 235.971 383.42 234.856 383.76C234.489 383.868 234.149 384.018 234.109 384.072C234.068 384.127 233.646 384.304 233.157 384.453C231.825 384.861 228.249 386.099 227.787 386.316C227.569 386.412 226.618 386.752 225.68 387.051C224.741 387.364 223.885 387.663 223.776 387.731C223.654 387.799 223.355 387.894 223.096 387.949C222.838 388.003 222.539 388.098 222.417 388.166C222.05 388.37 220.473 388.928 218.474 389.581C216.448 390.247 216.258 390.315 215.551 390.601C215.334 390.682 214.681 390.913 214.124 391.09C213.566 391.281 212.982 391.485 212.832 391.553C212.683 391.621 212.343 391.729 212.084 391.811C211.826 391.893 210.399 392.355 208.917 392.845C205.967 393.81 205.423 393.892 205.096 393.429C204.852 393.089 204.797 391.893 205.015 391.757C205.083 391.716 205.151 391.525 205.151 391.349C205.151 391.172 205.205 390.995 205.273 390.954C205.341 390.913 205.436 390.723 205.477 390.533C205.586 390.084 207.557 386.031 208.468 384.372C208.862 383.651 209.379 382.712 209.596 382.304C210.14 381.325 211.5 379.163 212.587 377.544C215.062 373.872 216.027 372.975 219.154 371.465C221.669 370.241 222.933 369.656 223.042 369.656C223.205 369.656 225.639 368.677 227.107 368.024C227.406 367.902 228.385 367.521 229.282 367.208C230.18 366.882 230.982 366.582 231.05 366.528C231.131 366.474 231.349 366.392 231.566 366.338C231.77 366.283 232.287 366.093 232.708 365.889C233.143 365.698 234.095 365.331 234.856 365.073C235.604 364.814 236.406 364.529 236.624 364.42C236.855 364.325 237.344 364.148 237.711 364.012C238.092 363.89 238.649 363.672 238.962 363.522C239.288 363.386 240.022 363.101 240.593 362.91C241.178 362.706 241.708 362.489 241.776 362.434C241.858 362.366 242.007 362.312 242.116 362.312C242.238 362.312 242.483 362.23 242.673 362.135C242.864 362.04 243.285 361.877 243.625 361.768C243.965 361.673 244.305 361.537 244.373 361.496C244.454 361.442 244.754 361.319 245.053 361.224C245.352 361.129 245.746 360.966 245.936 360.87C246.127 360.775 247.323 360.326 248.587 359.877C249.865 359.429 251.184 358.953 251.537 358.803C251.877 358.653 253.223 358.15 254.501 357.688C255.779 357.225 257.125 356.722 257.465 356.573C257.818 356.423 259.151 355.933 260.415 355.498C261.693 355.049 262.849 354.641 262.998 354.573C264.127 354.07 264.616 353.88 265.445 353.608C265.976 353.445 266.587 353.227 266.805 353.132C267.553 352.819 269.116 352.248 269.225 352.248C269.279 352.248 269.605 352.112 269.973 351.935C270.326 351.772 270.883 351.541 271.223 351.432C271.563 351.336 271.903 351.2 271.971 351.16C272.053 351.105 272.474 350.956 272.923 350.82C273.371 350.684 273.806 350.534 273.874 350.48C273.956 350.425 274.5 350.208 275.098 350.004C275.696 349.8 276.43 349.514 276.729 349.378C277.028 349.242 277.98 348.888 278.837 348.603C279.693 348.304 280.794 347.896 281.284 347.719C283.364 346.903 284.179 346.604 286.11 345.924C287.238 345.529 288.421 345.094 288.761 344.931C289.101 344.781 289.767 344.523 290.256 344.373C291.793 343.87 293.859 343.095 293.982 342.986C294.063 342.918 294.24 342.864 294.403 342.864C294.553 342.864 294.797 342.782 294.947 342.687C295.096 342.578 295.586 342.374 296.034 342.211C298.21 341.463 298.93 341.204 299.324 341.014C299.569 340.905 300.018 340.728 300.317 340.619C300.616 340.511 301.065 340.334 301.309 340.225C301.54 340.116 302.302 339.844 302.968 339.613C304.586 339.069 307.087 338.144 307.59 337.913C307.821 337.804 308.392 337.587 308.882 337.423C309.371 337.26 309.956 337.056 310.173 336.947C310.404 336.852 311.016 336.635 311.533 336.471C312.063 336.295 312.797 336.023 313.164 335.859C313.545 335.683 315.013 335.139 316.427 334.649C317.855 334.159 319.133 333.697 319.282 333.629C320.288 333.18 321.077 332.881 324.992 331.48C325.291 331.371 325.849 331.14 326.216 330.977C326.596 330.8 327.208 330.555 327.575 330.446C328.527 330.147 329.805 329.685 330.321 329.454C330.552 329.345 330.797 329.263 330.879 329.263C330.947 329.263 331.355 329.114 331.776 328.923C332.198 328.733 332.918 328.461 333.394 328.311C333.856 328.162 334.346 327.971 334.468 327.903C334.604 327.822 334.835 327.767 334.971 327.767C335.12 327.767 335.284 327.699 335.324 327.631C335.365 327.55 335.501 327.495 335.623 327.495C335.732 327.495 336.018 327.414 336.249 327.305C336.738 327.101 338.669 326.366 340.423 325.727C341.062 325.51 342.312 325.034 343.21 324.694C344.107 324.353 346.119 323.619 347.669 323.061C349.232 322.504 350.728 321.933 351 321.797C351.271 321.661 352.114 321.348 352.862 321.103C353.61 320.858 354.412 320.586 354.629 320.491C355.241 320.233 355.975 319.947 356.098 319.933C356.152 319.92 356.22 319.893 356.261 319.879C356.302 319.865 356.37 319.838 356.438 319.825C356.492 319.811 356.601 319.77 356.669 319.729C356.75 319.675 357.607 319.349 358.572 319.009C359.551 318.655 360.448 318.315 360.571 318.233C360.707 318.165 360.883 318.111 360.965 318.111C361.046 318.111 361.305 318.029 361.536 317.921C362.392 317.553 363.752 317.037 364.622 316.751C365.111 316.601 365.614 316.411 365.737 316.343C365.873 316.261 366.049 316.207 366.131 316.207C366.213 316.207 366.471 316.125 366.702 316.017C366.947 315.908 367.749 315.595 368.497 315.323C369.244 315.051 369.91 314.765 369.992 314.697C370.06 314.629 370.223 314.575 370.359 314.575C370.495 314.575 370.713 314.52 370.849 314.452C370.971 314.371 371.515 314.167 372.031 313.976C374.016 313.283 375.675 312.657 375.879 312.535C376.015 312.453 376.912 312.127 377.877 311.8C380.052 311.052 381.412 310.549 381.969 310.291C382.214 310.182 383.016 309.869 383.764 309.611C384.512 309.352 385.858 308.849 386.741 308.509C387.625 308.169 388.93 307.68 389.637 307.421C391.676 306.7 391.921 306.605 393.648 305.939C394.545 305.585 395.619 305.191 396.027 305.055C397.196 304.66 398.379 304.225 398.678 304.103C399.235 303.844 401.152 303.123 401.941 302.851C402.389 302.715 402.879 302.539 403.028 302.471C403.178 302.403 404.034 302.09 404.932 301.777C405.829 301.451 406.59 301.138 406.604 301.083C406.631 301.029 406.713 300.975 406.78 300.975C406.957 300.975 411.471 299.37 412.164 299.057C412.477 298.921 413.7 298.459 414.883 298.051C416.066 297.629 417.14 297.234 417.262 297.166C417.398 297.085 417.575 297.03 417.67 297.03C417.752 297.03 418.078 296.908 418.377 296.758C418.69 296.622 419.764 296.214 420.77 295.861C421.776 295.521 422.796 295.154 423.013 295.058C423.38 294.895 424.536 294.46 428.315 293.059C430.64 292.189 430.912 292.094 431.347 291.917C431.578 291.808 431.986 291.631 432.244 291.522C432.503 291.414 432.802 291.318 432.924 291.318C433.046 291.318 433.25 291.264 433.386 291.196C433.753 291.006 434.243 290.815 434.977 290.57C435.357 290.434 435.847 290.258 436.064 290.162C436.296 290.067 436.622 289.945 436.812 289.89C437.002 289.836 437.22 289.741 437.288 289.686C437.37 289.632 438.376 289.238 439.531 288.83C442.25 287.864 442.808 287.66 443.12 287.483C443.256 287.415 444.602 286.898 446.111 286.354C447.607 285.797 449.673 285.035 450.679 284.654C451.685 284.273 453.004 283.77 453.602 283.539C454.2 283.321 454.88 283.049 455.098 282.954C455.329 282.859 455.669 282.723 455.886 282.682C456.09 282.628 456.294 282.533 456.335 282.465C456.376 282.397 456.498 282.342 456.607 282.342C456.783 282.342 458.007 281.907 458.904 281.526C459.054 281.458 459.489 281.309 459.856 281.186C460.237 281.05 460.726 280.873 460.944 280.778C461.175 280.669 461.623 280.493 461.963 280.37C462.765 280.071 463.595 279.758 463.934 279.608C464.084 279.554 465.008 279.214 465.974 278.86C466.953 278.507 467.863 278.126 468.013 278.031C468.163 277.936 468.38 277.854 468.502 277.854C468.625 277.854 468.924 277.745 469.182 277.609C469.617 277.392 470.963 277.378 490.758 277.337L511.857 277.31L512.51 277.65C512.863 277.84 513.244 278.058 513.353 278.126C513.774 278.398 515.678 279.486 515.732 279.486C515.895 279.486 517.73 280.846 518.804 281.744C520.545 283.226 524.487 287.429 526.404 289.89C526.595 290.122 526.989 290.611 527.288 290.978C529.11 293.168 529.939 294.174 530.347 294.718C530.605 295.058 530.999 295.562 531.23 295.834C534.575 299.859 535.934 301.723 536.56 303.123C537.008 304.143 537.008 305.857 536.546 307.095C536.193 308.074 535.146 310.522 534.724 311.379C534.208 312.44 534.017 312.888 533.61 314.017C533.392 314.643 533.202 315.187 533.202 315.2C533.202 315.228 533.338 315.241 533.514 315.241C534.48 315.214 550.862 315.554 554.002 315.663C556.055 315.745 560.827 315.799 564.607 315.799C568.386 315.813 573.185 315.867 575.279 315.935C577.372 316.003 583.884 316.098 589.758 316.139C595.631 316.193 600.525 316.261 600.634 316.302C600.742 316.329 602.918 316.411 605.46 316.479C608.002 316.547 610.368 316.642 610.735 316.697C611.088 316.751 611.374 316.737 611.374 316.669C611.36 316.465 607.295 313.337 606.684 313.065C606.534 312.997 606.045 312.671 605.596 312.344C605.147 312.004 604.712 311.732 604.631 311.732C604.549 311.719 604.372 311.596 604.236 311.447C604.1 311.297 603.937 311.175 603.869 311.175C603.801 311.175 603.489 310.998 603.176 310.78C602.496 310.332 598.649 307.992 596.406 306.687C595.536 306.183 594.597 305.612 594.298 305.435C594.013 305.245 593.347 304.864 592.816 304.579C592.3 304.293 591.28 303.708 590.573 303.287C589.866 302.865 588.792 302.253 588.194 301.94C587.596 301.614 586.943 301.233 586.739 301.097C586.549 300.947 586.345 300.839 586.291 300.839C586.236 300.839 586.032 300.716 585.815 300.567C585.611 300.431 584.931 300.036 584.306 299.71C583.3 299.193 582.906 298.975 581.804 298.295C581.655 298.2 580.989 297.847 580.309 297.493C579.643 297.139 578.922 296.745 578.718 296.609C578.528 296.459 578.324 296.35 578.27 296.35C578.215 296.35 578.011 296.242 577.821 296.092C577.617 295.956 576.815 295.507 576.026 295.099C573.43 293.726 570.534 292.162 569.977 291.822C569.678 291.645 568.671 291.101 567.733 290.638C566.795 290.162 565.939 289.7 565.83 289.605C565.721 289.523 564.715 288.966 563.587 288.381C562.472 287.796 560.446 286.749 559.101 286.041C554.546 283.661 541.522 277.147 541.223 277.106C541.155 277.092 540.611 276.848 539.374 276.276C538.993 276.1 538.64 275.95 538.599 275.95C538.558 275.95 538.137 275.773 537.661 275.556C537.185 275.352 536.533 275.066 536.193 274.93C535.853 274.808 535.472 274.644 535.35 274.576C535.214 274.508 534.983 274.454 534.847 274.454C534.697 274.454 534.548 274.4 534.507 274.345C534.466 274.277 534.017 274.128 533.514 273.992C533.011 273.869 532.277 273.679 531.897 273.57C531.516 273.461 530.918 273.325 530.578 273.284C530.224 273.23 529.898 273.135 529.857 273.08C529.817 273.012 529.463 272.958 529.082 272.944C528.688 272.944 528.076 272.876 527.696 272.808C526.255 272.536 524.297 272.4 515.61 272.02C505.427 271.557 501.539 271.367 498.602 271.176C497.487 271.108 495.706 271.027 494.66 270.986C493.613 270.945 492.416 270.877 492.008 270.836C491.601 270.795 490.962 270.741 490.581 270.7C489.439 270.605 482.098 270.238 478.481 270.102C476.619 270.034 474.62 269.939 474.063 269.898C473.505 269.871 472.064 269.803 470.868 269.762C469.672 269.721 468.203 269.653 467.605 269.626C467.007 269.585 464.805 269.49 462.711 269.422C458.809 269.286 454.948 269.109 450.271 268.891C448.817 268.81 444.167 268.742 439.939 268.728C432.802 268.701 432.231 268.715 431.796 268.946C431.537 269.068 430.925 269.327 430.436 269.503C428.329 270.238 427.214 270.673 427.105 270.782C427.024 270.863 426.847 270.918 426.684 270.918C426.521 270.918 426.344 270.972 426.276 271.04C426.194 271.108 425.283 271.476 424.237 271.856C423.19 272.237 422.17 272.645 421.966 272.754C421.776 272.863 421.518 272.958 421.409 272.958C421.3 272.958 420.851 273.121 420.416 273.312C419.981 273.502 419.342 273.76 419.003 273.869C418.663 273.978 418.214 274.155 417.983 274.25C417.765 274.359 417.303 274.522 416.963 274.631C416.623 274.74 416.175 274.916 415.944 274.998C415.726 275.093 415.359 275.243 415.128 275.338C414.91 275.433 414.203 275.705 413.564 275.95C412.925 276.195 412.287 276.44 412.137 276.494C411.987 276.562 411.566 276.712 411.185 276.834C410.329 277.12 410.084 277.215 409.445 277.5C409.16 277.623 408.425 277.908 407.814 278.14C407.202 278.371 406.577 278.602 406.427 278.67C406.277 278.738 405.271 279.132 404.184 279.54C403.096 279.949 401.75 280.465 401.193 280.697C400.635 280.914 399.561 281.322 398.814 281.594C397.481 282.07 397.264 282.152 396.571 282.451C395.782 282.791 395.075 283.063 393.919 283.457C393.253 283.689 392.642 283.933 392.56 283.988C392.492 284.056 392.356 284.11 392.247 284.11C392.139 284.11 391.867 284.192 391.635 284.301C391.092 284.545 389.691 285.089 388.617 285.47C388.169 285.633 387.679 285.81 387.53 285.878C387.38 285.933 386.986 286.082 386.646 286.218C386.306 286.354 385.912 286.504 385.762 286.558C385.613 286.626 385.028 286.844 384.471 287.048C383.913 287.252 383.397 287.456 383.315 287.51C383.247 287.551 382.907 287.687 382.568 287.782C382.228 287.891 381.806 288.054 381.616 288.149C381.426 288.245 381.194 288.326 381.099 288.326C381.004 288.326 380.827 288.381 380.691 288.462C380.569 288.53 379.862 288.802 379.128 289.074C378.38 289.346 377.687 289.618 377.565 289.7C377.429 289.768 376.259 290.217 374.927 290.693C373.608 291.182 372.235 291.713 371.868 291.876C371.515 292.039 370.631 292.379 369.924 292.624C369.217 292.869 368.265 293.195 367.817 293.358C367.368 293.508 366.879 293.698 366.729 293.753C366.58 293.821 366.24 293.97 365.968 294.093C365.696 294.202 364.935 294.487 364.268 294.718C363.602 294.95 362.936 295.194 362.787 295.249C362.637 295.317 361.753 295.657 360.815 296.01C359.877 296.364 358.939 296.731 358.708 296.84C358.491 296.935 358.028 297.112 357.688 297.221C356.506 297.629 356.057 297.792 355.975 297.887C355.921 297.942 355.744 297.983 355.581 297.983C355.432 297.983 355.241 298.037 355.173 298.105C355.092 298.173 354.67 298.35 354.222 298.527C353.773 298.69 353.229 298.894 352.998 299.003C352.781 299.098 352.291 299.288 351.91 299.411C351.543 299.533 351.108 299.696 350.959 299.751C349.762 300.227 348.498 300.703 348.417 300.703C348.362 300.703 347.859 300.92 347.302 301.179C346.744 301.437 346.214 301.655 346.146 301.655C346.065 301.655 345.616 301.804 345.154 301.981C344.678 302.158 343.781 302.511 343.142 302.743C342.503 302.987 341.809 303.259 341.578 303.368C341.361 303.463 340.164 303.926 338.927 304.375C337.69 304.823 336.562 305.245 336.412 305.313C335.27 305.803 334.577 306.061 333.217 306.564C330.335 307.612 329.886 307.775 329.478 307.965C329.03 308.183 327.888 308.618 326.284 309.203C325.726 309.407 325.087 309.652 324.856 309.747C324.326 309.992 322.259 310.821 321.661 311.039C321.403 311.134 320.995 311.297 320.75 311.392C320.519 311.501 320.288 311.583 320.234 311.583C320.111 311.583 317.936 312.44 317.855 312.535C317.773 312.616 316.957 312.943 316.563 313.038C316.291 313.106 316.182 313.147 315.272 313.514C315.013 313.623 314.619 313.786 314.388 313.868C313.518 314.18 312.049 314.752 311.533 314.983C311.22 315.119 310.364 315.459 309.63 315.731C307.509 316.506 306.788 316.792 306.652 316.914C306.571 316.969 306.435 317.023 306.34 317.023C306.231 317.023 305.85 317.159 305.469 317.322C304.803 317.621 304.79 317.649 304.871 318.111C305.048 319.185 305.225 322.477 305.157 323.551C305.102 324.19 305.075 324.938 305.075 325.21C305.089 325.482 305.021 325.741 304.939 325.795C304.871 325.836 304.803 326.108 304.803 326.394C304.803 326.666 304.749 326.951 304.681 327.019C304.627 327.101 304.491 327.454 304.409 327.822C304.205 328.638 303.349 330.446 302.642 331.534C301.241 333.683 298.563 335.737 295.749 336.811C294.865 337.151 293.587 337.668 292.908 337.954C292.241 338.239 291.507 338.539 291.276 338.62C288.448 339.654 287.021 340.184 286.735 340.347C286.531 340.443 286.001 340.66 285.566 340.81C284.479 341.177 282.738 341.816 281.895 342.156C281.528 342.306 280.604 342.646 279.856 342.918C279.108 343.204 278.402 343.476 278.293 343.53C278.17 343.598 277.871 343.693 277.613 343.748C277.355 343.802 277.083 343.897 277.001 343.952C276.933 344.006 276.376 344.224 275.778 344.428C275.179 344.632 274.445 344.917 274.16 345.053C273.861 345.203 273.521 345.312 273.398 345.312C273.276 345.312 273.127 345.366 273.045 345.434C272.977 345.488 272.583 345.652 272.175 345.774C271.767 345.896 271.305 346.06 271.155 346.128C270.802 346.291 268.776 347.025 265.717 348.113C264.371 348.603 262.645 349.242 261.87 349.541C261.095 349.84 259.681 350.357 258.743 350.684C256.337 351.513 256.119 351.581 255.616 351.799C255.358 351.908 254.175 352.329 252.965 352.737C251.755 353.145 250.586 353.567 250.355 353.662C249.906 353.866 248.003 354.56 247.024 354.873C246.684 354.981 246.045 355.145 245.596 355.24C245.148 355.321 244.509 355.457 244.183 355.539C242.578 355.947 239.601 355.58 237.589 354.737C235.482 353.866 232.695 351.5 231.158 349.324C230.479 348.344 229.214 345.842 229.214 345.461C229.214 345.38 229.16 345.203 229.078 345.067C228.929 344.795 228.562 343.489 228.371 342.523C228.208 341.653 228.127 336.879 228.276 336.594C228.344 336.471 228.399 336.159 228.426 335.914C228.439 335.655 228.494 335.383 228.535 335.315C228.589 335.234 228.711 334.853 228.806 334.459C228.888 334.078 229.024 333.711 229.092 333.67C229.16 333.629 229.214 333.493 229.214 333.384C229.214 332.935 230.628 330.61 231.335 329.902C232.477 328.76 232.695 328.583 233.524 328.189C233.959 327.985 235.074 327.441 236.012 326.978C237.942 326.054 239.152 325.482 240.389 324.966C240.865 324.775 241.586 324.435 241.994 324.231C242.402 324.013 243.544 323.51 244.509 323.102C245.488 322.694 246.643 322.177 247.092 321.946C247.541 321.729 248.832 321.157 249.947 320.695C251.075 320.219 252.054 319.784 252.136 319.729C252.217 319.661 252.883 319.362 253.631 319.049C254.365 318.75 255.249 318.369 255.589 318.22C255.929 318.084 256.35 317.893 256.541 317.812C256.731 317.73 257.03 317.594 257.22 317.499C257.411 317.404 258.321 317.009 259.26 316.615C260.198 316.221 261.217 315.785 261.53 315.649C261.843 315.513 262.128 315.391 262.155 315.391C262.196 315.391 262.74 315.16 263.365 314.874C263.977 314.588 264.766 314.248 265.105 314.112C265.962 313.772 267.009 313.324 268.436 312.684C269.116 312.385 270.516 311.8 271.563 311.379C272.61 310.957 273.616 310.522 273.806 310.413C274.119 310.236 275.111 309.842 279.856 307.979C280.753 307.625 281.923 307.176 282.439 307C282.969 306.809 283.513 306.605 283.663 306.537C283.812 306.483 284.669 306.211 285.566 305.939C286.463 305.667 287.388 305.395 287.619 305.313C287.85 305.245 288.231 305.191 288.462 305.191C288.693 305.191 289.169 305.123 289.495 305.027C289.971 304.905 290.338 304.905 291.235 305.055C292.676 305.286 293.125 305.435 294.947 306.374C295.776 306.796 296.891 307.367 297.435 307.639L298.427 308.156L299.814 307.598C301.554 306.918 302.329 306.605 303.199 306.224C303.471 306.102 303.729 306.007 303.77 306.007C303.811 306.007 304.219 305.83 304.695 305.612C305.17 305.395 306.163 304.987 306.911 304.715C307.658 304.429 308.338 304.157 308.406 304.103C308.488 304.048 308.691 303.953 308.882 303.899C309.072 303.844 309.589 303.627 310.037 303.423C310.486 303.219 311.098 302.96 311.397 302.838C311.696 302.729 312.797 302.28 313.844 301.859C314.891 301.423 316.74 300.689 317.963 300.213C319.173 299.737 320.56 299.166 321.022 298.962C321.485 298.744 322.504 298.336 323.293 298.051C324.081 297.765 324.775 297.479 324.843 297.411C324.924 297.357 325.06 297.302 325.155 297.302C325.536 297.302 327.099 296.459 327.004 296.31C326.963 296.214 326.556 295.63 326.107 294.99C324.734 293.032 324.747 293.046 323.918 291.087C323.483 290.04 323.361 289.455 323.374 288.394C323.374 287.32 323.551 285.076 323.714 283.974C323.782 283.485 323.877 282.873 323.918 282.614C323.945 282.356 324.04 281.703 324.108 281.186C324.19 280.656 324.435 278.915 324.666 277.31C324.897 275.719 325.142 274.128 325.21 273.774C325.359 273.148 325.577 271.843 325.672 271.122C325.699 270.891 325.971 269.177 326.27 267.314C326.569 265.437 326.882 263.451 326.977 262.894C327.059 262.336 327.249 261.166 327.412 260.31C327.562 259.453 327.725 258.406 327.779 257.998C327.847 257.59 328.024 256.515 328.173 255.618C328.432 254.162 328.527 253.564 328.785 251.741C329.207 248.872 329.438 247.321 329.546 246.641C329.628 246.193 329.723 245.635 329.75 245.404C329.832 244.901 330.58 241.976 330.756 241.514C331.749 238.903 332.986 237.556 338.207 233.435C340.083 231.953 343.726 229.301 343.889 229.301C343.917 229.301 344.501 228.961 345.194 228.553C345.874 228.145 346.486 227.805 346.554 227.805C346.622 227.805 346.676 227.751 346.676 227.696C346.676 227.628 347.302 227.234 348.077 226.812C348.838 226.391 349.939 225.751 350.51 225.398C351.081 225.044 352.046 224.473 352.658 224.133C353.256 223.793 354.059 223.317 354.439 223.086C354.806 222.841 355.432 222.474 355.826 222.256C356.22 222.038 357.24 221.44 358.123 220.91C359.565 220.039 361.264 219.155 363.262 218.244C363.67 218.054 364.472 217.809 365.03 217.686C365.995 217.482 370.944 216.693 372.194 216.557L372.765 216.489L372.725 215.66C372.697 215.197 372.629 213.375 372.589 211.621L372.494 208.425L373.88 207.2C374.642 206.52 375.607 205.718 376.028 205.405C376.45 205.092 377.034 204.657 377.333 204.44C378.149 203.841 381.439 202.046 382.975 201.38C384.444 200.74 387.312 199.612 387.639 199.557C387.842 199.516 388.046 199.435 388.087 199.367C388.128 199.299 388.305 199.244 388.481 199.244C388.658 199.244 388.835 199.19 388.889 199.122C388.93 199.04 389.243 198.945 389.569 198.891C389.909 198.85 390.222 198.755 390.262 198.687C390.303 198.619 390.507 198.564 390.711 198.564C390.915 198.564 391.132 198.51 391.2 198.455C391.282 198.387 392.016 198.17 392.832 197.966C393.661 197.762 394.45 197.544 394.599 197.476C394.926 197.34 396.992 196.864 398.134 196.674C398.583 196.592 399.317 196.47 399.765 196.388C401.084 196.157 404.279 195.735 405.815 195.572C406.604 195.504 407.732 195.368 408.33 195.273C409.948 195.042 416.868 195.042 417.643 195.287C417.983 195.382 418.567 195.559 418.935 195.667C419.709 195.899 421.151 196.551 422.741 197.381C423.339 197.694 424.291 198.17 424.848 198.455L425.868 198.972L438.308 199.027C452.433 199.108 459.611 199.299 465.77 199.775C466.708 199.856 468.543 199.979 469.848 200.047C471.154 200.128 472.499 200.224 472.839 200.264C473.179 200.292 474.131 200.36 474.947 200.414C475.776 200.455 476.537 200.523 476.646 200.564C476.755 200.604 477.53 200.686 478.345 200.754C480.398 200.904 484.259 201.271 485.415 201.407C485.945 201.475 486.761 201.57 487.25 201.624C488.582 201.76 491.832 202.359 492.824 202.644C493.314 202.78 494.075 203.052 494.524 203.243C495.081 203.474 495.584 203.583 496.087 203.583C496.74 203.583 499.092 203.107 500.573 202.672C504.951 201.38 507.602 200.958 510.702 201.053C512.904 201.121 513.502 201.284 514.332 202.06C514.644 202.359 514.767 202.386 515.215 202.304C516.194 202.128 519.416 201.012 520.803 200.387C521.197 200.21 521.564 200.06 521.632 200.06C521.7 200.06 521.986 199.938 522.285 199.802C523.223 199.326 524.365 198.836 524.501 198.836C524.582 198.836 524.746 198.782 524.882 198.714C525.004 198.646 525.385 198.469 525.724 198.319C528.62 197.055 529.667 196.606 531.027 196.048C531.883 195.681 532.658 195.341 532.726 195.287C532.807 195.232 533.746 194.824 534.833 194.375C535.921 193.927 537.348 193.301 538.014 192.988C538.694 192.675 539.605 192.281 540.054 192.104C540.937 191.778 542.27 191.193 542.882 190.867C543.072 190.758 543.33 190.676 543.452 190.676C543.575 190.676 543.67 190.635 543.67 190.567C543.67 190.513 544.051 190.322 544.527 190.146C544.989 189.969 545.709 189.67 546.117 189.493C546.525 189.302 546.987 189.112 547.137 189.044C547.286 188.99 547.993 188.663 548.714 188.31C549.434 187.97 550.073 187.684 550.128 187.684C550.223 187.684 550.563 187.534 552.031 186.882C552.48 186.678 553.132 186.392 553.486 186.242C553.853 186.106 554.138 185.943 554.138 185.875C554.138 185.821 554.206 185.78 554.274 185.78C554.519 185.78 559.087 183.822 559.277 183.645C559.372 183.55 559.522 183.468 559.604 183.468C559.78 183.468 562.703 182.23 564.321 181.482C565.014 181.156 565.613 180.884 565.653 180.884C565.694 180.884 566.211 180.666 566.823 180.394C567.434 180.136 568.155 179.823 568.413 179.714C568.671 179.592 569.256 179.333 569.705 179.116C570.153 178.898 570.833 178.599 571.214 178.449C572.002 178.15 572.832 177.783 574.082 177.198C574.558 176.981 574.993 176.804 575.061 176.804C575.129 176.804 575.252 176.722 575.333 176.613C575.428 176.505 575.7 176.369 575.931 176.314C576.162 176.273 576.448 176.178 576.57 176.11C576.774 176.015 577.4 175.729 578.61 175.199C578.949 175.049 579.738 174.709 580.377 174.424C581.016 174.138 581.723 173.839 581.94 173.73C582.171 173.635 583.001 173.281 583.803 172.941C584.605 172.601 585.557 172.18 585.91 172.003C586.264 171.812 587.052 171.472 587.65 171.241C588.928 170.724 589.35 170.534 590.696 169.908C591.253 169.636 592.477 169.106 593.415 168.712C594.353 168.317 595.835 167.678 596.691 167.284C598.091 166.658 598.594 166.44 599.478 166.06C599.628 165.992 600.239 165.72 600.838 165.448C601.436 165.162 602.51 164.7 603.217 164.4C604.644 163.802 604.998 163.652 606.48 162.972C607.798 162.374 607.758 162.387 609.674 161.571C610.572 161.191 611.496 160.783 611.714 160.66C612.149 160.443 615.384 159.069 616.064 158.824C616.295 158.743 616.69 158.552 616.948 158.403C617.206 158.253 618.226 157.804 619.191 157.396C620.17 156.988 621.448 156.417 622.046 156.131C623.324 155.533 623.677 155.37 625.295 154.703C625.948 154.431 626.981 153.969 627.593 153.67C628.191 153.384 628.735 153.139 628.789 153.139C628.857 153.139 629.238 152.99 629.659 152.799C630.067 152.609 630.747 152.31 631.155 152.119C631.576 151.929 631.943 151.779 631.984 151.779C632.011 151.779 632.501 151.562 633.045 151.303C633.602 151.045 634.091 150.827 634.132 150.827C634.173 150.827 634.608 150.637 635.097 150.419C635.587 150.188 636.022 150.011 636.063 150.011C636.103 150.011 636.702 149.739 637.395 149.413C638.102 149.073 639.638 148.393 640.821 147.89C642.017 147.4 643.051 146.938 643.119 146.883C643.2 146.829 644.111 146.434 645.158 145.999C646.191 145.578 647.143 145.169 647.265 145.101C647.442 145.006 648.285 144.612 650.147 143.769C650.501 143.619 650.881 143.483 650.977 143.483C651.072 143.483 651.262 143.401 651.412 143.306C651.561 143.211 651.996 142.993 652.377 142.83C652.744 142.681 653.532 142.327 654.103 142.069C654.674 141.797 655.191 141.579 655.232 141.579C655.273 141.579 655.64 141.429 656.048 141.239C656.455 141.049 656.809 140.899 656.85 140.899C656.877 140.899 657.543 140.586 658.331 140.219C659.12 139.838 659.8 139.539 659.841 139.539C659.881 139.539 660.167 139.417 660.493 139.281C660.806 139.131 661.798 138.696 662.696 138.315C663.593 137.934 664.694 137.445 665.143 137.227C665.591 137.023 666.448 136.656 667.046 136.397C667.644 136.152 668.256 135.867 668.405 135.772C668.555 135.676 668.773 135.595 668.909 135.595C669.031 135.595 669.221 135.513 669.316 135.418C669.412 135.323 670.078 135.01 670.785 134.724C672.253 134.126 673.939 133.364 674.469 133.079C674.659 132.97 675.475 132.63 676.304 132.331C677.12 132.018 677.976 131.678 678.194 131.583C679.091 131.188 681.715 130.264 682.137 130.196C683.469 129.978 685.005 130.617 686.718 132.086C687.575 132.834 688.744 134.316 689.356 135.459C690.185 136.982 690.416 137.853 690.402 139.403C690.402 140.613 690.28 141.212 689.818 142.3C688.825 144.666 687.33 146.475 685.739 147.25C685.25 147.482 683.768 148.202 682.436 148.842C681.103 149.481 679.989 150.011 679.948 150.011C679.893 150.011 679.268 150.297 676.155 151.779C675.557 152.065 674.428 152.582 673.64 152.935C672.851 153.289 672.158 153.629 672.076 153.683C672.008 153.738 671.301 154.064 670.513 154.404C669.724 154.744 668.446 155.329 667.658 155.696C666.869 156.063 665.768 156.567 665.211 156.811C664.653 157.056 663.389 157.641 662.396 158.117C661.404 158.593 660.561 158.987 660.507 158.987C660.466 158.987 659.841 159.259 659.134 159.599C658.427 159.939 657.842 160.211 657.815 160.211C657.788 160.211 657.054 160.551 656.183 160.959C655.313 161.367 654.579 161.707 654.538 161.707C654.457 161.707 653.111 162.319 651.819 162.945C651.221 163.231 649.943 163.802 648.964 164.224C647.999 164.645 647.061 165.08 646.898 165.176C646.735 165.284 646.069 165.597 645.403 165.869C644.75 166.141 643.458 166.726 642.548 167.161C641.637 167.596 640.603 168.072 640.236 168.222C639.883 168.358 638.741 168.888 637.721 169.378C636.688 169.868 635.818 170.276 635.791 170.276C635.75 170.276 635.261 170.493 634.703 170.752C634.132 171.01 633.643 171.228 633.602 171.228C633.561 171.228 632.909 171.527 632.147 171.894C630.258 172.778 629.183 173.268 629.116 173.268C629.075 173.268 628.517 173.513 627.878 173.812C627.239 174.111 626.668 174.356 626.628 174.356C626.587 174.356 626.451 174.437 626.342 174.546C626.22 174.641 625.948 174.791 625.717 174.873C625.105 175.09 622.753 176.137 621.285 176.845C620.564 177.198 619.939 177.484 619.898 177.484C619.776 177.484 617.818 178.381 616.948 178.844C616.54 179.061 615.86 179.361 615.452 179.524C614.705 179.823 613.957 180.163 611.714 181.237C611.048 181.55 610.191 181.931 609.81 182.081C609.103 182.366 607.921 182.897 606.276 183.672C605.31 184.121 604.522 184.474 603.557 184.91C603.258 185.032 602.265 185.494 601.341 185.943C600.416 186.378 599.587 186.732 599.492 186.732C599.41 186.732 599.274 186.786 599.206 186.854C599.125 186.922 598.472 187.222 597.724 187.534C596.99 187.847 596.256 188.187 596.093 188.296C595.943 188.405 595.196 188.745 594.448 189.058C593.7 189.357 592.599 189.86 592.014 190.159C591.416 190.445 590.356 190.935 589.635 191.247C588.915 191.547 587.813 192.036 587.174 192.335C584.523 193.587 584.048 193.804 583.966 193.804C583.925 193.804 583.504 193.981 583.042 194.199C580.01 195.64 578.99 196.116 578.895 196.116C578.841 196.116 578.528 196.239 578.188 196.402C577.862 196.565 576.978 196.973 576.23 197.34C575.483 197.694 574.409 198.183 573.851 198.428C573.294 198.673 572.193 199.19 571.404 199.557C570.616 199.924 569.746 200.305 569.46 200.414C569.175 200.509 568.807 200.686 568.644 200.808C568.481 200.917 568.277 201.012 568.182 201.012C568.087 201.012 567.258 201.38 566.347 201.815C564.362 202.767 563.138 203.324 563.03 203.324C562.975 203.324 562.268 203.651 561.425 204.059C559.699 204.888 558.38 205.5 558.285 205.5C558.217 205.5 556.776 206.153 555.158 206.928C554.641 207.173 553.962 207.486 553.662 207.608C553.363 207.744 552.412 208.18 551.555 208.588C550.699 208.996 549.869 209.377 549.72 209.445C549.57 209.513 548.931 209.785 548.292 210.057C547.653 210.329 546.443 210.886 545.601 211.294C544.744 211.702 544.037 212.029 543.996 212.029C543.915 212.029 541.318 213.198 539.904 213.878C539.224 214.205 538.626 214.477 538.572 214.477C538.531 214.477 537.987 214.721 537.375 215.007C536.057 215.633 534.48 216.367 533.542 216.775C533.175 216.952 532.114 217.442 531.19 217.89C530.265 218.326 529.477 218.693 529.436 218.693C529.368 218.693 528.389 219.142 526.336 220.121C525.67 220.447 524.814 220.842 524.433 221.005C524.066 221.168 523.74 221.331 523.712 221.345C523.685 221.358 524.256 222.542 524.95 223.942C525.656 225.357 526.377 226.853 526.54 227.261C526.703 227.669 526.921 228.186 527.016 228.417C527.342 229.151 528.416 232.483 528.511 233.041C528.566 233.34 528.634 233.857 528.661 234.197C528.702 234.537 528.783 234.931 528.851 235.081C529.273 236.047 529.395 241.596 529.042 243.513C528.838 244.615 528.607 245.717 528.539 245.961C528.511 246.029 528.443 246.247 528.389 246.437C528.294 246.764 528.144 247.09 527.641 248.178C526.921 249.742 525.126 252.041 522.326 254.978C520.341 257.073 519.389 258.392 519.253 259.222C519.09 260.228 519.675 260.5 522.326 260.65C528.607 260.99 532.984 261.425 534.629 261.874C537.022 262.513 537.579 262.676 538.368 262.921C539.687 263.343 541.604 264.077 542.378 264.458C542.759 264.635 543.575 265.002 544.214 265.274C545.832 265.967 551.392 268.687 555.117 270.632C556.939 271.584 564.239 275.297 568.685 277.541C570.52 278.48 572.111 279.282 572.22 279.35C572.329 279.418 572.981 279.744 573.647 280.071C574.327 280.411 575.184 280.833 575.551 281.023C576.842 281.676 579.425 282.886 579.548 282.886C579.616 282.886 579.697 282.941 579.724 282.995C579.806 283.185 581.397 283.825 582.362 284.056C583.681 284.369 585.924 284.328 587.718 283.974C588.507 283.811 589.363 283.648 589.622 283.607C589.88 283.566 590.165 283.485 590.233 283.417C590.315 283.362 590.655 283.267 590.981 283.226C591.321 283.172 591.715 283.077 591.865 283.022C592.15 282.886 593.523 282.505 594.108 282.383C594.298 282.356 595.06 282.193 595.807 282.043C598.948 281.377 602.537 281.241 615.928 281.241C625.798 281.227 628.599 281.309 630.747 281.635C632.31 281.866 635.233 282.723 635.641 283.049C635.709 283.104 635.845 283.158 635.954 283.158C636.049 283.158 636.389 283.281 636.702 283.417C637.014 283.553 637.884 283.933 638.632 284.233C639.38 284.545 640.087 284.885 640.196 284.994C640.318 285.103 640.454 285.198 640.495 285.198C640.535 285.198 641.31 285.62 642.221 286.15C644.655 287.551 647.754 289.931 649.835 291.998C650.99 293.127 653.043 295.439 653.655 296.269C653.913 296.622 654.321 297.139 654.552 297.411C654.919 297.847 655.694 299.016 656.85 300.839C657.434 301.777 657.57 302.022 658.644 304.103C659.841 306.401 660.398 307.802 660.52 308.822C660.643 309.76 660.194 310.576 659.283 311.066C658.685 311.392 658.359 311.515 656.782 312.018C655.218 312.508 652.69 313.84 651.751 314.67C651.303 315.064 650.854 315.432 650.745 315.486C650.596 315.568 650.541 316.737 650.487 321.579C650.406 327.509 650.378 328.012 650.12 329.331C650.052 329.698 649.97 330.229 649.93 330.487C649.848 331.29 649.168 333.629 648.693 334.771C648.312 335.71 647.415 337.437 646.313 339.395C645.824 340.279 643.159 344.264 642.819 344.632C642.643 344.822 642.507 345.012 642.507 345.053C642.507 345.094 642.344 345.352 642.14 345.611C641.922 345.869 641.637 346.25 641.487 346.454C641.174 346.889 639.557 348.943 638.523 350.194C637.735 351.173 633.887 355.702 633.548 356.056C633.425 356.178 632.813 356.858 632.174 357.552C628.966 361.102 622.576 367.534 620.659 369.139C620.048 369.643 619.504 370.119 619.463 370.2C619.368 370.35 615.955 373.219 614.759 374.158C613.4 375.219 612.135 376.279 611.809 376.619L611.51 376.946L613.984 377.109C615.357 377.204 616.839 377.34 617.288 377.408C617.736 377.476 619.368 377.571 620.89 377.612C622.427 377.653 624.14 377.748 624.697 377.816C625.254 377.884 626.478 377.979 627.416 378.02C628.354 378.047 630.162 378.143 631.427 378.224C632.705 378.292 634.989 378.415 636.525 378.496C638.061 378.564 639.747 378.66 640.264 378.7C640.794 378.741 641.732 378.796 642.371 378.836C644.532 378.986 647.877 379.312 648.625 379.448C649.671 379.639 651.14 380.196 651.887 380.672C652.69 381.189 654.28 382.794 655.082 383.896C655.422 384.372 655.694 384.78 655.694 384.82C655.694 384.861 655.83 385.12 656.007 385.405C656.183 385.677 656.469 386.303 656.646 386.792C656.822 387.282 656.999 387.731 657.054 387.813C657.584 388.533 657.57 392.301 657.054 393.525C656.904 393.851 655.844 397.822 655.735 398.421C655.694 398.638 655.612 398.883 655.558 398.965C655.49 399.033 655.409 399.386 655.354 399.754C655.3 400.107 655.205 400.434 655.137 400.474C655.069 400.515 655.014 400.746 655.014 400.991C655.014 401.222 654.96 401.481 654.892 401.549C654.824 401.63 654.606 402.297 654.402 403.045C654.212 403.793 653.995 404.527 653.927 404.677C653.818 404.935 653.614 405.724 653.641 405.806C653.655 405.819 653.573 406.051 653.464 406.309C653.342 406.581 653.26 406.812 653.247 406.853C653.233 406.975 653.152 407.261 652.989 407.751C652.907 408.009 652.839 408.39 652.839 408.567C652.839 408.757 652.785 408.961 652.73 409.029C652.662 409.111 652.499 409.532 652.377 409.981C652.241 410.43 651.996 411.219 651.806 411.749C651.629 412.266 651.466 412.823 651.439 412.973C651.412 413.123 651.344 413.34 651.303 413.449C651.262 413.558 651.004 414.442 650.732 415.421C650.473 416.387 650.188 417.312 650.134 417.461C650.066 417.611 649.889 418.155 649.739 418.685C648.978 421.324 648.611 422.629 648.23 423.989C647.986 424.805 647.754 425.608 647.686 425.757C647.619 425.907 647.442 426.451 647.292 426.981C646.721 428.926 646.3 430.422 645.974 431.673C645.783 432.381 645.566 433.061 645.511 433.183C645.443 433.306 645.199 434.094 644.967 434.951C644.723 435.808 644.478 436.651 644.396 436.842C644.328 437.032 644.233 437.331 644.206 437.522C644.165 437.712 644.016 438.283 643.853 438.814C643.594 439.698 643.35 440.527 643.282 440.854C643.268 440.922 643.214 441.044 643.159 441.126C643.119 441.194 642.915 441.806 642.711 442.486C642.072 444.648 641.949 445.056 641.827 445.478C641.392 447.055 640.617 449.476 640.454 449.789C640.386 449.925 640.332 450.17 640.332 450.347C640.332 450.524 640.291 450.714 640.236 450.768C640.168 450.823 640.128 450.918 640.114 450.959C640.087 451.176 639.896 451.897 639.788 452.142C639.733 452.292 639.516 452.999 639.325 453.706C639.122 454.413 638.863 455.27 638.754 455.61C638.632 455.95 638.51 456.344 638.469 456.494C638.428 456.644 638.347 456.888 638.292 457.038C638.224 457.188 637.83 458.534 637.409 460.03C636.742 462.397 636.416 463.512 636.144 464.314C636.049 464.613 636.008 464.736 635.859 465.266C635.791 465.525 635.383 466.898 634.961 468.326C634.54 469.741 634.132 471.155 634.064 471.454C633.996 471.754 633.847 472.175 633.751 472.406C633.643 472.624 633.452 473.209 633.33 473.698C633.208 474.188 633.045 474.705 632.977 474.854C632.922 475.004 632.773 475.521 632.65 476.01C632.528 476.5 632.378 477.017 632.31 477.167C632.256 477.316 632.147 477.615 632.093 477.847C632.038 478.064 631.984 478.309 631.957 478.391C631.943 478.459 631.712 479.193 631.44 480.009C631.168 480.825 630.951 481.587 630.951 481.723C630.951 481.845 630.91 481.995 630.856 482.049C630.801 482.09 630.747 482.212 630.72 482.307C630.665 482.593 630.434 483.382 630.149 484.375C629.986 484.891 629.836 485.449 629.809 485.599C629.687 486.129 629.292 487.367 629.183 487.503C629.129 487.571 629.048 487.816 629.007 488.047C628.925 488.482 628.857 488.727 628.748 489.067C628.708 489.176 628.599 489.543 628.504 489.883C628.409 490.223 628.286 490.644 628.218 490.835C628.15 491.025 628.042 491.42 627.974 491.719C627.81 492.412 627.171 494.629 627.022 494.983C626.777 495.609 626.464 496.669 626.464 496.914C626.464 497.05 626.41 497.227 626.342 497.309C626.288 497.377 625.934 498.505 625.581 499.811C625.227 501.117 624.874 502.273 624.779 502.381C624.697 502.49 624.643 502.599 624.67 502.626C624.738 502.694 624.548 503.483 624.425 503.755C624.357 503.864 624.153 504.544 623.949 505.251C623.283 507.618 623.038 508.434 622.304 510.759C621.529 513.248 621.244 514.214 621.23 514.431C621.23 514.499 621.149 514.744 621.067 514.975C620.931 515.343 620.727 516.063 620.7 516.295C620.687 516.335 620.646 516.431 620.591 516.485C620.523 516.539 620.483 516.757 620.483 516.961C620.483 517.165 620.428 517.369 620.36 517.423C620.292 517.464 620.156 517.831 620.061 518.253C619.966 518.661 619.844 519.028 619.776 519.069C619.721 519.11 619.667 519.273 619.667 519.45C619.667 519.613 619.626 519.803 619.572 519.858C619.517 519.912 619.463 520.035 619.463 520.116C619.449 520.347 619.259 521.041 619.123 521.367C619.028 521.612 618.851 522.238 618.443 523.748C618.158 524.808 617.723 526.141 617.628 526.264C617.56 526.332 617.519 526.44 617.519 526.508C617.519 526.862 617.315 527.705 617.206 527.773C617.138 527.814 617.084 528.018 617.084 528.249C617.084 528.467 617.029 528.644 616.961 528.644C616.866 528.644 616.73 529.16 616.622 529.895C616.608 529.936 616.567 530.031 616.513 530.085C616.445 530.14 616.404 530.289 616.404 530.425C616.404 530.629 615.738 532.873 615.493 533.54C615.398 533.798 615.357 533.893 615.194 534.492C614.365 537.484 613.236 541.265 613.141 541.455C613.005 541.7 611.795 545.78 611.347 547.48C611.197 548.078 611.02 548.623 610.966 548.704C610.898 548.772 610.64 549.629 610.368 550.608C610.096 551.574 609.81 552.485 609.742 552.607C609.661 552.743 609.606 552.988 609.606 553.165C609.606 553.342 609.566 553.532 609.511 553.587C609.443 553.641 609.403 553.736 609.389 553.777C609.335 554.239 609.144 554.906 609.049 554.974C608.981 555.015 608.927 555.219 608.927 555.436C608.927 555.654 608.872 555.858 608.804 555.899C608.736 555.939 608.6 556.307 608.519 556.687C608.424 557.082 608.315 557.463 608.261 557.544C608.22 557.612 608.165 557.803 608.152 557.952C608.111 558.211 607.839 559.108 607.078 561.584C606.901 562.155 606.752 562.726 606.752 562.848C606.752 562.957 606.697 563.161 606.629 563.297C606.548 563.42 606.33 564.072 606.126 564.752C605.922 565.419 605.677 566.262 605.569 566.602C605.46 566.942 605.351 567.309 605.338 567.418C605.31 567.527 605.27 567.704 605.229 567.813C605.12 568.112 604.495 570.41 604.168 571.757C604.019 572.396 603.829 573.035 603.761 573.185C603.693 573.334 603.611 573.633 603.57 573.865C603.543 574.082 603.448 574.517 603.366 574.817C603.298 575.116 603.203 575.578 603.162 575.837C603.122 576.095 602.999 576.775 602.877 577.333C602.768 577.89 602.632 579.087 602.591 579.985C602.428 582.963 602.931 584.541 604.508 586.023C606.099 587.506 606.724 587.791 608.791 587.995C613.073 588.417 617.424 588.417 1257.14 588.417C1867.62 588.417 1893.02 588.403 1895.3 588.172C1901.72 587.519 1906.99 586.391 1912.77 584.473C1936 576.734 1954.25 558.483 1961.98 535.24C1963.9 529.46 1965.03 524.183 1965.68 517.763C1965.91 515.492 1965.93 509.073 1965.93 376.048C1965.93 261.642 1965.9 236.373 1965.75 234.809C1964.85 225.357 1962.73 217.21 1959.03 209.037C1949.98 189.03 1932.5 173.526 1911.61 166.971C1906.38 165.325 1901.76 164.387 1895.27 163.652C1893.3 163.421 1860.31 163.407 1286.03 163.339L678.874 163.271L679.676 162.891C680.111 162.687 680.492 162.523 680.519 162.523C680.546 162.523 681.579 162.034 682.803 161.435C684.04 160.837 685.087 160.347 685.128 160.347C685.168 160.347 686.188 159.871 687.412 159.273C688.621 158.688 690.049 158.008 690.566 157.763C691.544 157.315 692.374 156.757 694.481 155.193C695.732 154.254 696.493 153.37 698.41 150.555C699.973 148.257 700.245 147.618 701.047 144.34C701.85 141.008 702.053 139.988 702.053 139.335C702.053 138.152 700.572 132.086 699.973 130.794C699.416 129.611 696.751 125.83 695.609 124.606C694.576 123.504 690.81 120.743 689.546 120.172C688.689 119.778 683.455 118.594 682.64 118.608C682.205 118.608 680.641 118.907 679.146 119.275ZM1892.85 191.873C1901.38 192.961 1908.26 195.382 1914.88 199.639C1919.01 202.291 1923.6 206.425 1926.76 210.329C1930.92 215.51 1934.17 221.834 1935.95 228.254C1937.05 232.225 1937.51 235.285 1937.73 239.977C1937.83 242.099 1937.85 286.776 1937.83 378.224C1937.78 506.19 1937.77 513.452 1937.54 515.288C1936.74 521.857 1935.26 526.876 1932.46 532.452C1928.91 539.565 1924.01 545.413 1917.69 550.146C1910.32 555.654 1901.74 558.959 1892.49 559.856C1889.48 560.156 736.599 560.156 733.594 559.856C722.609 558.796 712.427 554.267 704.501 546.895C701.347 543.971 698.954 541.17 696.683 537.756C691.939 530.602 689.192 522.728 688.458 514.159C688.268 511.834 688.268 240.045 688.472 237.638C689.192 228.907 692.061 220.787 696.996 213.525C703.848 203.433 714.248 196.157 726.008 193.192C729.081 192.417 732.085 191.968 735.769 191.723C736.109 191.696 996.293 191.683 1313.97 191.696C1766.1 191.71 1891.85 191.751 1892.85 191.873Z" fill="white"/>
<path d="M873.828 266.172C853.952 267.083 838.25 272.536 825.837 282.805C824.315 284.07 820.209 288.054 819.053 289.387C818.768 289.714 818.523 289.958 818.496 289.931C818.469 289.918 816.375 285.362 813.819 279.826L809.197 269.762L790.898 269.721L772.612 269.694V378.224V486.755H797.967H823.322V408.145V329.549L824.437 328.148C827.673 324.109 832.716 319.852 838.25 316.52C844.517 312.739 852.198 309.665 858.534 308.4C861.919 307.72 863.469 307.584 867.778 307.584C882.475 307.612 893.528 311.433 900.611 318.954C906.592 325.319 910.413 335.179 911.827 347.964C912.452 353.621 912.411 349.8 912.466 420.481L912.506 486.755H937.861H963.216V418.305C963.216 349.718 963.203 347.705 962.74 342.116C961.068 322.137 954.923 305.871 944.183 292.951C942.538 290.978 937.929 286.314 935.958 284.627C924.769 275.08 911.12 269.232 894.928 267.056C888.293 266.158 880.87 265.845 873.828 266.172Z" fill="white"/>
<path d="M1106.31 266.158C1081.4 267.477 1060.73 275.705 1042.08 291.713C1017.47 312.848 1004.74 341.096 1003.88 376.456C1003.21 404.623 1008.83 428.002 1020.72 446.566C1025.73 454.373 1032.25 461.676 1039.69 467.782C1054.6 480.023 1073.34 487.381 1095.5 489.665C1100.89 490.223 1105.15 490.427 1111.88 490.427C1130.76 490.427 1146.86 488.346 1161.03 484.076C1172.02 480.757 1182.44 475.548 1190.04 469.551L1191.36 468.503L1187.36 460.602C1185.16 456.249 1180.74 447.477 1177.54 441.126C1174.34 434.761 1171.71 429.552 1171.7 429.525C1171.68 429.511 1171.13 430.055 1170.46 430.735C1164.48 436.842 1156.66 441.656 1147.8 444.676C1141.6 446.784 1135.56 447.967 1127.31 448.701C1124.2 448.987 1113.33 448.932 1110.25 448.633C1096.08 447.232 1085.38 443.22 1076.14 435.835C1074.19 434.299 1070.22 430.286 1068.63 428.274C1061.59 419.365 1057.92 409.084 1056.82 395.198L1056.74 394.137L1134.41 394.11L1212.08 394.069L1212.37 392.709C1214.09 385.133 1215.41 377.476 1216.05 371.492C1216.47 367.521 1216.33 359.851 1215.73 353.812C1213.35 329.699 1203.59 309.366 1186.65 293.209C1170.43 277.759 1149.92 268.905 1125.07 266.648C1119.56 266.144 1110.86 265.913 1106.31 266.158ZM1119.97 307.843C1131.25 308.931 1139.9 312.073 1147.14 317.703C1149.74 319.716 1152.77 322.912 1154.93 325.863C1159.91 332.718 1163.39 342.143 1164.9 352.86C1165.08 354.206 1165.27 355.539 1165.31 355.811L1165.38 356.328H1112.01C1061.17 356.328 1058.65 356.314 1058.65 356.083C1058.65 355.689 1060.08 350.153 1060.76 347.909C1064.69 334.948 1071.01 324.735 1079.21 318.152C1087.01 311.882 1096.46 308.441 1108 307.653C1110.55 307.476 1117.26 307.585 1119.97 307.843Z" fill="white"/>
<path d="M1790.01 266.117C1772.29 266.811 1758.15 270.469 1745.88 277.528C1734.44 284.097 1726.5 292.638 1722.11 303.11C1717.04 315.173 1716.54 330.923 1720.82 343.435C1725.01 355.702 1733.57 366.406 1746.57 375.64C1754.56 381.312 1762.9 385.773 1775.25 390.941C1789.57 396.938 1800.47 402.596 1806.44 407.084C1810.89 410.444 1813.74 413.884 1815.63 418.209C1818.13 423.921 1818.5 431.728 1816.49 437.046C1815.59 439.439 1814.48 441.153 1812.59 443.044C1808.86 446.77 1803.64 448.851 1795.58 449.844C1793.19 450.129 1785.97 450.252 1782.87 450.048C1770.97 449.259 1760.75 446.376 1750.31 440.867C1746.16 438.678 1742.78 436.447 1737.31 432.326L1736.82 431.946L1734.97 436.067C1728.31 450.918 1718.83 472.23 1718.83 472.325C1718.83 472.475 1723.93 475.127 1728.76 477.493C1740.33 483.151 1749.34 486.483 1757.57 488.115C1765.91 489.774 1776.34 490.522 1788.85 490.386C1795.4 490.318 1797.18 490.223 1802.17 489.733C1824.18 487.571 1841.95 480.118 1854.17 467.918C1863.49 458.616 1868.69 447.396 1870.23 433.306C1870.52 430.626 1870.62 424.03 1870.43 421.133C1869.71 410.43 1867.06 401.535 1862.11 393.253C1856.3 383.501 1847.35 375.45 1834.35 368.242C1828.75 365.141 1823.87 362.911 1814 358.98C1799.06 353.023 1788.8 348.236 1782.34 344.197C1776.25 340.402 1772.51 335.968 1771.15 330.923C1770.8 329.59 1770.66 325.931 1770.9 323.986C1771.5 319.05 1773.16 315.527 1776.25 312.562C1780.96 308.06 1788.55 306.048 1799.73 306.333C1817.66 306.796 1831.21 311.025 1841.8 319.471C1842.75 320.233 1843.56 320.831 1843.58 320.79C1843.62 320.763 1844.44 318.56 1845.42 315.921C1846.4 313.269 1849.63 304.497 1852.61 296.419C1855.59 288.34 1858.05 281.635 1858.08 281.526C1858.12 281.309 1857.46 280.955 1854.03 279.309C1840.36 272.822 1825.48 268.592 1810.32 266.92C1804.02 266.212 1795.72 265.886 1790.01 266.117Z" fill="white"/>
<path d="M1236.57 269.857C1236.66 269.952 1239.24 273.489 1242.32 277.718C1245.42 281.948 1251.45 290.176 1255.72 296.011C1259.99 301.845 1266.69 310.998 1270.6 316.343C1274.52 321.688 1279.96 329.127 1282.7 332.867C1305.45 363.931 1312.95 374.185 1313.07 374.389C1313.14 374.498 1311.28 377.096 1307.89 381.652C1302.66 388.697 1298.57 394.205 1291 404.405C1288.83 407.316 1285.37 411.967 1283.31 414.741C1281.26 417.502 1277.35 422.765 1274.63 426.438C1271.91 430.096 1267.65 435.822 1265.18 439.154C1262.7 442.486 1259.74 446.457 1258.61 447.994C1257.47 449.531 1250.94 458.303 1244.11 467.51C1237.27 476.704 1231.26 484.81 1230.74 485.49L1229.82 486.755H1259.78H1289.74L1300.8 471.699C1306.87 463.403 1314.56 452.958 1317.85 448.47C1321.14 443.982 1328.06 434.571 1333.19 427.553C1338.35 420.535 1342.6 414.823 1342.67 414.836C1342.73 414.864 1343.96 416.496 1345.4 418.481C1348.9 423.255 1375.5 459.581 1392.42 482.675L1395.35 486.687L1426.04 486.728L1456.71 486.755L1448.11 475.235C1440.9 465.538 1414.49 430.123 1391.72 399.577C1388.57 395.347 1383.66 388.765 1380.82 384.957C1377.98 381.135 1374.96 377.096 1374.12 375.967L1372.59 373.9L1375.48 369.983C1379.43 364.57 1384.45 357.742 1393.77 345.04C1398.14 339.096 1404.9 329.875 1408.8 324.571C1412.7 319.254 1419.1 310.536 1423.02 305.191C1426.95 299.846 1434.4 289.7 1439.56 282.655C1444.74 275.597 1448.97 269.803 1448.97 269.762C1448.97 269.721 1436.01 269.694 1420.19 269.694L1391.4 269.708L1386.15 276.739C1383.25 280.602 1375.22 291.359 1368.28 300.635C1361.35 309.91 1352.85 321.28 1349.4 325.891C1345.96 330.515 1343.11 334.282 1343.06 334.282C1343.02 334.282 1332.11 319.757 1318.8 301.995L1294.6 269.708H1265.52C1242.28 269.694 1236.48 269.735 1236.57 269.857Z" fill="white"/>
<path d="M1486.49 341.191C1486.49 410.403 1486.52 415.897 1486.9 421.269C1487.57 430.49 1489.19 439.086 1491.66 446.634C1493.24 451.394 1496.08 457.528 1498.52 461.431C1507.24 475.344 1520.73 484.28 1538.83 488.169C1546.6 489.829 1554.31 490.522 1563.28 490.386C1569.21 490.291 1572.67 489.965 1578.46 488.917C1590.05 486.823 1604.01 482.117 1613.61 477.071C1617.78 474.868 1622.02 472.175 1624.89 469.891L1626.46 468.653L1626.5 477.697L1626.52 486.755H1651.95H1677.37V378.224V269.694H1651.95H1626.52V344.618V419.542L1625.53 421.501C1623.7 425.159 1621.68 427.838 1618.24 431.279C1615.14 434.367 1612.07 436.787 1608.01 439.344C1598.94 445.016 1589.73 448.062 1579.28 448.824C1576.72 449.014 1570.04 448.892 1568 448.62C1561.44 447.749 1556.51 446.076 1552.23 443.275C1545.39 438.8 1540.94 431.81 1538.78 422.153C1538.35 420.168 1537.95 417.869 1537.65 415.353C1537.43 413.504 1537.41 409.002 1537.34 341.572L1537.27 269.762L1511.89 269.721L1486.49 269.694V341.191Z" fill="white"/>
<path d="M480.929 284.586C481.309 284.858 481.853 285.253 482.152 285.484C482.451 285.701 482.914 286.028 483.186 286.205C484.3 286.953 489.249 291.89 489.956 292.95C490.065 293.141 490.364 293.508 490.609 293.766C490.84 294.025 491.207 294.474 491.424 294.746C491.628 295.018 492.145 295.684 492.566 296.242C493.926 298.01 495.707 300.349 497.107 302.185L498.467 303.994L512.47 303.926C520.178 303.885 526.785 303.817 527.152 303.763C528.525 303.613 528.716 303.559 528.716 303.314C528.702 303.028 528.512 302.702 527.859 301.845C527.574 301.478 527.057 300.798 526.704 300.349C523.957 296.772 517.35 289.265 514.563 286.558C513.625 285.661 512.837 285.13 511.722 284.681C510.648 284.233 508.078 284.165 493.64 284.137L480.249 284.097L480.929 284.586Z" fill="white"/>
<path d="M610.015 287.238C610.015 287.279 610.219 287.429 610.463 287.578C612.666 288.87 616.459 292.638 620.524 297.575C621.176 298.363 621.938 299.275 622.223 299.601C622.495 299.941 622.998 300.58 623.338 301.029C623.678 301.492 624.086 302.008 624.222 302.185C624.371 302.362 624.711 302.77 624.969 303.083C625.228 303.396 625.799 304.13 626.247 304.701L627.049 305.735H639.258C646.287 305.735 651.48 305.68 651.48 305.612C651.48 305.504 650.827 304.647 649.006 302.335C648.679 301.927 648.149 301.22 647.809 300.771C645.525 297.697 642.235 294.188 639.856 292.257C638.782 291.4 637.083 290.339 636.226 289.999C635.9 289.877 635.519 289.687 635.356 289.591C635.003 289.36 633.33 288.789 632.256 288.544C630.367 288.082 628.49 287.864 624.969 287.66C623.732 287.592 621.571 287.47 620.143 287.388C617.37 287.225 610.015 287.116 610.015 287.238Z" fill="white"/>
<path d="M602.02 341.599C601.735 341.653 601.707 341.721 601.775 342.156C601.898 343 602.115 346.726 602.142 348.617C602.183 350.453 602.36 352.126 602.509 352.098C602.645 352.085 605.568 348.902 607.635 346.536C609.28 344.659 611.373 341.993 611.373 341.776C611.373 341.721 611.088 341.64 610.748 341.585C610.041 341.49 602.523 341.504 602.02 341.599Z" fill="white"/>
<path d="M482.084 385.841C480.887 386.045 480.085 386.235 477.665 386.861C476.319 387.214 475.055 387.527 474.837 387.568C474.634 387.609 474.43 387.69 474.389 387.758C474.348 387.826 474.212 387.881 474.076 387.881C473.818 387.881 472.567 388.234 472.091 388.438C471.697 388.601 467.183 389.989 466.476 390.152C466.313 390.193 466.137 390.274 466.096 390.342C466.055 390.41 465.851 390.465 465.647 390.465C465.443 390.465 465.226 390.519 465.158 390.574C465.076 390.642 464.505 390.859 463.866 391.063C463.227 391.267 462.588 391.485 462.439 391.539C462.289 391.607 461.895 391.73 461.555 391.825C461.215 391.92 459.964 392.328 458.768 392.736C457.572 393.144 456.198 393.62 455.709 393.77C455.22 393.933 453.67 394.45 452.242 394.912C450.828 395.388 448.504 396.136 447.076 396.585C445.662 397.034 444.384 397.455 444.262 397.537C444.126 397.605 443.908 397.673 443.773 397.673C443.637 397.673 443.473 397.727 443.392 397.795C443.324 397.863 442.97 398.013 442.59 398.122C438.905 399.264 436.975 399.89 436.798 399.985C436.676 400.053 435.683 400.379 434.609 400.719C433.535 401.046 431.646 401.671 430.422 402.093C429.185 402.515 428.057 402.895 427.907 402.936C427.757 402.963 427.513 403.045 427.363 403.113C427.214 403.181 426.724 403.331 426.276 403.453C425.827 403.575 425.338 403.739 425.188 403.793C425.038 403.847 424.25 404.119 423.421 404.391C422.605 404.663 421.803 404.949 421.653 405.003C421.177 405.221 419.981 405.561 419.723 405.561C419.573 405.561 419.41 405.615 419.342 405.683C419.26 405.751 418.472 406.023 417.575 406.295C416.677 406.567 415.821 406.853 415.671 406.921C415.277 407.098 414.054 407.492 411.525 408.281C410.288 408.662 408.942 409.111 408.534 409.26C408.126 409.41 406.835 409.818 405.679 410.185C402.797 411.083 401.464 411.518 400.989 411.736C400.771 411.831 399.697 412.184 398.609 412.511C397.522 412.824 396.611 413.136 396.57 413.191C396.529 413.259 396.23 413.34 395.918 413.395C395.605 413.449 395.306 413.544 395.265 413.599C395.224 413.667 395.075 413.721 394.925 413.721C394.789 413.721 394.544 413.776 394.395 413.857C394.245 413.925 394.001 414.048 393.851 414.129C393.702 414.197 393.457 414.265 393.321 414.265C393.171 414.265 393.008 414.32 392.967 414.401C392.927 414.469 392.723 414.537 392.532 414.537C392.342 414.537 392.002 414.619 391.771 414.728C391.526 414.823 390.792 415.081 390.112 415.285C389.446 415.489 388.767 415.72 388.617 415.775C388.345 415.897 386.048 416.632 378.829 418.957C376.585 419.678 373.771 420.603 372.575 420.997C371.378 421.392 369.665 421.949 368.768 422.221C367.871 422.493 366.933 422.806 366.688 422.915C366.443 423.024 366.131 423.105 366.008 423.105C365.872 423.105 365.709 423.16 365.628 423.228C365.56 423.296 365.206 423.432 364.826 423.554C361.563 424.547 360.842 424.778 360.611 424.873C360.461 424.941 359.945 425.132 359.455 425.281C358.966 425.445 358.449 425.635 358.3 425.689C358.15 425.757 357.661 425.907 357.212 426.03C356.764 426.152 356.274 426.315 356.125 426.37C355.975 426.438 355.486 426.587 355.037 426.723C354.588 426.846 354.099 426.995 353.949 427.05C353.351 427.294 349.449 428.559 347.097 429.294C345.711 429.715 344.487 430.123 344.378 430.191C344.256 430.259 342.788 430.735 341.102 431.266C339.416 431.782 337.431 432.422 336.684 432.68C335.936 432.938 334.862 433.278 334.304 433.442C333.747 433.591 333.176 433.782 333.054 433.863C332.918 433.931 332.7 433.986 332.578 433.986C332.442 433.986 332.156 434.081 331.952 434.19C331.585 434.38 328.54 435.373 327.738 435.563C327.534 435.604 327.33 435.699 327.289 435.767C327.249 435.835 327.085 435.89 326.922 435.89C326.623 435.89 325.644 436.189 324.856 436.502C324.489 436.665 321.171 437.726 319.35 438.283C318.072 438.678 316.168 439.317 315.747 439.494C315.53 439.575 314.823 439.82 314.184 440.011C311.764 440.745 308.936 441.643 308.746 441.751C308.637 441.819 307.168 442.295 305.483 442.812C303.797 443.329 301.662 444.009 300.724 444.322C294.008 446.525 290.691 447.586 290.514 447.586C290.433 447.586 289.998 447.736 289.536 447.912C289.073 448.089 288.271 448.375 287.741 448.524C287.224 448.688 286.667 448.864 286.517 448.932C286.123 449.096 285.362 449.313 284.859 449.422C284.614 449.476 284.383 449.572 284.342 449.64C284.288 449.708 284.084 449.762 283.866 449.762C283.649 449.762 283.445 449.816 283.404 449.884C283.363 449.952 283.187 450.034 283.024 450.075C282.303 450.238 280.644 450.755 280.06 450.986C279.72 451.122 279.081 451.34 278.632 451.462C278.184 451.584 277.3 451.87 276.661 452.074C276.022 452.278 274.962 452.618 274.282 452.836C273.616 453.04 272.963 453.257 272.854 453.312C272.664 453.407 271.033 453.924 267.892 454.876C267.226 455.08 266.641 455.284 266.601 455.338C266.56 455.379 265.744 455.651 264.765 455.937C262.4 456.644 260.224 457.324 259.803 457.487C259.436 457.637 256.404 458.602 255.181 458.956C254.773 459.078 254.311 459.228 254.161 459.282C254.011 459.35 253.182 459.622 252.326 459.894C251.469 460.153 250.64 460.425 250.49 460.493C250.341 460.561 249.824 460.71 249.335 460.846C248.845 460.969 248.342 461.132 248.22 461.2C248.084 461.268 247.88 461.322 247.771 461.322C247.663 461.322 247.459 461.377 247.323 461.445C247.2 461.526 246.548 461.744 245.868 461.948C245.202 462.138 244.373 462.41 244.033 462.546C243.693 462.682 243.054 462.9 242.605 463.022C242.157 463.158 241.45 463.376 241.042 463.498C240.634 463.634 239.505 464.002 238.527 464.314C237.561 464.627 236.637 464.926 236.487 464.994C236.338 465.062 235.699 465.266 235.06 465.47C234.421 465.661 232.409 466.314 230.573 466.898C228.738 467.483 226.821 468.095 226.291 468.258C225.774 468.408 225.217 468.585 225.067 468.653C224.918 468.707 224.456 468.87 224.048 468.993C223.64 469.115 223.083 469.306 222.824 469.414C222.566 469.51 221.954 469.714 221.465 469.863C218.936 470.638 217.277 471.169 216.91 471.332C216.693 471.427 216.339 471.55 216.122 471.591C215.918 471.645 215.714 471.74 215.673 471.808C215.632 471.876 215.496 471.931 215.388 471.931C215.116 471.931 213.009 472.57 212.397 472.828C212.166 472.937 211.88 473.019 211.758 473.019C211.649 473.019 211.418 473.073 211.241 473.141C211.064 473.209 210.561 473.399 210.113 473.563C209.664 473.726 209.107 473.957 208.862 474.052C208.631 474.161 208.373 474.243 208.305 474.243C208.06 474.243 204.647 475.997 204.24 476.323C204.036 476.5 203.519 476.854 203.111 477.126C202.173 477.738 200.215 479.547 199.155 480.784C197.877 482.253 195.824 485.721 194.9 487.938C194.696 488.414 194.329 489.244 194.057 489.774C193.799 490.318 193.323 491.379 193.024 492.127C192.711 492.875 192.262 493.949 192.004 494.507C191.746 495.065 191.202 496.357 190.794 497.363C190.386 498.37 189.965 499.39 189.856 499.607C189.747 499.838 189.475 500.505 189.244 501.103C189.013 501.702 188.714 502.409 188.592 502.667C188.469 502.926 188.361 503.17 188.361 503.211C188.333 503.374 187.545 505.401 187.205 506.135C187.001 506.584 186.783 507.101 186.729 507.291C186.675 507.482 186.58 507.686 186.525 507.767C186.484 507.835 186.321 508.203 186.199 508.583C186.063 508.951 185.873 509.44 185.777 509.671C185.682 509.889 185.424 510.542 185.193 511.099C184.962 511.657 184.69 512.351 184.567 512.623C184.445 512.908 184.35 513.167 184.35 513.207C184.35 513.248 184.268 513.452 184.16 513.67C184.051 513.874 183.711 514.69 183.412 515.465C183.126 516.24 182.773 517.124 182.637 517.424C182.501 517.723 182.392 517.995 182.379 518.036C182.365 518.076 182.256 518.348 182.12 518.648C181.984 518.947 181.604 519.899 181.277 520.756C180.938 521.612 180.53 522.619 180.353 523C180.176 523.367 179.741 524.441 179.388 525.38C179.034 526.318 178.681 527.134 178.613 527.202C178.558 527.284 178.504 527.42 178.504 527.515C178.504 527.61 178.382 527.95 178.246 528.277C178.096 528.589 177.661 529.637 177.28 530.616C176.886 531.581 176.519 532.533 176.438 532.724C176.356 532.914 176.234 533.213 176.166 533.404C176.084 533.594 175.948 533.921 175.839 534.152C175.744 534.37 175.445 535.077 175.2 535.716C174.942 536.355 174.67 537.022 174.589 537.212C174.507 537.402 174.194 538.191 173.882 538.98C173.583 539.769 173.216 540.653 173.066 540.952C172.93 541.251 172.468 542.38 172.046 543.468C171.625 544.556 171.176 545.644 171.054 545.903C170.932 546.161 170.823 546.406 170.809 546.447C170.809 546.487 170.714 546.746 170.605 547.004C170.483 547.263 170.102 548.242 169.735 549.18C169.382 550.119 169.042 550.935 168.974 551.016C168.919 551.084 168.498 552.132 168.036 553.328C167.56 554.525 167.043 555.844 166.88 556.252C166.703 556.66 166.35 557.544 166.064 558.224C165.793 558.891 165.385 559.856 165.167 560.373C164.95 560.876 164.773 561.353 164.773 561.434C164.773 561.502 164.623 561.897 164.447 562.277C163.74 563.814 163.413 564.589 163.413 564.698C163.413 564.766 163.264 565.147 163.074 565.555C162.883 565.963 162.734 566.371 162.734 566.439C162.734 566.521 162.666 566.697 162.598 566.833C162.516 566.956 162.244 567.581 162 568.221C161.741 568.86 161.061 570.506 160.49 571.893C159.919 573.28 158.995 575.565 158.438 576.966C157.88 578.38 157.309 579.767 157.16 580.053C156.956 580.461 156.929 580.597 157.064 580.706C157.16 580.787 158.084 581.223 159.131 581.685C166.989 585.18 174.493 587.166 183.67 588.172C185.641 588.39 193.404 588.417 303.511 588.444L421.259 588.485L421.694 587.03C421.939 586.214 422.415 584.582 422.754 583.385C423.094 582.188 423.407 581.114 423.461 581.005C423.557 580.733 424.019 579.114 424.1 578.734C424.141 578.557 424.345 577.863 424.563 577.17C424.78 576.476 425.093 575.442 425.256 574.885C425.419 574.327 425.609 573.742 425.664 573.593C425.773 573.348 425.976 572.532 425.99 572.274C426.004 572.233 426.044 572.138 426.112 572.083C426.167 572.029 426.208 571.838 426.208 571.662C426.208 571.485 426.262 571.24 426.33 571.104C426.493 570.805 427.418 567.731 428.247 564.739C428.6 563.461 428.954 562.305 429.035 562.155C429.103 562.019 429.171 561.856 429.185 561.788C429.212 561.502 429.375 560.89 429.552 560.414C429.661 560.128 429.837 559.544 429.946 559.122C430.218 558.007 430.898 555.613 431.51 553.668C431.795 552.73 432.353 550.839 432.733 549.452C433.114 548.065 433.481 546.814 433.549 546.664C433.603 546.515 433.753 546.052 433.875 545.644C434.841 542.23 435.058 541.455 435.126 541.17C435.167 540.993 435.262 540.707 435.344 540.558C435.425 540.394 435.479 540.258 435.466 540.231C435.412 540.177 435.588 539.347 435.724 539.048C435.833 538.776 436.159 537.702 436.608 536.056C436.744 535.607 436.893 535.145 436.948 535.036C437.002 534.914 437.097 534.614 437.165 534.356C437.22 534.098 437.274 533.853 437.288 533.812C437.301 533.771 437.356 533.553 437.41 533.336C437.464 533.105 437.56 532.805 437.628 532.656C437.695 532.506 437.913 531.772 438.103 531.024C438.307 530.276 438.525 529.596 438.606 529.501C438.674 529.405 438.702 529.283 438.661 529.215C438.62 529.147 438.674 528.929 438.783 528.725C438.892 528.521 439.028 528.127 439.082 527.855C439.205 527.257 439.191 527.27 439.286 527.012C439.531 526.359 440.618 522.401 440.618 522.184C440.618 522.075 440.686 521.98 440.754 521.98C440.836 521.98 440.89 521.871 440.89 521.735C440.89 521.612 440.986 521.259 441.081 520.96C441.189 520.66 441.312 520.225 441.353 520.008C441.475 519.341 442.794 514.717 442.943 514.472C443.052 514.255 443.881 511.317 444.643 508.447C444.819 507.767 445.037 507.101 445.105 506.951C445.186 506.802 445.581 505.482 446.002 504.027C446.41 502.572 446.859 500.981 447.008 500.491C447.307 499.458 448.15 496.71 448.273 496.411C448.313 496.302 448.395 496.017 448.449 495.799C448.504 495.568 448.572 495.323 448.585 495.255C448.612 495.173 448.667 494.929 448.721 494.711C448.762 494.48 448.844 494.181 448.911 494.031C448.966 493.881 449.238 492.957 449.523 491.991C449.795 491.012 450.067 490.101 450.135 489.951C450.189 489.801 450.312 489.434 450.393 489.135C450.461 488.836 450.584 488.441 450.638 488.251C450.692 488.06 450.747 487.843 450.76 487.775C451.44 485.286 452.174 482.797 452.46 482.022C452.596 481.641 452.718 481.274 452.732 481.206C452.745 481.152 452.773 481.043 452.786 480.975C452.813 480.893 452.99 480.227 453.194 479.479C453.398 478.731 453.779 477.384 454.037 476.487C454.295 475.589 454.526 474.787 454.54 474.719C454.567 474.637 454.608 474.487 454.649 474.379C454.73 474.175 455.492 471.495 455.995 469.686C456.144 469.156 456.321 468.49 456.402 468.19C456.484 467.891 456.593 467.551 456.634 467.442C456.674 467.334 456.715 467.17 456.742 467.102C456.769 467.021 457.001 466.259 457.259 465.402C457.517 464.546 457.83 463.444 457.952 462.954C458.061 462.465 458.224 461.948 458.292 461.798C458.401 461.526 458.605 460.71 458.564 460.71C458.55 460.71 458.632 460.465 458.768 460.166C458.89 459.867 459.257 458.67 459.584 457.514C460.427 454.522 461.093 452.237 461.324 451.53C461.501 450.986 461.732 450.238 462.099 448.878C462.167 448.647 462.384 447.94 462.575 447.3C462.765 446.661 462.955 446.049 462.969 445.94C463.05 445.519 463.227 444.893 463.458 444.186C463.594 443.778 463.812 443.071 463.934 442.622C464.056 442.173 464.22 441.656 464.274 441.466C464.342 441.275 464.709 439.997 465.09 438.61C465.47 437.223 465.892 435.754 466.041 435.346C466.177 434.938 466.735 433.034 467.265 431.13C467.795 429.226 468.271 427.539 468.339 427.39C468.475 427.09 468.638 426.546 469.304 424.193C469.535 423.337 469.794 422.521 469.862 422.398C469.93 422.262 469.984 422.031 469.984 421.895C469.984 421.745 470.106 421.297 470.242 420.902C470.541 420.086 471.058 418.413 471.411 417.121C471.547 416.632 471.738 415.965 471.846 415.625C471.955 415.285 472.078 414.918 472.105 414.809C472.132 414.7 472.214 414.36 472.295 414.061C472.377 413.762 472.485 413.368 472.526 413.177C472.567 412.987 472.649 412.769 472.703 412.701C472.785 412.579 473.07 411.722 474.294 407.805C474.769 406.241 475.055 405.479 475.721 403.807C475.939 403.263 476.143 402.691 476.17 402.569C476.292 401.957 477.665 399.427 478.318 398.625C479.188 397.55 479.473 397.36 482.559 395.769L485.007 394.504L486.516 394.667C487.345 394.749 489.18 394.817 490.594 394.817C491.995 394.817 493.803 394.885 494.591 394.953C495.38 395.034 498.343 395.157 501.185 395.238C506.691 395.388 510.008 395.51 515.12 395.755C516.874 395.837 520.055 395.973 522.189 396.041C529.381 396.286 533.8 396.449 536.056 396.585C537.294 396.666 539.224 396.721 540.339 396.721C541.467 396.721 542.772 396.775 543.262 396.843C543.751 396.911 546.294 397.02 548.904 397.061C551.528 397.115 553.975 397.21 554.355 397.251C554.723 397.306 556.232 397.374 557.686 397.387C559.141 397.414 560.568 397.455 560.868 397.482C561.167 397.51 562.88 397.578 564.674 397.659C566.469 397.727 571.73 397.945 576.366 398.135C581.002 398.339 586.263 398.557 588.058 398.625C589.852 398.679 591.633 398.774 592 398.815C592.381 398.856 593.931 398.924 595.467 398.965C597.003 399.006 598.594 399.06 599.002 399.087C599.41 399.128 601.367 399.183 603.352 399.237C605.337 399.278 607.322 399.346 607.771 399.373C608.94 399.455 611.346 399.55 616.404 399.713C618.837 399.795 622.182 399.917 623.854 399.985C630.842 400.284 635.532 400.094 636.892 399.427C638.564 398.625 639.067 395.429 637.721 394.178C637.367 393.851 636.538 393.593 635.818 393.593C635.546 393.593 635.179 393.538 635.002 393.47C634.825 393.402 634.064 393.307 633.33 393.266C632.582 393.212 630.651 393.09 629.047 392.981C627.443 392.872 625.485 392.736 624.697 392.695C623.908 392.654 622.753 392.573 622.114 392.491C621.475 392.423 620.36 392.369 619.612 392.369C618.878 392.369 617.899 392.301 617.437 392.233C616.988 392.151 615.044 392.029 613.141 391.947C605.609 391.621 603.407 391.498 597.914 391.145C596.759 391.077 594.529 390.954 592.952 390.873C591.389 390.805 589.676 390.71 589.145 390.669C588.207 390.574 585.094 390.41 580.58 390.206C573.742 389.893 571.254 389.771 569.161 389.649C567.896 389.567 566.088 389.485 565.15 389.445C564.212 389.417 562.349 389.322 561.003 389.241C559.658 389.173 557.156 389.05 555.429 388.969C552.085 388.819 551.133 388.778 547.204 388.533C545.818 388.452 543.615 388.343 542.31 388.289C535.05 388.003 531.951 387.867 529.939 387.745C528.701 387.677 526.988 387.581 526.132 387.541C525.275 387.513 523.889 387.445 523.073 387.405C522.244 387.364 520.082 387.282 518.247 387.201C516.411 387.119 514.25 387.037 513.42 386.997C512.605 386.956 510.43 386.874 508.594 386.793C500.791 386.48 498.534 386.371 497.31 386.249C496.603 386.181 495.162 386.085 494.115 386.045C493.069 386.004 491.056 385.922 489.629 385.841C486.624 385.691 482.967 385.691 482.084 385.841Z" fill="white"/>
</svg>
